<svg viewBox="0 0 1295 521" version="1.1" xmlns="http://www.w3.org/2000/svg" desc="Created on https://convert2svg.com/" ><path fill="rgb(0,0,0)" stroke="rgb(0,0,0)" stroke-width="1" opacity="0" d="M 0 0 L 1295 0 L 1295 521 L 0 521 L 0 0 Z M 488 39 L 487 40 L 473 41 L 463 44 L 453 52 L 453 58 L 458 64 L 451 95 L 441 130 L 439 130 L 431 135 Q 418 146 411 163 L 402 185 L 389 227 L 378 253 Q 368 273 353 290 Q 320 325 274 346 L 257 353 L 228 362 L 202 367 L 193 367 L 192 368 L 161 368 L 132 363 L 103 352 Q 75 340 51 324 Q 36 322 30 328 Q 23 332 21 340 L 21 347 L 24 356 L 24 371 L 23 372 L 25 389 L 30 404 Q 37 420 48 432 Q 61 446 79 456 L 112 471 L 131 477 L 157 483 L 184 486 L 185 487 L 193 487 L 194 488 L 205 488 L 206 489 L 262 489 Q 263 486 270 488 L 298 483 L 336 472 Q 398 450 442 408 Q 476 376 496 329 L 504 307 L 512 274 L 514 255 L 515 254 L 516 222 L 517 221 L 516 192 L 512 175 L 504 159 L 483 135 Q 488 101 500 75 Q 507 66 518 61 Q 525 59 523 48 L 519 43 L 508 39 L 488 39 Z M 1151 228 L 1135 236 L 1120 239 L 1112 242 L 1108 247 Q 1107 252 1110 255 Q 1114 259 1123 259 L 1126 263 L 1127 274 L 1128 275 L 1128 396 L 1127 397 L 1127 414 L 1126 419 L 1124 422 Q 1117 424 1116 421 L 1108 423 L 1105 427 L 1106 436 L 1109 438 L 1115 440 L 1132 439 L 1133 438 L 1155 438 L 1164 440 Q 1173 441 1178 438 L 1182 432 L 1181 426 L 1179 423 L 1173 421 L 1163 422 L 1160 419 L 1159 414 L 1159 355 Q 1162 342 1168 334 Q 1174 324 1188 321 Q 1201 320 1208 326 L 1214 336 L 1217 348 L 1217 408 L 1216 409 L 1216 417 L 1213 422 Q 1207 424 1206 421 L 1199 422 L 1194 428 L 1195 436 L 1205 440 L 1222 439 L 1223 438 L 1244 438 L 1253 440 L 1261 440 L 1269 437 L 1271 434 L 1270 426 L 1267 422 L 1263 421 L 1253 422 L 1249 417 L 1249 409 L 1248 408 L 1248 340 Q 1246 338 1247 333 Q 1244 318 1236 310 L 1221 299 L 1208 296 L 1195 296 L 1186 298 Q 1173 302 1165 310 L 1160 316 L 1159 316 L 1159 250 L 1162 241 L 1162 232 Q 1160 226 1151 228 Z M 590 296 L 571 301 L 553 312 Q 532 328 526 360 L 526 384 L 528 394 Q 532 408 541 419 L 559 433 L 571 438 L 586 441 L 607 441 L 617 439 Q 632 434 644 424 Q 657 412 664 395 L 668 381 L 668 373 L 669 372 Q 670 337 654 320 Q 645 309 632 302 L 608 296 L 590 296 Z M 732 296 L 731 297 L 720 298 L 712 301 L 701 308 Q 691 315 688 329 Q 687 347 695 357 Q 703 367 715 373 L 737 382 L 754 391 Q 761 395 763 404 L 763 409 L 760 415 L 746 422 L 733 422 L 721 417 L 713 410 L 706 395 L 701 391 Q 692 390 689 393 Q 682 396 681 405 L 682 412 L 689 423 L 706 435 L 726 441 L 746 441 L 756 439 L 768 434 L 779 426 L 787 415 L 790 405 L 790 390 Q 787 378 780 371 L 763 357 L 738 346 L 722 337 L 715 329 L 716 323 L 723 317 L 732 315 Q 743 315 749 320 L 756 331 L 766 335 L 772 334 L 777 331 Q 781 328 782 322 L 779 313 Q 765 294 732 296 Z M 866 296 L 849 300 Q 837 305 828 313 Q 818 321 812 333 L 807 345 L 804 359 L 804 380 L 806 391 Q 811 408 821 420 L 838 433 L 853 439 L 864 441 L 886 441 L 896 439 Q 910 435 921 426 L 929 416 Q 930 407 927 404 L 924 402 L 917 402 L 903 413 L 889 418 L 872 418 Q 861 416 855 410 Q 840 399 838 376 L 840 374 L 865 373 L 866 372 L 882 372 L 883 371 L 902 371 L 903 370 L 915 370 L 924 368 Q 928 365 930 359 L 929 338 L 927 331 L 920 318 Q 911 305 896 299 L 884 296 L 866 296 Z M 986 296 L 972 303 L 948 309 L 945 311 L 941 317 L 942 322 Q 946 327 956 327 L 959 331 L 961 338 L 961 470 L 960 471 L 960 479 L 956 478 L 945 478 L 943 479 L 938 485 L 939 493 Q 942 497 948 498 L 959 498 L 969 496 L 985 496 L 986 497 L 1000 497 L 1001 498 Q 1011 499 1018 496 L 1022 490 Q 1022 483 1019 481 L 1014 477 L 996 478 L 995 479 L 992 478 L 993 434 L 1004 439 L 1015 440 L 1016 441 L 1033 441 L 1042 439 Q 1058 434 1069 424 L 1084 405 L 1090 391 L 1093 376 L 1093 359 L 1092 358 L 1091 346 L 1082 324 L 1076 316 L 1063 304 L 1049 298 L 1039 296 L 1026 296 L 1016 298 L 1004 303 L 995 309 L 996 306 L 995 300 Q 993 295 986 296 Z " /><path fill="rgb(0,0,0)" stroke="rgb(0,0,0)" stroke-width="1" opacity="0" d="M 471.5 67 L 477.5 67 L 484 69 L 483 77.5 L 468 130.5 L 467 142.5 Q 474.7 151.3 478 164.5 L 480 175.5 L 480 185.5 L 481 186.5 L 481 203.5 L 480 204.5 L 480 215.5 L 479 216.5 L 478 228.5 L 472 254.5 L 459 289.5 Q 439.3 332.8 406.5 363 Q 365.6 400.1 306.5 419 L 277.5 427 L 250.5 432 L 234.5 433 L 233.5 434 L 220.5 434 L 219.5 435 L 183.5 435 L 182.5 434 L 171.5 434 L 170.5 433 L 154.5 432 L 139.5 429 L 114.5 421 Q 84.8 408.2 64 386.5 Q 50.2 373 42 355 Q 50.8 354.4 55 348.5 L 57 344 Q 87.4 366.4 128.5 379 L 147.5 383 L 162.5 384 L 163.5 385 L 204.5 385 L 205.5 384 L 220.5 383 L 249.5 376 Q 271.5 369 290.5 359 Q 335.8 335.3 369 299.5 Q 384.1 282.1 395 260.5 L 403 241.5 L 421 182.5 L 434 156.5 L 445.5 142 L 453 137.5 L 469 77.5 L 470 68.5 L 471.5 67 Z " /><path fill="rgb(0,0,0)" stroke="rgb(0,0,0)" stroke-width="1" opacity="0" d="M 867.5 315 Q 886.3 314.7 893 326.5 L 898 337.5 L 898 350 L 888.5 352 L 879.5 352 L 878.5 353 L 838 355 Q 838.7 329.6 855.5 319 L 867.5 315 Z " /><path fill="rgb(0,0,0)" stroke="rgb(0,0,0)" stroke-width="1" opacity="0" d="M 587.5 316 Q 600.6 314.4 608.5 318 Q 618.1 321.9 624 329.5 Q 638.1 346.9 637 379.5 L 636 380.5 L 635 392.5 L 632 400.5 Q 627.7 410.2 619.5 416 L 609.5 421 L 596.5 422 Q 582.1 419.4 574 410.5 Q 556.2 392.3 559 353.5 L 561 343.5 L 566 332.5 L 577.5 320 L 587.5 316 Z " /><path fill="rgb(0,0,0)" stroke="rgb(0,0,0)" stroke-width="1" opacity="0" d="M 1017.5 320 Q 1028.3 318.3 1034.5 321 Q 1042.9 324.6 1048 331.5 Q 1063.2 349.8 1060 386.5 L 1054 405.5 L 1043.5 417 L 1034.5 421 L 1026.5 422 Q 1024.8 419.3 1018.5 421 L 1009.5 418 Q 1000.8 413.8 995 406.5 L 992 401.5 L 992 341.5 L 998 332 L 1006.5 325 L 1017.5 320 Z " /><path fill="rgb(0,0,0)" stroke="rgb(0,0,0)" stroke-width="1" opacity="0.6509803921568628" d="M 487.5 39 L 492 39.5 L 487.5 40 L 487.5 39 Z " /><path fill="rgb(0,0,0)" stroke="rgb(0,0,0)" stroke-width="1" opacity="0.6509803921568628" d="M 505.5 39 L 508 39.5 L 505.5 40 L 505.5 39 Z " /><path fill="rgb(0,0,0)" stroke="rgb(0,0,0)" stroke-width="1" opacity="0.6509803921568628" d="M 478.5 40 L 482 40.5 L 478.5 41 L 478.5 40 Z " /><path fill="rgb(0,0,0)" stroke="rgb(0,0,0)" stroke-width="1" opacity="0.6509803921568628" d="M 472.5 41 L 475 41.5 L 472.5 42 L 472.5 41 Z " /><path fill="rgb(0,0,0)" stroke="rgb(0,0,0)" stroke-width="1" opacity="0.6509803921568628" d="M 462.5 44 L 464 44.5 L 461.5 46 L 462.5 44 Z " /><path fill="rgb(0,0,0)" stroke="rgb(0,0,0)" stroke-width="1" opacity="0.6509803921568628" d="M 521.5 46 L 523 48.5 L 522 48.5 L 521.5 46 Z " /><path fill="rgb(0,0,0)" stroke="rgb(0,0,0)" stroke-width="1" opacity="0.6509803921568628" d="M 457.5 47 L 456.5 49 L 457.5 47 Z " /><path fill="rgb(0,0,0)" stroke="rgb(0,0,0)" stroke-width="1" opacity="0.6509803921568628" d="M 454.5 50 L 453.5 52 L 454.5 50 Z " /><path fill="rgb(0,0,0)" stroke="rgb(0,0,0)" stroke-width="1" opacity="0.6509803921568628" d="M 521.5 56 L 517.5 61 L 521.5 56 Z " /><path fill="rgb(0,0,0)" stroke="rgb(0,0,0)" stroke-width="1" opacity="0.6509803921568628" d="M 456.5 61 L 457.5 63 L 456.5 61 Z " /><path fill="rgb(0,0,0)" stroke="rgb(0,0,0)" stroke-width="1" opacity="0.6509803921568628" d="M 472.5 66 L 475 66.5 L 472.5 67 L 472.5 66 Z " /><path fill="rgb(0,0,0)" stroke="rgb(0,0,0)" stroke-width="1" opacity="0.6509803921568628" d="M 505.5 68 L 501.5 73 L 505.5 68 Z " /><path fill="rgb(0,0,0)" stroke="rgb(0,0,0)" stroke-width="1" opacity="0.6509803921568628" d="M 484.5 69 L 485 71.5 L 484 71.5 L 484.5 69 Z " /><path fill="rgb(0,0,0)" stroke="rgb(0,0,0)" stroke-width="1" opacity="0.6509803921568628" d="M 484.5 123 L 485 125.5 L 484 125.5 L 484.5 123 Z " /><path fill="rgb(0,0,0)" stroke="rgb(0,0,0)" stroke-width="1" opacity="0.6509803921568628" d="M 483.5 128 L 484 131.5 L 483 131.5 L 483.5 128 Z " /><path fill="rgb(0,0,0)" stroke="rgb(0,0,0)" stroke-width="1" opacity="0.6509803921568628" d="M 468.5 130 L 469 132.5 L 468 132.5 L 468.5 130 Z " /><path fill="rgb(0,0,0)" stroke="rgb(0,0,0)" stroke-width="1" opacity="0.6509803921568628" d="M 434.5 132 L 433.5 134 L 434.5 132 Z " /><path fill="rgb(0,0,0)" stroke="rgb(0,0,0)" stroke-width="1" opacity="0.6509803921568628" d="M 430.5 135 L 424.5 142 L 430.5 135 Z " /><path fill="rgb(0,0,0)" stroke="rgb(0,0,0)" stroke-width="1" opacity="0.6509803921568628" d="M 452.5 137 L 451.5 139 L 452.5 137 Z " /><path fill="rgb(0,0,0)" stroke="rgb(0,0,0)" stroke-width="1" opacity="0.6509803921568628" d="M 447.5 140 L 446.5 142 L 447.5 140 Z " /><path fill="rgb(0,0,0)" stroke="rgb(0,0,0)" stroke-width="1" opacity="0.6509803921568628" d="M 422.5 144 L 421.5 146 L 422.5 144 Z " /><path fill="rgb(0,0,0)" stroke="rgb(0,0,0)" stroke-width="1" opacity="0.6509803921568628" d="M 441.5 146 L 440.5 148 L 441.5 146 Z " /><path fill="rgb(0,0,0)" stroke="rgb(0,0,0)" stroke-width="1" opacity="0.6509803921568628" d="M 493.5 146 L 496.5 150 L 493.5 146 Z " /><path fill="rgb(0,0,0)" stroke="rgb(0,0,0)" stroke-width="1" opacity="0.6509803921568628" d="M 470.5 147 L 471.5 149 L 470.5 147 Z " /><path fill="rgb(0,0,0)" stroke="rgb(0,0,0)" stroke-width="1" opacity="0.6509803921568628" d="M 418.5 150 L 417.5 152 L 418.5 150 Z " /><path fill="rgb(0,0,0)" stroke="rgb(0,0,0)" stroke-width="1" opacity="0.6509803921568628" d="M 438.5 150 L 437.5 152 L 438.5 150 Z " /><path fill="rgb(0,0,0)" stroke="rgb(0,0,0)" stroke-width="1" opacity="0.6509803921568628" d="M 499.5 153 L 500.5 155 L 499.5 153 Z " /><path fill="rgb(0,0,0)" stroke="rgb(0,0,0)" stroke-width="1" opacity="0.6509803921568628" d="M 502.5 157 L 503.5 159 L 502.5 157 Z " /><path fill="rgb(0,0,0)" stroke="rgb(0,0,0)" stroke-width="1" opacity="0.6509803921568628" d="M 430.5 163 L 429.5 165 L 430.5 163 Z " /><path fill="rgb(0,0,0)" stroke="rgb(0,0,0)" stroke-width="1" opacity="0.6509803921568628" d="M 478.5 166 L 479 168.5 L 478 168.5 L 478.5 166 Z " /><path fill="rgb(0,0,0)" stroke="rgb(0,0,0)" stroke-width="1" opacity="0.6509803921568628" d="M 479.5 172 L 480 174.5 L 479 174.5 L 479.5 172 Z " /><path fill="rgb(0,0,0)" stroke="rgb(0,0,0)" stroke-width="1" opacity="0.6509803921568628" d="M 480.5 180 L 481 185.5 L 480 185.5 L 480.5 180 Z " /><path fill="rgb(0,0,0)" stroke="rgb(0,0,0)" stroke-width="1" opacity="0.6509803921568628" d="M 515.5 191 L 516 195.5 L 515 195.5 L 515.5 191 Z " /><path fill="rgb(0,0,0)" stroke="rgb(0,0,0)" stroke-width="1" opacity="0.6509803921568628" d="M 480.5 204 L 481 210.5 L 480 210.5 L 480.5 204 Z " /><path fill="rgb(0,0,0)" stroke="rgb(0,0,0)" stroke-width="1" opacity="0.6509803921568628" d="M 516.5 212 L 517 220.5 L 516 220.5 L 516.5 212 Z " /><path fill="rgb(0,0,0)" stroke="rgb(0,0,0)" stroke-width="1" opacity="0.6509803921568628" d="M 479.5 216 L 480 219.5 L 479 219.5 L 479.5 216 Z " /><path fill="rgb(0,0,0)" stroke="rgb(0,0,0)" stroke-width="1" opacity="0.6509803921568628" d="M 478.5 223 L 479 225.5 L 478 225.5 L 478.5 223 Z " /><path fill="rgb(0,0,0)" stroke="rgb(0,0,0)" stroke-width="1" opacity="0.6509803921568628" d="M 1157.5 228 L 1162 231.5 L 1161.5 233 L 1158.5 229 L 1157.5 228 Z " /><path fill="rgb(0,0,0)" stroke="rgb(0,0,0)" stroke-width="1" opacity="0.6509803921568628" d="M 477.5 229 L 478 231.5 L 477 231.5 L 477.5 229 Z " /><path fill="rgb(0,0,0)" stroke="rgb(0,0,0)" stroke-width="1" opacity="0.6509803921568628" d="M 476.5 234 L 477 236.5 L 476 236.5 L 476.5 234 Z " /><path fill="rgb(0,0,0)" stroke="rgb(0,0,0)" stroke-width="1" opacity="0.6509803921568628" d="M 515.5 235 L 516 242.5 L 515 242.5 L 515.5 235 Z " /><path fill="rgb(0,0,0)" stroke="rgb(0,0,0)" stroke-width="1" opacity="0.6509803921568628" d="M 1111.5 242 L 1110.5 244 L 1111.5 242 Z " /><path fill="rgb(0,0,0)" stroke="rgb(0,0,0)" stroke-width="1" opacity="0.6509803921568628" d="M 1108.5 246 L 1109 250.5 L 1108 250.5 L 1108.5 246 Z " /><path fill="rgb(0,0,0)" stroke="rgb(0,0,0)" stroke-width="1" opacity="0.6509803921568628" d="M 1159.5 246 L 1160 248.5 L 1159 248.5 L 1159.5 246 Z " /><path fill="rgb(0,0,0)" stroke="rgb(0,0,0)" stroke-width="1" opacity="0.6509803921568628" d="M 514.5 249 L 515 253.5 L 514 253.5 L 514.5 249 Z " /><path fill="rgb(0,0,0)" stroke="rgb(0,0,0)" stroke-width="1" opacity="0.6509803921568628" d="M 1158.5 253 L 1159 316.5 L 1158 316.5 L 1158.5 253 Z " /><path fill="rgb(0,0,0)" stroke="rgb(0,0,0)" stroke-width="1" opacity="0.6509803921568628" d="M 1110.5 254 L 1111.5 256 L 1110.5 254 Z " /><path fill="rgb(0,0,0)" stroke="rgb(0,0,0)" stroke-width="1" opacity="0.6509803921568628" d="M 513.5 258 L 514 261.5 L 513 261.5 L 513.5 258 Z " /><path fill="rgb(0,0,0)" stroke="rgb(0,0,0)" stroke-width="1" opacity="0.6509803921568628" d="M 1123.5 259 L 1125.5 262 L 1123.5 259 Z " /><path fill="rgb(0,0,0)" stroke="rgb(0,0,0)" stroke-width="1" opacity="0.6509803921568628" d="M 512.5 265 L 513 267.5 L 512 267.5 L 512.5 265 Z " /><path fill="rgb(0,0,0)" stroke="rgb(0,0,0)" stroke-width="1" opacity="0.6509803921568628" d="M 1127.5 267 L 1128 273.5 L 1127 273.5 L 1127.5 267 Z " /><path fill="rgb(0,0,0)" stroke="rgb(0,0,0)" stroke-width="1" opacity="0.6509803921568628" d="M 511.5 271 L 512 273.5 L 511 273.5 L 511.5 271 Z " /><path fill="rgb(0,0,0)" stroke="rgb(0,0,0)" stroke-width="1" opacity="0.6509803921568628" d="M 387.5 273 L 386.5 275 L 387.5 273 Z " /><path fill="rgb(0,0,0)" stroke="rgb(0,0,0)" stroke-width="1" opacity="0.6509803921568628" d="M 363.5 276 L 362.5 278 L 363.5 276 Z " /><path fill="rgb(0,0,0)" stroke="rgb(0,0,0)" stroke-width="1" opacity="0.6509803921568628" d="M 360.5 280 L 358.5 283 L 360.5 280 Z " /><path fill="rgb(0,0,0)" stroke="rgb(0,0,0)" stroke-width="1" opacity="0.6509803921568628" d="M 356.5 285 L 353.5 289 L 356.5 285 Z " /><path fill="rgb(0,0,0)" stroke="rgb(0,0,0)" stroke-width="1" opacity="0.6509803921568628" d="M 379.5 285 L 378.5 287 L 379.5 285 Z " /><path fill="rgb(0,0,0)" stroke="rgb(0,0,0)" stroke-width="1" opacity="0.6509803921568628" d="M 508.5 286 L 509 288.5 L 508 288.5 L 508.5 286 Z " /><path fill="rgb(0,0,0)" stroke="rgb(0,0,0)" stroke-width="1" opacity="0.6509803921568628" d="M 376.5 289 L 375.5 291 L 376.5 289 Z " /><path fill="rgb(0,0,0)" stroke="rgb(0,0,0)" stroke-width="1" opacity="0.6509803921568628" d="M 373.5 293 L 371.5 296 L 373.5 293 Z " /><path fill="rgb(0,0,0)" stroke="rgb(0,0,0)" stroke-width="1" opacity="0.6509803921568628" d="M 347.5 295 L 341.5 302 L 347.5 295 Z " /><path fill="rgb(0,0,0)" stroke="rgb(0,0,0)" stroke-width="1" opacity="0.6509803921568628" d="M 589.5 296 L 608 296.5 L 589.5 297 L 589.5 296 Z " /><path fill="rgb(0,0,0)" stroke="rgb(0,0,0)" stroke-width="1" opacity="0.6509803921568628" d="M 731.5 296 L 747 296.5 L 731.5 297 L 731.5 296 Z " /><path fill="rgb(0,0,0)" stroke="rgb(0,0,0)" stroke-width="1" opacity="0.6509803921568628" d="M 865.5 296 L 870 296.5 L 865.5 297 L 865.5 296 Z " /><path fill="rgb(0,0,0)" stroke="rgb(0,0,0)" stroke-width="1" opacity="0.6509803921568628" d="M 879.5 296 L 884 296.5 L 879.5 297 L 879.5 296 Z " /><path fill="rgb(0,0,0)" stroke="rgb(0,0,0)" stroke-width="1" opacity="0.6509803921568628" d="M 985.5 296 L 991 296.5 L 985.5 297 L 985.5 296 Z " /><path fill="rgb(0,0,0)" stroke="rgb(0,0,0)" stroke-width="1" opacity="0.6509803921568628" d="M 1025.5 296 L 1039 296.5 L 1025.5 297 L 1025.5 296 Z " /><path fill="rgb(0,0,0)" stroke="rgb(0,0,0)" stroke-width="1" opacity="0.6509803921568628" d="M 1194.5 296 L 1208 296.5 L 1194.5 297 L 1194.5 296 Z " /><path fill="rgb(0,0,0)" stroke="rgb(0,0,0)" stroke-width="1" opacity="0.6509803921568628" d="M 612.5 297 L 615 297.5 L 612.5 298 L 612.5 297 Z " /><path fill="rgb(0,0,0)" stroke="rgb(0,0,0)" stroke-width="1" opacity="0.6509803921568628" d="M 750.5 297 L 753 297.5 L 750.5 298 L 750.5 297 Z " /><path fill="rgb(0,0,0)" stroke="rgb(0,0,0)" stroke-width="1" opacity="0.6509803921568628" d="M 887.5 297 L 890 297.5 L 887.5 298 L 887.5 297 Z " /><path fill="rgb(0,0,0)" stroke="rgb(0,0,0)" stroke-width="1" opacity="0.6509803921568628" d="M 992.5 297 L 994.5 300 L 992.5 297 Z " /><path fill="rgb(0,0,0)" stroke="rgb(0,0,0)" stroke-width="1" opacity="0.6509803921568628" d="M 1019.5 297 L 1022 297.5 L 1019.5 298 L 1019.5 297 Z " /><path fill="rgb(0,0,0)" stroke="rgb(0,0,0)" stroke-width="1" opacity="0.6509803921568628" d="M 1042.5 297 L 1045 297.5 L 1042.5 298 L 1042.5 297 Z " /><path fill="rgb(0,0,0)" stroke="rgb(0,0,0)" stroke-width="1" opacity="0.6509803921568628" d="M 719.5 298 L 722 298.5 L 719.5 299 L 719.5 298 Z " /><path fill="rgb(0,0,0)" stroke="rgb(0,0,0)" stroke-width="1" opacity="0.6509803921568628" d="M 368.5 299 L 351.5 317 L 368.5 299 Z " /><path fill="rgb(0,0,0)" stroke="rgb(0,0,0)" stroke-width="1" opacity="0.6509803921568628" d="M 995.5 301 L 996 305.5 L 995 305.5 L 995.5 301 Z " /><path fill="rgb(0,0,0)" stroke="rgb(0,0,0)" stroke-width="1" opacity="0.6509803921568628" d="M 709.5 302 L 708.5 304 L 709.5 302 Z " /><path fill="rgb(0,0,0)" stroke="rgb(0,0,0)" stroke-width="1" opacity="0.6509803921568628" d="M 768.5 303 L 769.5 305 L 768.5 303 Z " /><path fill="rgb(0,0,0)" stroke="rgb(0,0,0)" stroke-width="1" opacity="0.6509803921568628" d="M 1003.5 303 L 1002.5 305 L 1003.5 303 Z " /><path fill="rgb(0,0,0)" stroke="rgb(0,0,0)" stroke-width="1" opacity="0.6509803921568628" d="M 1062.5 304 L 1063.5 306 L 1062.5 304 Z " /><path fill="rgb(0,0,0)" stroke="rgb(0,0,0)" stroke-width="1" opacity="0.6509803921568628" d="M 1172.5 304 L 1171.5 306 L 1172.5 304 Z " /><path fill="rgb(0,0,0)" stroke="rgb(0,0,0)" stroke-width="1" opacity="0.6509803921568628" d="M 1229.5 304 L 1230.5 306 L 1229.5 304 Z " /><path fill="rgb(0,0,0)" stroke="rgb(0,0,0)" stroke-width="1" opacity="0.6509803921568628" d="M 704.5 305 L 703.5 307 L 704.5 305 Z " /><path fill="rgb(0,0,0)" stroke="rgb(0,0,0)" stroke-width="1" opacity="0.6509803921568628" d="M 771.5 305 L 773.5 308 L 771.5 305 Z " /><path fill="rgb(0,0,0)" stroke="rgb(0,0,0)" stroke-width="1" opacity="0.6509803921568628" d="M 1000.5 305 L 999.5 307 L 1000.5 305 Z " /><path fill="rgb(0,0,0)" stroke="rgb(0,0,0)" stroke-width="1" opacity="0.6509803921568628" d="M 335.5 306 L 333.5 309 L 335.5 306 Z " /><path fill="rgb(0,0,0)" stroke="rgb(0,0,0)" stroke-width="1" opacity="0.6509803921568628" d="M 908.5 306 L 909.5 308 L 908.5 306 Z " /><path fill="rgb(0,0,0)" stroke="rgb(0,0,0)" stroke-width="1" opacity="0.6509803921568628" d="M 1065.5 306 L 1066.5 308 L 1065.5 306 Z " /><path fill="rgb(0,0,0)" stroke="rgb(0,0,0)" stroke-width="1" opacity="0.6509803921568628" d="M 1169.5 306 L 1167.5 309 L 1169.5 306 Z " /><path fill="rgb(0,0,0)" stroke="rgb(0,0,0)" stroke-width="1" opacity="0.6509803921568628" d="M 557.5 308 L 556.5 310 L 557.5 308 Z " /><path fill="rgb(0,0,0)" stroke="rgb(0,0,0)" stroke-width="1" opacity="0.6509803921568628" d="M 641.5 308 L 642.5 310 L 641.5 308 Z " /><path fill="rgb(0,0,0)" stroke="rgb(0,0,0)" stroke-width="1" opacity="0.6509803921568628" d="M 700.5 308 L 695.5 314 L 700.5 308 Z " /><path fill="rgb(0,0,0)" stroke="rgb(0,0,0)" stroke-width="1" opacity="0.6509803921568628" d="M 994.5 308 Q 997.5 309.5 994.5 311 L 994.5 308 Z " /><path fill="rgb(0,0,0)" stroke="rgb(0,0,0)" stroke-width="1" opacity="0.6509803921568628" d="M 1234.5 308 L 1235.5 310 L 1234.5 308 Z " /><path fill="rgb(0,0,0)" stroke="rgb(0,0,0)" stroke-width="1" opacity="0.6509803921568628" d="M 832.5 309 L 831.5 311 L 832.5 309 Z " /><path fill="rgb(0,0,0)" stroke="rgb(0,0,0)" stroke-width="1" opacity="0.6509803921568628" d="M 1070.5 310 L 1075.5 316 L 1070.5 310 Z " /><path fill="rgb(0,0,0)" stroke="rgb(0,0,0)" stroke-width="1" opacity="0.6509803921568628" d="M 1164.5 310 L 1160.5 315 L 1164.5 310 Z " /><path fill="rgb(0,0,0)" stroke="rgb(0,0,0)" stroke-width="1" opacity="0.6509803921568628" d="M 329.5 311 L 328.5 313 L 329.5 311 Z " /><path fill="rgb(0,0,0)" stroke="rgb(0,0,0)" stroke-width="1" opacity="0.6509803921568628" d="M 645.5 311 L 653.5 320 L 645.5 311 Z " /><path fill="rgb(0,0,0)" stroke="rgb(0,0,0)" stroke-width="1" opacity="0.6509803921568628" d="M 777.5 311 L 778.5 313 L 777.5 311 Z " /><path fill="rgb(0,0,0)" stroke="rgb(0,0,0)" stroke-width="1" opacity="0.6509803921568628" d="M 944.5 311 L 943.5 313 L 944.5 311 Z " /><path fill="rgb(0,0,0)" stroke="rgb(0,0,0)" stroke-width="1" opacity="0.6509803921568628" d="M 552.5 312 L 549.5 316 L 552.5 312 Z " /><path fill="rgb(0,0,0)" stroke="rgb(0,0,0)" stroke-width="1" opacity="0.6509803921568628" d="M 827.5 313 L 820.5 321 L 827.5 313 Z " /><path fill="rgb(0,0,0)" stroke="rgb(0,0,0)" stroke-width="1" opacity="0.6509803921568628" d="M 1238.5 313 L 1239.5 315 L 1238.5 313 Z " /><path fill="rgb(0,0,0)" stroke="rgb(0,0,0)" stroke-width="1" opacity="0.6509803921568628" d="M 325.5 314 L 324.5 316 L 325.5 314 Z " /><path fill="rgb(0,0,0)" stroke="rgb(0,0,0)" stroke-width="1" opacity="0.6509803921568628" d="M 591.5 315 L 599 315.5 L 591.5 316 L 591.5 315 Z " /><path fill="rgb(0,0,0)" stroke="rgb(0,0,0)" stroke-width="1" opacity="0.6509803921568628" d="M 727.5 315 L 731 315.5 L 727.5 316 L 727.5 315 Z " /><path fill="rgb(0,0,0)" stroke="rgb(0,0,0)" stroke-width="1" opacity="0.6509803921568628" d="M 736.5 315 L 740 315.5 L 736.5 316 L 736.5 315 Z " /><path fill="rgb(0,0,0)" stroke="rgb(0,0,0)" stroke-width="1" opacity="0.6509803921568628" d="M 864.5 315 L 867 315.5 L 864.5 316 L 864.5 315 Z " /><path fill="rgb(0,0,0)" stroke="rgb(0,0,0)" stroke-width="1" opacity="0.6509803921568628" d="M 874.5 315 L 877 315.5 L 874.5 316 L 874.5 315 Z " /><path fill="rgb(0,0,0)" stroke="rgb(0,0,0)" stroke-width="1" opacity="0.6509803921568628" d="M 917.5 315 L 919.5 318 L 917.5 315 Z " /><path fill="rgb(0,0,0)" stroke="rgb(0,0,0)" stroke-width="1" opacity="0.6509803921568628" d="M 444.5 316 L 443.5 318 L 444.5 316 Z " /><path fill="rgb(0,0,0)" stroke="rgb(0,0,0)" stroke-width="1" opacity="0.6509803921568628" d="M 321.5 317 L 320.5 319 L 321.5 317 Z " /><path fill="rgb(0,0,0)" stroke="rgb(0,0,0)" stroke-width="1" opacity="0.6509803921568628" d="M 579.5 318 L 581 318.5 L 578.5 320 L 579.5 318 Z " /><path fill="rgb(0,0,0)" stroke="rgb(0,0,0)" stroke-width="1" opacity="0.6509803921568628" d="M 719.5 318 L 717.5 321 L 719.5 318 Z " /><path fill="rgb(0,0,0)" stroke="rgb(0,0,0)" stroke-width="1" opacity="0.6509803921568628" d="M 746.5 318 L 747.5 320 L 746.5 318 Z " /><path fill="rgb(0,0,0)" stroke="rgb(0,0,0)" stroke-width="1" opacity="0.6509803921568628" d="M 920.5 319 L 921.5 321 L 920.5 319 Z " /><path fill="rgb(0,0,0)" stroke="rgb(0,0,0)" stroke-width="1" opacity="0.6509803921568628" d="M 1022.5 319 L 1029 319.5 L 1022.5 320 L 1022.5 319 Z " /><path fill="rgb(0,0,0)" stroke="rgb(0,0,0)" stroke-width="1" opacity="0.6509803921568628" d="M 1078.5 319 L 1079.5 321 L 1078.5 319 Z " /><path fill="rgb(0,0,0)" stroke="rgb(0,0,0)" stroke-width="1" opacity="0.6509803921568628" d="M 317.5 320 L 316.5 322 L 317.5 320 Z " /><path fill="rgb(0,0,0)" stroke="rgb(0,0,0)" stroke-width="1" opacity="0.6509803921568628" d="M 346.5 320 L 344.5 323 L 346.5 320 Z " /><path fill="rgb(0,0,0)" stroke="rgb(0,0,0)" stroke-width="1" opacity="0.6509803921568628" d="M 544.5 320 L 542.5 323 L 544.5 320 Z " /><path fill="rgb(0,0,0)" stroke="rgb(0,0,0)" stroke-width="1" opacity="0.6509803921568628" d="M 576.5 320 L 568.5 329 L 576.5 320 Z " /><path fill="rgb(0,0,0)" stroke="rgb(0,0,0)" stroke-width="1" opacity="0.6509803921568628" d="M 853.5 320 L 846.5 328 L 853.5 320 Z " /><path fill="rgb(0,0,0)" stroke="rgb(0,0,0)" stroke-width="1" opacity="0.6509803921568628" d="M 887.5 320 L 891.5 325 L 887.5 320 Z " /><path fill="rgb(0,0,0)" stroke="rgb(0,0,0)" stroke-width="1" opacity="0.6509803921568628" d="M 749.5 321 L 752.5 325 L 749.5 321 Z " /><path fill="rgb(0,0,0)" stroke="rgb(0,0,0)" stroke-width="1" opacity="0.6509803921568628" d="M 942.5 321 L 944.5 324 L 942.5 321 Z " /><path fill="rgb(0,0,0)" stroke="rgb(0,0,0)" stroke-width="1" opacity="0.6509803921568628" d="M 1196.5 321 L 1199 321.5 L 1196.5 322 L 1196.5 321 Z " /><path fill="rgb(0,0,0)" stroke="rgb(0,0,0)" stroke-width="1" opacity="0.6509803921568628" d="M 314.5 322 L 313.5 324 L 314.5 322 Z " /><path fill="rgb(0,0,0)" stroke="rgb(0,0,0)" stroke-width="1" opacity="0.6509803921568628" d="M 616.5 322 L 617.5 324 L 616.5 322 Z " /><path fill="rgb(0,0,0)" stroke="rgb(0,0,0)" stroke-width="1" opacity="0.6509803921568628" d="M 655.5 322 L 656.5 324 L 655.5 322 Z " /><path fill="rgb(0,0,0)" stroke="rgb(0,0,0)" stroke-width="1" opacity="0.6509803921568628" d="M 1080.5 322 L 1081.5 324 L 1080.5 322 Z " /><path fill="rgb(0,0,0)" stroke="rgb(0,0,0)" stroke-width="1" opacity="0.6509803921568628" d="M 818.5 323 L 817.5 325 L 818.5 323 Z " /><path fill="rgb(0,0,0)" stroke="rgb(0,0,0)" stroke-width="1" opacity="0.6509803921568628" d="M 1039.5 323 L 1040.5 325 L 1039.5 323 Z " /><path fill="rgb(0,0,0)" stroke="rgb(0,0,0)" stroke-width="1" opacity="0.6509803921568628" d="M 1179.5 323 L 1181 323.5 L 1178.5 325 L 1179.5 323 Z " /><path fill="rgb(0,0,0)" stroke="rgb(0,0,0)" stroke-width="1" opacity="0.6509803921568628" d="M 49.5 324 L 52 325.5 L 50.5 325 L 49.5 324 Z " /><path fill="rgb(0,0,0)" stroke="rgb(0,0,0)" stroke-width="1" opacity="0.6509803921568628" d="M 311.5 324 L 310.5 326 L 311.5 324 Z " /><path fill="rgb(0,0,0)" stroke="rgb(0,0,0)" stroke-width="1" opacity="0.6509803921568628" d="M 341.5 324 L 339.5 327 L 341.5 324 Z " /><path fill="rgb(0,0,0)" stroke="rgb(0,0,0)" stroke-width="1" opacity="0.6509803921568628" d="M 1205.5 324 L 1206.5 326 L 1205.5 324 Z " /><path fill="rgb(0,0,0)" stroke="rgb(0,0,0)" stroke-width="1" opacity="0.6509803921568628" d="M 540.5 325 L 539.5 327 L 540.5 325 Z " /><path fill="rgb(0,0,0)" stroke="rgb(0,0,0)" stroke-width="1" opacity="0.6509803921568628" d="M 657.5 325 L 658.5 327 L 657.5 325 Z " /><path fill="rgb(0,0,0)" stroke="rgb(0,0,0)" stroke-width="1" opacity="0.6509803921568628" d="M 308.5 326 L 307.5 328 L 308.5 326 Z " /><path fill="rgb(0,0,0)" stroke="rgb(0,0,0)" stroke-width="1" opacity="0.6509803921568628" d="M 753.5 326 L 754.5 328 L 753.5 326 Z " /><path fill="rgb(0,0,0)" stroke="rgb(0,0,0)" stroke-width="1" opacity="0.6509803921568628" d="M 1004.5 326 L 999.5 332 L 1004.5 326 Z " /><path fill="rgb(0,0,0)" stroke="rgb(0,0,0)" stroke-width="1" opacity="0.6509803921568628" d="M 1043.5 326 L 1046.5 330 L 1043.5 326 Z " /><path fill="rgb(0,0,0)" stroke="rgb(0,0,0)" stroke-width="1" opacity="0.6509803921568628" d="M 779.5 327 L 776.5 331 L 779.5 327 Z " /><path fill="rgb(0,0,0)" stroke="rgb(0,0,0)" stroke-width="1" opacity="0.6509803921568628" d="M 956.5 327 L 958.5 330 L 956.5 327 Z " /><path fill="rgb(0,0,0)" stroke="rgb(0,0,0)" stroke-width="1" opacity="0.6509803921568628" d="M 1173.5 327 L 1169.5 332 L 1173.5 327 Z " /><path fill="rgb(0,0,0)" stroke="rgb(0,0,0)" stroke-width="1" opacity="0.6509803921568628" d="M 29.5 328 L 28.5 330 L 29.5 328 Z " /><path fill="rgb(0,0,0)" stroke="rgb(0,0,0)" stroke-width="1" opacity="0.6509803921568628" d="M 336.5 328 L 335.5 330 L 336.5 328 Z " /><path fill="rgb(0,0,0)" stroke="rgb(0,0,0)" stroke-width="1" opacity="0.6509803921568628" d="M 538.5 328 L 537.5 330 L 538.5 328 Z " /><path fill="rgb(0,0,0)" stroke="rgb(0,0,0)" stroke-width="1" opacity="0.6509803921568628" d="M 688.5 328 L 689 339.5 L 688 339.5 L 688.5 328 Z " /><path fill="rgb(0,0,0)" stroke="rgb(0,0,0)" stroke-width="1" opacity="0.6509803921568628" d="M 59.5 329 L 60.5 331 L 59.5 329 Z " /><path fill="rgb(0,0,0)" stroke="rgb(0,0,0)" stroke-width="1" opacity="0.6509803921568628" d="M 845.5 329 L 844.5 331 L 845.5 329 Z " /><path fill="rgb(0,0,0)" stroke="rgb(0,0,0)" stroke-width="1" opacity="0.6509803921568628" d="M 1210.5 329 L 1211.5 331 L 1210.5 329 Z " /><path fill="rgb(0,0,0)" stroke="rgb(0,0,0)" stroke-width="1" opacity="0.6509803921568628" d="M 567.5 330 L 566.5 332 L 567.5 330 Z " /><path fill="rgb(0,0,0)" stroke="rgb(0,0,0)" stroke-width="1" opacity="0.6509803921568628" d="M 624.5 330 L 625.5 332 L 624.5 330 Z " /><path fill="rgb(0,0,0)" stroke="rgb(0,0,0)" stroke-width="1" opacity="0.6509803921568628" d="M 756.5 330 L 757.5 332 L 756.5 330 Z " /><path fill="rgb(0,0,0)" stroke="rgb(0,0,0)" stroke-width="1" opacity="0.6509803921568628" d="M 300.5 331 L 299.5 333 L 300.5 331 Z " /><path fill="rgb(0,0,0)" stroke="rgb(0,0,0)" stroke-width="1" opacity="0.6509803921568628" d="M 332.5 331 L 331.5 333 L 332.5 331 Z " /><path fill="rgb(0,0,0)" stroke="rgb(0,0,0)" stroke-width="1" opacity="0.6509803921568628" d="M 434.5 331 L 433.5 333 L 434.5 331 Z " /><path fill="rgb(0,0,0)" stroke="rgb(0,0,0)" stroke-width="1" opacity="0.6509803921568628" d="M 774.5 331 L 773.5 333 L 774.5 331 Z " /><path fill="rgb(0,0,0)" stroke="rgb(0,0,0)" stroke-width="1" opacity="0.6509803921568628" d="M 1048.5 332 L 1049.5 334 L 1048.5 332 Z " /><path fill="rgb(0,0,0)" stroke="rgb(0,0,0)" stroke-width="1" opacity="0.6509803921568628" d="M 1246.5 332 L 1247 334.5 L 1246 334.5 L 1246.5 332 Z " /><path fill="rgb(0,0,0)" stroke="rgb(0,0,0)" stroke-width="1" opacity="0.6509803921568628" d="M 24.5 333 L 23.5 335 L 24.5 333 Z " /><path fill="rgb(0,0,0)" stroke="rgb(0,0,0)" stroke-width="1" opacity="0.6509803921568628" d="M 717.5 333 L 719.5 336 L 717.5 333 Z " /><path fill="rgb(0,0,0)" stroke="rgb(0,0,0)" stroke-width="1" opacity="0.6509803921568628" d="M 997.5 333 L 996.5 335 L 997.5 333 Z " /><path fill="rgb(0,0,0)" stroke="rgb(0,0,0)" stroke-width="1" opacity="0.6509803921568628" d="M 68.5 334 L 69.5 336 L 68.5 334 Z " /><path fill="rgb(0,0,0)" stroke="rgb(0,0,0)" stroke-width="1" opacity="0.6509803921568628" d="M 328.5 334 L 327.5 336 L 328.5 334 Z " /><path fill="rgb(0,0,0)" stroke="rgb(0,0,0)" stroke-width="1" opacity="0.6509803921568628" d="M 960.5 334 L 961 336.5 L 960 336.5 L 960.5 334 Z " /><path fill="rgb(0,0,0)" stroke="rgb(0,0,0)" stroke-width="1" opacity="0.6509803921568628" d="M 1167.5 334 L 1166.5 336 L 1167.5 334 Z " /><path fill="rgb(0,0,0)" stroke="rgb(0,0,0)" stroke-width="1" opacity="0.6509803921568628" d="M 431.5 335 L 430.5 337 L 431.5 335 Z " /><path fill="rgb(0,0,0)" stroke="rgb(0,0,0)" stroke-width="1" opacity="0.6509803921568628" d="M 1050.5 335 L 1051.5 337 L 1050.5 335 Z " /><path fill="rgb(0,0,0)" stroke="rgb(0,0,0)" stroke-width="1" opacity="0.6509803921568628" d="M 722.5 337 L 723.5 339 L 722.5 337 Z " /><path fill="rgb(0,0,0)" stroke="rgb(0,0,0)" stroke-width="1" opacity="0.6509803921568628" d="M 928.5 337 L 929 339.5 L 928 339.5 L 928.5 337 Z " /><path fill="rgb(0,0,0)" stroke="rgb(0,0,0)" stroke-width="1" opacity="0.6509803921568628" d="M 994.5 337 L 993.5 339 L 994.5 337 Z " /><path fill="rgb(0,0,0)" stroke="rgb(0,0,0)" stroke-width="1" opacity="0.6509803921568628" d="M 898.5 339 L 899 349.5 L 896.5 351 L 896.5 350 L 898 349.5 L 898.5 339 Z " /><path fill="rgb(0,0,0)" stroke="rgb(0,0,0)" stroke-width="1" opacity="0.6509803921568628" d="M 1247.5 339 L 1248 345.5 L 1247 345.5 L 1247.5 339 Z " /><path fill="rgb(0,0,0)" stroke="rgb(0,0,0)" stroke-width="1" opacity="0.6509803921568628" d="M 79.5 340 L 82 341.5 L 80.5 342 L 79.5 340 Z " /><path fill="rgb(0,0,0)" stroke="rgb(0,0,0)" stroke-width="1" opacity="0.6509803921568628" d="M 427.5 340 L 425.5 343 L 427.5 340 Z " /><path fill="rgb(0,0,0)" stroke="rgb(0,0,0)" stroke-width="1" opacity="0.6509803921568628" d="M 727.5 340 L 728.5 342 L 727.5 340 Z " /><path fill="rgb(0,0,0)" stroke="rgb(0,0,0)" stroke-width="1" opacity="0.6509803921568628" d="M 316.5 342 L 315.5 344 L 316.5 342 Z " /><path fill="rgb(0,0,0)" stroke="rgb(0,0,0)" stroke-width="1" opacity="0.6509803921568628" d="M 929.5 343 L 930 347.5 L 929 347.5 L 929.5 343 Z " /><path fill="rgb(0,0,0)" stroke="rgb(0,0,0)" stroke-width="1" opacity="0.6509803921568628" d="M 991.5 343 L 992 399.5 L 991 399.5 L 991.5 343 Z " /><path fill="rgb(0,0,0)" stroke="rgb(0,0,0)" stroke-width="1" opacity="0.6509803921568628" d="M 313.5 344 L 312.5 346 L 313.5 344 Z " /><path fill="rgb(0,0,0)" stroke="rgb(0,0,0)" stroke-width="1" opacity="0.6509803921568628" d="M 1216.5 344 L 1217 346.5 L 1216 346.5 L 1216.5 344 Z " /><path fill="rgb(0,0,0)" stroke="rgb(0,0,0)" stroke-width="1" opacity="0.6509803921568628" d="M 60.5 345 L 61.5 347 L 60.5 345 Z " /><path fill="rgb(0,0,0)" stroke="rgb(0,0,0)" stroke-width="1" opacity="0.6509803921568628" d="M 560.5 345 L 561 347.5 L 560 347.5 L 560.5 345 Z " /><path fill="rgb(0,0,0)" stroke="rgb(0,0,0)" stroke-width="1" opacity="0.6509803921568628" d="M 310.5 346 L 309.5 348 L 310.5 346 Z " /><path fill="rgb(0,0,0)" stroke="rgb(0,0,0)" stroke-width="1" opacity="0.6509803921568628" d="M 422.5 346 L 417.5 352 L 422.5 346 Z " /><path fill="rgb(0,0,0)" stroke="rgb(0,0,0)" stroke-width="1" opacity="0.6509803921568628" d="M 63.5 347 L 64.5 349 L 63.5 347 Z " /><path fill="rgb(0,0,0)" stroke="rgb(0,0,0)" stroke-width="1" opacity="0.6509803921568628" d="M 54.5 348 L 51.5 352 L 54.5 348 Z " /><path fill="rgb(0,0,0)" stroke="rgb(0,0,0)" stroke-width="1" opacity="0.6509803921568628" d="M 66.5 349 L 67.5 351 L 66.5 349 Z " /><path fill="rgb(0,0,0)" stroke="rgb(0,0,0)" stroke-width="1" opacity="0.6509803921568628" d="M 559.5 350 L 560 352.5 L 559 352.5 L 559.5 350 Z " /><path fill="rgb(0,0,0)" stroke="rgb(0,0,0)" stroke-width="1" opacity="0.6509803921568628" d="M 837.5 350 L 839 355.5 L 837 354.5 L 837.5 350 Z " /><path fill="rgb(0,0,0)" stroke="rgb(0,0,0)" stroke-width="1" opacity="0.6509803921568628" d="M 1091.5 350 L 1092 352.5 L 1091 352.5 L 1091.5 350 Z " /><path fill="rgb(0,0,0)" stroke="rgb(0,0,0)" stroke-width="1" opacity="0.6509803921568628" d="M 667.5 351 L 668 353.5 L 667 353.5 L 667.5 351 Z " /><path fill="rgb(0,0,0)" stroke="rgb(0,0,0)" stroke-width="1" opacity="0.6509803921568628" d="M 889.5 351 L 892 351.5 L 889.5 352 L 889.5 351 Z " /><path fill="rgb(0,0,0)" stroke="rgb(0,0,0)" stroke-width="1" opacity="0.6509803921568628" d="M 23.5 352 L 24 354.5 L 23 354.5 L 23.5 352 Z " /><path fill="rgb(0,0,0)" stroke="rgb(0,0,0)" stroke-width="1" opacity="0.6509803921568628" d="M 805.5 352 L 806 354.5 L 805 354.5 L 805.5 352 Z " /><path fill="rgb(0,0,0)" stroke="rgb(0,0,0)" stroke-width="1" opacity="0.6509803921568628" d="M 879.5 352 L 884 352.5 L 879.5 353 L 879.5 352 Z " /><path fill="rgb(0,0,0)" stroke="rgb(0,0,0)" stroke-width="1" opacity="0.6509803921568628" d="M 865.5 353 L 873 353.5 L 865.5 354 L 865.5 353 Z " /><path fill="rgb(0,0,0)" stroke="rgb(0,0,0)" stroke-width="1" opacity="0.6509803921568628" d="M 42.5 354 L 45 354.5 L 42.5 355 L 42.5 354 Z " /><path fill="rgb(0,0,0)" stroke="rgb(0,0,0)" stroke-width="1" opacity="0.6509803921568628" d="M 74.5 354 L 75.5 356 L 74.5 354 Z " /><path fill="rgb(0,0,0)" stroke="rgb(0,0,0)" stroke-width="1" opacity="0.6509803921568628" d="M 849.5 354 L 857 354.5 L 849.5 355 L 849.5 354 Z " /><path fill="rgb(0,0,0)" stroke="rgb(0,0,0)" stroke-width="1" opacity="0.6509803921568628" d="M 635.5 355 L 636 357.5 L 635 357.5 L 635.5 355 Z " /><path fill="rgb(0,0,0)" stroke="rgb(0,0,0)" stroke-width="1" opacity="0.6509803921568628" d="M 929.5 355 L 930 358.5 L 929 358.5 L 929.5 355 Z " /><path fill="rgb(0,0,0)" stroke="rgb(0,0,0)" stroke-width="1" opacity="0.6509803921568628" d="M 695.5 356 L 696.5 358 L 695.5 356 Z " /><path fill="rgb(0,0,0)" stroke="rgb(0,0,0)" stroke-width="1" opacity="0.6509803921568628" d="M 1217.5 356 L 1218 391.5 L 1217 391.5 L 1217.5 356 Z " /><path fill="rgb(0,0,0)" stroke="rgb(0,0,0)" stroke-width="1" opacity="0.6509803921568628" d="M 81.5 358 L 82.5 360 L 81.5 358 Z " /><path fill="rgb(0,0,0)" stroke="rgb(0,0,0)" stroke-width="1" opacity="0.6509803921568628" d="M 804.5 358 L 805 363.5 L 804 363.5 L 804.5 358 Z " /><path fill="rgb(0,0,0)" stroke="rgb(0,0,0)" stroke-width="1" opacity="0.6509803921568628" d="M 1092.5 358 L 1093 375.5 L 1092 375.5 L 1092.5 358 Z " /><path fill="rgb(0,0,0)" stroke="rgb(0,0,0)" stroke-width="1" opacity="0.6509803921568628" d="M 1158.5 358 L 1159 406.5 L 1158 406.5 L 1158.5 358 Z " /><path fill="rgb(0,0,0)" stroke="rgb(0,0,0)" stroke-width="1" opacity="0.6509803921568628" d="M 526.5 359 L 527 362.5 L 526 362.5 L 526.5 359 Z " /><path fill="rgb(0,0,0)" stroke="rgb(0,0,0)" stroke-width="1" opacity="0.6509803921568628" d="M 558.5 359 L 559 371.5 L 558 371.5 L 558.5 359 Z " /><path fill="rgb(0,0,0)" stroke="rgb(0,0,0)" stroke-width="1" opacity="0.6509803921568628" d="M 668.5 359 L 669 371.5 L 668 371.5 L 668.5 359 Z " /><path fill="rgb(0,0,0)" stroke="rgb(0,0,0)" stroke-width="1" opacity="0.6509803921568628" d="M 1059.5 359 L 1060 361.5 L 1059 361.5 L 1059.5 359 Z " /><path fill="rgb(0,0,0)" stroke="rgb(0,0,0)" stroke-width="1" opacity="0.6509803921568628" d="M 636.5 361 L 637 365.5 L 636 365.5 L 636.5 361 Z " /><path fill="rgb(0,0,0)" stroke="rgb(0,0,0)" stroke-width="1" opacity="0.6509803921568628" d="M 223.5 362 L 226 362.5 L 223.5 363 L 223.5 362 Z " /><path fill="rgb(0,0,0)" stroke="rgb(0,0,0)" stroke-width="1" opacity="0.6509803921568628" d="M 405.5 363 L 401.5 368 L 405.5 363 Z " /><path fill="rgb(0,0,0)" stroke="rgb(0,0,0)" stroke-width="1" opacity="0.6509803921568628" d="M 771.5 363 L 772.5 365 L 771.5 363 Z " /><path fill="rgb(0,0,0)" stroke="rgb(0,0,0)" stroke-width="1" opacity="0.6509803921568628" d="M 927.5 363 L 923.5 368 L 927.5 363 Z " /><path fill="rgb(0,0,0)" stroke="rgb(0,0,0)" stroke-width="1" opacity="0.6509803921568628" d="M 46.5 364 L 47.5 366 L 46.5 364 Z " /><path fill="rgb(0,0,0)" stroke="rgb(0,0,0)" stroke-width="1" opacity="0.6509803921568628" d="M 141.5 365 L 144 365.5 L 141.5 366 L 141.5 365 Z " /><path fill="rgb(0,0,0)" stroke="rgb(0,0,0)" stroke-width="1" opacity="0.6509803921568628" d="M 208.5 365 L 211 365.5 L 208.5 366 L 208.5 365 Z " /><path fill="rgb(0,0,0)" stroke="rgb(0,0,0)" stroke-width="1" opacity="0.6509803921568628" d="M 704.5 365 L 705.5 367 L 704.5 365 Z " /><path fill="rgb(0,0,0)" stroke="rgb(0,0,0)" stroke-width="1" opacity="0.6509803921568628" d="M 147.5 366 L 151 366.5 L 147.5 367 L 147.5 366 Z " /><path fill="rgb(0,0,0)" stroke="rgb(0,0,0)" stroke-width="1" opacity="0.6509803921568628" d="M 202.5 366 L 205 366.5 L 202.5 367 L 202.5 366 Z " /><path fill="rgb(0,0,0)" stroke="rgb(0,0,0)" stroke-width="1" opacity="0.6509803921568628" d="M 475.5 366 L 474.5 368 L 475.5 366 Z " /><path fill="rgb(0,0,0)" stroke="rgb(0,0,0)" stroke-width="1" opacity="0.6509803921568628" d="M 48.5 367 L 49.5 369 L 48.5 367 Z " /><path fill="rgb(0,0,0)" stroke="rgb(0,0,0)" stroke-width="1" opacity="0.6509803921568628" d="M 155.5 367 L 160 367.5 L 155.5 368 L 155.5 367 Z " /><path fill="rgb(0,0,0)" stroke="rgb(0,0,0)" stroke-width="1" opacity="0.6509803921568628" d="M 192.5 367 L 197 367.5 L 192.5 368 L 192.5 367 Z " /><path fill="rgb(0,0,0)" stroke="rgb(0,0,0)" stroke-width="1" opacity="0.6509803921568628" d="M 1060.5 367 L 1061 381.5 L 1060 381.5 L 1060.5 367 Z " /><path fill="rgb(0,0,0)" stroke="rgb(0,0,0)" stroke-width="1" opacity="0.6509803921568628" d="M 164.5 368 L 185 368.5 L 164.5 369 L 164.5 368 Z " /><path fill="rgb(0,0,0)" stroke="rgb(0,0,0)" stroke-width="1" opacity="0.6509803921568628" d="M 708.5 368 L 709.5 370 L 708.5 368 Z " /><path fill="rgb(0,0,0)" stroke="rgb(0,0,0)" stroke-width="1" opacity="0.6509803921568628" d="M 778.5 369 L 779.5 371 L 778.5 369 Z " /><path fill="rgb(0,0,0)" stroke="rgb(0,0,0)" stroke-width="1" opacity="0.6509803921568628" d="M 910.5 369 L 915 369.5 L 910.5 370 L 910.5 369 Z " /><path fill="rgb(0,0,0)" stroke="rgb(0,0,0)" stroke-width="1" opacity="0.6509803921568628" d="M 397.5 370 L 396.5 372 L 397.5 370 Z " /><path fill="rgb(0,0,0)" stroke="rgb(0,0,0)" stroke-width="1" opacity="0.6509803921568628" d="M 893.5 370 L 902 370.5 L 893.5 371 L 893.5 370 Z " /><path fill="rgb(0,0,0)" stroke="rgb(0,0,0)" stroke-width="1" opacity="0.6509803921568628" d="M 23.5 371 L 24 374.5 L 23 374.5 L 23.5 371 Z " /><path fill="rgb(0,0,0)" stroke="rgb(0,0,0)" stroke-width="1" opacity="0.6509803921568628" d="M 51.5 371 L 52.5 373 L 51.5 371 Z " /><path fill="rgb(0,0,0)" stroke="rgb(0,0,0)" stroke-width="1" opacity="0.6509803921568628" d="M 713.5 371 L 714.5 373 L 713.5 371 Z " /><path fill="rgb(0,0,0)" stroke="rgb(0,0,0)" stroke-width="1" opacity="0.6509803921568628" d="M 874.5 371 L 882 371.5 L 874.5 372 L 874.5 371 Z " /><path fill="rgb(0,0,0)" stroke="rgb(0,0,0)" stroke-width="1" opacity="0.6509803921568628" d="M 859.5 372 L 865 372.5 L 859.5 373 L 859.5 372 Z " /><path fill="rgb(0,0,0)" stroke="rgb(0,0,0)" stroke-width="1" opacity="0.6509803921568628" d="M 470.5 373 L 469.5 375 L 470.5 373 Z " /><path fill="rgb(0,0,0)" stroke="rgb(0,0,0)" stroke-width="1" opacity="0.6509803921568628" d="M 781.5 373 L 782.5 375 L 781.5 373 Z " /><path fill="rgb(0,0,0)" stroke="rgb(0,0,0)" stroke-width="1" opacity="0.6509803921568628" d="M 844.5 373 L 851 373.5 L 844.5 374 L 844.5 373 Z " /><path fill="rgb(0,0,0)" stroke="rgb(0,0,0)" stroke-width="1" opacity="0.6509803921568628" d="M 392.5 374 L 391.5 376 L 392.5 374 Z " /><path fill="rgb(0,0,0)" stroke="rgb(0,0,0)" stroke-width="1" opacity="0.6509803921568628" d="M 804.5 374 L 805 379.5 L 804 379.5 L 804.5 374 Z " /><path fill="rgb(0,0,0)" stroke="rgb(0,0,0)" stroke-width="1" opacity="0.6509803921568628" d="M 54.5 375 L 55.5 377 L 54.5 375 Z " /><path fill="rgb(0,0,0)" stroke="rgb(0,0,0)" stroke-width="1" opacity="0.6509803921568628" d="M 388.5 377 L 387.5 379 L 388.5 377 Z " /><path fill="rgb(0,0,0)" stroke="rgb(0,0,0)" stroke-width="1" opacity="0.6509803921568628" d="M 559.5 377 L 560 379.5 L 559 379.5 L 559.5 377 Z " /><path fill="rgb(0,0,0)" stroke="rgb(0,0,0)" stroke-width="1" opacity="0.6509803921568628" d="M 667.5 377 L 668 380.5 L 667 380.5 L 667.5 377 Z " /><path fill="rgb(0,0,0)" stroke="rgb(0,0,0)" stroke-width="1" opacity="0.6509803921568628" d="M 838.5 378 L 839 380.5 L 838 380.5 L 838.5 378 Z " /><path fill="rgb(0,0,0)" stroke="rgb(0,0,0)" stroke-width="1" opacity="0.6509803921568628" d="M 58.5 380 L 63.5 386 L 58.5 380 Z " /><path fill="rgb(0,0,0)" stroke="rgb(0,0,0)" stroke-width="1" opacity="0.6509803921568628" d="M 384.5 380 L 383.5 382 L 384.5 380 Z " /><path fill="rgb(0,0,0)" stroke="rgb(0,0,0)" stroke-width="1" opacity="0.6509803921568628" d="M 526.5 380 L 527 383.5 L 526 383.5 L 526.5 380 Z " /><path fill="rgb(0,0,0)" stroke="rgb(0,0,0)" stroke-width="1" opacity="0.6509803921568628" d="M 636.5 380 L 637 385.5 L 636 385.5 L 636.5 380 Z " /><path fill="rgb(0,0,0)" stroke="rgb(0,0,0)" stroke-width="1" opacity="0.6509803921568628" d="M 1091.5 380 L 1092 382.5 L 1091 382.5 L 1091.5 380 Z " /><path fill="rgb(0,0,0)" stroke="rgb(0,0,0)" stroke-width="1" opacity="0.6509803921568628" d="M 24.5 381 L 25 383.5 L 24 383.5 L 24.5 381 Z " /><path fill="rgb(0,0,0)" stroke="rgb(0,0,0)" stroke-width="1" opacity="0.6509803921568628" d="M 141.5 381 L 144 381.5 L 141.5 382 L 141.5 381 Z " /><path fill="rgb(0,0,0)" stroke="rgb(0,0,0)" stroke-width="1" opacity="0.6509803921568628" d="M 464.5 381 L 463.5 383 L 464.5 381 Z " /><path fill="rgb(0,0,0)" stroke="rgb(0,0,0)" stroke-width="1" opacity="0.6509803921568628" d="M 147.5 382 L 151 382.5 L 147.5 383 L 147.5 382 Z " /><path fill="rgb(0,0,0)" stroke="rgb(0,0,0)" stroke-width="1" opacity="0.6509803921568628" d="M 218.5 382 L 221 382.5 L 218.5 383 L 218.5 382 Z " /><path fill="rgb(0,0,0)" stroke="rgb(0,0,0)" stroke-width="1" opacity="0.6509803921568628" d="M 560.5 382 L 561 384.5 L 560 384.5 L 560.5 382 Z " /><path fill="rgb(0,0,0)" stroke="rgb(0,0,0)" stroke-width="1" opacity="0.6509803921568628" d="M 154.5 383 L 158 383.5 L 154.5 384 L 154.5 383 Z " /><path fill="rgb(0,0,0)" stroke="rgb(0,0,0)" stroke-width="1" opacity="0.6509803921568628" d="M 210.5 383 L 214 383.5 L 210.5 384 L 210.5 383 Z " /><path fill="rgb(0,0,0)" stroke="rgb(0,0,0)" stroke-width="1" opacity="0.6509803921568628" d="M 163.5 384 L 169 384.5 L 163.5 385 L 163.5 384 Z " /><path fill="rgb(0,0,0)" stroke="rgb(0,0,0)" stroke-width="1" opacity="0.6509803921568628" d="M 199.5 384 L 205 384.5 L 199.5 385 L 199.5 384 Z " /><path fill="rgb(0,0,0)" stroke="rgb(0,0,0)" stroke-width="1" opacity="0.6509803921568628" d="M 461.5 385 L 459.5 388 L 461.5 385 Z " /><path fill="rgb(0,0,0)" stroke="rgb(0,0,0)" stroke-width="1" opacity="0.6509803921568628" d="M 25.5 386 L 26 388.5 L 25 388.5 L 25.5 386 Z " /><path fill="rgb(0,0,0)" stroke="rgb(0,0,0)" stroke-width="1" opacity="0.6509803921568628" d="M 1059.5 387 L 1060 389.5 L 1059 389.5 L 1059.5 387 Z " /><path fill="rgb(0,0,0)" stroke="rgb(0,0,0)" stroke-width="1" opacity="0.6509803921568628" d="M 372.5 388 L 371.5 390 L 372.5 388 Z " /><path fill="rgb(0,0,0)" stroke="rgb(0,0,0)" stroke-width="1" opacity="0.6509803921568628" d="M 789.5 389 L 790 392.5 L 789 392.5 L 789.5 389 Z " /><path fill="rgb(0,0,0)" stroke="rgb(0,0,0)" stroke-width="1" opacity="0.6509803921568628" d="M 69.5 391 L 72.5 395 L 69.5 391 Z " /><path fill="rgb(0,0,0)" stroke="rgb(0,0,0)" stroke-width="1" opacity="0.6509803921568628" d="M 367.5 391 L 366.5 393 L 367.5 391 Z " /><path fill="rgb(0,0,0)" stroke="rgb(0,0,0)" stroke-width="1" opacity="0.6509803921568628" d="M 456.5 391 L 453.5 395 L 456.5 391 Z " /><path fill="rgb(0,0,0)" stroke="rgb(0,0,0)" stroke-width="1" opacity="0.6509803921568628" d="M 755.5 392 L 760.5 398 L 755.5 392 Z " /><path fill="rgb(0,0,0)" stroke="rgb(0,0,0)" stroke-width="1" opacity="0.6509803921568628" d="M 688.5 393 L 684.5 398 L 688.5 393 Z " /><path fill="rgb(0,0,0)" stroke="rgb(0,0,0)" stroke-width="1" opacity="0.6509803921568628" d="M 704.5 393 L 705.5 395 L 704.5 393 Z " /><path fill="rgb(0,0,0)" stroke="rgb(0,0,0)" stroke-width="1" opacity="0.6509803921568628" d="M 358.5 396 L 357.5 398 L 358.5 396 Z " /><path fill="rgb(0,0,0)" stroke="rgb(0,0,0)" stroke-width="1" opacity="0.6509803921568628" d="M 1127.5 396 L 1128 408.5 L 1127 408.5 L 1127.5 396 Z " /><path fill="rgb(0,0,0)" stroke="rgb(0,0,0)" stroke-width="1" opacity="0.6509803921568628" d="M 77.5 398 L 78.5 400 L 77.5 398 Z " /><path fill="rgb(0,0,0)" stroke="rgb(0,0,0)" stroke-width="1" opacity="0.6509803921568628" d="M 845.5 399 L 846.5 401 L 845.5 399 Z " /><path fill="rgb(0,0,0)" stroke="rgb(0,0,0)" stroke-width="1" opacity="0.6509803921568628" d="M 789.5 402 L 790 404.5 L 789 404.5 L 789.5 402 Z " /><path fill="rgb(0,0,0)" stroke="rgb(0,0,0)" stroke-width="1" opacity="0.6509803921568628" d="M 847.5 402 L 848.5 404 L 847.5 402 Z " /><path fill="rgb(0,0,0)" stroke="rgb(0,0,0)" stroke-width="1" opacity="0.6509803921568628" d="M 630.5 403 L 629.5 405 L 630.5 403 Z " /><path fill="rgb(0,0,0)" stroke="rgb(0,0,0)" stroke-width="1" opacity="0.6509803921568628" d="M 85.5 404 L 86.5 406 L 85.5 404 Z " /><path fill="rgb(0,0,0)" stroke="rgb(0,0,0)" stroke-width="1" opacity="0.6509803921568628" d="M 444.5 404 L 441.5 408 L 444.5 404 Z " /><path fill="rgb(0,0,0)" stroke="rgb(0,0,0)" stroke-width="1" opacity="0.6509803921568628" d="M 681.5 404 L 682 408.5 L 681 408.5 L 681.5 404 Z " /><path fill="rgb(0,0,0)" stroke="rgb(0,0,0)" stroke-width="1" opacity="0.6509803921568628" d="M 912.5 404 L 910.5 407 L 912.5 404 Z " /><path fill="rgb(0,0,0)" stroke="rgb(0,0,0)" stroke-width="1" opacity="0.6509803921568628" d="M 88.5 406 L 89.5 408 L 88.5 406 Z " /><path fill="rgb(0,0,0)" stroke="rgb(0,0,0)" stroke-width="1" opacity="0.6509803921568628" d="M 570.5 406 L 573.5 410 L 570.5 406 Z " /><path fill="rgb(0,0,0)" stroke="rgb(0,0,0)" stroke-width="1" opacity="0.6509803921568628" d="M 657.5 406 L 656.5 408 L 657.5 406 Z " /><path fill="rgb(0,0,0)" stroke="rgb(0,0,0)" stroke-width="1" opacity="0.6509803921568628" d="M 812.5 406 L 813.5 408 L 812.5 406 Z " /><path fill="rgb(0,0,0)" stroke="rgb(0,0,0)" stroke-width="1" opacity="0.6509803921568628" d="M 534.5 408 L 535.5 410 L 534.5 408 Z " /><path fill="rgb(0,0,0)" stroke="rgb(0,0,0)" stroke-width="1" opacity="0.6509803921568628" d="M 928.5 408 L 929 410.5 L 928 410.5 L 928.5 408 Z " /><path fill="rgb(0,0,0)" stroke="rgb(0,0,0)" stroke-width="1" opacity="0.6509803921568628" d="M 1216.5 408 L 1217 413.5 L 1216 413.5 L 1216.5 408 Z " /><path fill="rgb(0,0,0)" stroke="rgb(0,0,0)" stroke-width="1" opacity="0.6509803921568628" d="M 1248.5 408 L 1249 413.5 L 1248 413.5 L 1248.5 408 Z " /><path fill="rgb(0,0,0)" stroke="rgb(0,0,0)" stroke-width="1" opacity="0.6509803921568628" d="M 626.5 409 L 620.5 416 L 626.5 409 Z " /><path fill="rgb(0,0,0)" stroke="rgb(0,0,0)" stroke-width="1" opacity="0.6509803921568628" d="M 655.5 409 L 654.5 411 L 655.5 409 Z " /><path fill="rgb(0,0,0)" stroke="rgb(0,0,0)" stroke-width="1" opacity="0.6509803921568628" d="M 906.5 409 L 904.5 412 L 906.5 409 Z " /><path fill="rgb(0,0,0)" stroke="rgb(0,0,0)" stroke-width="1" opacity="0.6509803921568628" d="M 1051.5 409 L 1044.5 417 L 1051.5 409 Z " /><path fill="rgb(0,0,0)" stroke="rgb(0,0,0)" stroke-width="1" opacity="0.6509803921568628" d="M 1080.5 409 L 1079.5 411 L 1080.5 409 Z " /><path fill="rgb(0,0,0)" stroke="rgb(0,0,0)" stroke-width="1" opacity="0.6509803921568628" d="M 855.5 410 L 856.5 412 L 855.5 410 Z " /><path fill="rgb(0,0,0)" stroke="rgb(0,0,0)" stroke-width="1" opacity="0.6509803921568628" d="M 714.5 411 L 719.5 417 L 714.5 411 Z " /><path fill="rgb(0,0,0)" stroke="rgb(0,0,0)" stroke-width="1" opacity="0.6509803921568628" d="M 815.5 411 L 816.5 413 L 815.5 411 Z " /><path fill="rgb(0,0,0)" stroke="rgb(0,0,0)" stroke-width="1" opacity="0.6509803921568628" d="M 98.5 412 L 99.5 414 L 98.5 412 Z " /><path fill="rgb(0,0,0)" stroke="rgb(0,0,0)" stroke-width="1" opacity="0.6509803921568628" d="M 576.5 412 L 578.5 415 L 576.5 412 Z " /><path fill="rgb(0,0,0)" stroke="rgb(0,0,0)" stroke-width="1" opacity="0.6509803921568628" d="M 761.5 412 L 760.5 414 L 761.5 412 Z " /><path fill="rgb(0,0,0)" stroke="rgb(0,0,0)" stroke-width="1" opacity="0.6509803921568628" d="M 434.5 413 L 431.5 417 L 434.5 413 Z " /><path fill="rgb(0,0,0)" stroke="rgb(0,0,0)" stroke-width="1" opacity="0.6509803921568628" d="M 652.5 413 L 651.5 415 L 652.5 413 Z " /><path fill="rgb(0,0,0)" stroke="rgb(0,0,0)" stroke-width="1" opacity="0.6509803921568628" d="M 786.5 413 L 787 414.5 L 785 415.5 L 786.5 413 Z " /><path fill="rgb(0,0,0)" stroke="rgb(0,0,0)" stroke-width="1" opacity="0.6509803921568628" d="M 928.5 413 L 929 415.5 L 928 415.5 L 928.5 413 Z " /><path fill="rgb(0,0,0)" stroke="rgb(0,0,0)" stroke-width="1" opacity="0.6509803921568628" d="M 1002.5 413 L 1003.5 415 L 1002.5 413 Z " /><path fill="rgb(0,0,0)" stroke="rgb(0,0,0)" stroke-width="1" opacity="0.6509803921568628" d="M 1077.5 413 L 1076.5 415 L 1077.5 413 Z " /><path fill="rgb(0,0,0)" stroke="rgb(0,0,0)" stroke-width="1" opacity="0.6509803921568628" d="M 538.5 414 L 539.5 416 L 538.5 414 Z " /><path fill="rgb(0,0,0)" stroke="rgb(0,0,0)" stroke-width="1" opacity="0.6509803921568628" d="M 817.5 414 L 818.5 416 L 817.5 414 Z " /><path fill="rgb(0,0,0)" stroke="rgb(0,0,0)" stroke-width="1" opacity="0.6509803921568628" d="M 1126.5 414 L 1127 416.5 L 1126 416.5 L 1126.5 414 Z " /><path fill="rgb(0,0,0)" stroke="rgb(0,0,0)" stroke-width="1" opacity="0.6509803921568628" d="M 1159.5 414 L 1160 416.5 L 1159 416.5 L 1159.5 414 Z " /><path fill="rgb(0,0,0)" stroke="rgb(0,0,0)" stroke-width="1" opacity="0.6509803921568628" d="M 758.5 415 L 756.5 418 L 758.5 415 Z " /><path fill="rgb(0,0,0)" stroke="rgb(0,0,0)" stroke-width="1" opacity="0.6509803921568628" d="M 618.5 416 L 617.5 418 L 618.5 416 Z " /><path fill="rgb(0,0,0)" stroke="rgb(0,0,0)" stroke-width="1" opacity="0.6509803921568628" d="M 685.5 417 L 687.5 420 L 685.5 417 Z " /><path fill="rgb(0,0,0)" stroke="rgb(0,0,0)" stroke-width="1" opacity="0.6509803921568628" d="M 38.5 418 L 39.5 420 L 38.5 418 Z " /><path fill="rgb(0,0,0)" stroke="rgb(0,0,0)" stroke-width="1" opacity="0.6509803921568628" d="M 541.5 418 L 548.5 426 L 541.5 418 Z " /><path fill="rgb(0,0,0)" stroke="rgb(0,0,0)" stroke-width="1" opacity="0.6509803921568628" d="M 648.5 418 L 643.5 424 L 648.5 418 Z " /><path fill="rgb(0,0,0)" stroke="rgb(0,0,0)" stroke-width="1" opacity="0.6509803921568628" d="M 875.5 418 L 883 418.5 L 875.5 419 L 875.5 418 Z " /><path fill="rgb(0,0,0)" stroke="rgb(0,0,0)" stroke-width="1" opacity="0.6509803921568628" d="M 1073.5 418 L 1068.5 424 L 1073.5 418 Z " /><path fill="rgb(0,0,0)" stroke="rgb(0,0,0)" stroke-width="1" opacity="0.6509803921568628" d="M 427.5 419 L 425.5 422 L 427.5 419 Z " /><path fill="rgb(0,0,0)" stroke="rgb(0,0,0)" stroke-width="1" opacity="0.6509803921568628" d="M 783.5 419 L 782.5 421 L 783.5 419 Z " /><path fill="rgb(0,0,0)" stroke="rgb(0,0,0)" stroke-width="1" opacity="0.6509803921568628" d="M 821.5 419 L 827.5 426 L 821.5 419 Z " /><path fill="rgb(0,0,0)" stroke="rgb(0,0,0)" stroke-width="1" opacity="0.6509803921568628" d="M 925.5 420 L 920.5 426 L 925.5 420 Z " /><path fill="rgb(0,0,0)" stroke="rgb(0,0,0)" stroke-width="1" opacity="0.6509803921568628" d="M 1214.5 420 L 1213.5 422 L 1214.5 420 Z " /><path fill="rgb(0,0,0)" stroke="rgb(0,0,0)" stroke-width="1" opacity="0.6509803921568628" d="M 1250.5 420 L 1251.5 422 L 1250.5 420 Z " /><path fill="rgb(0,0,0)" stroke="rgb(0,0,0)" stroke-width="1" opacity="0.6509803921568628" d="M 40.5 421 L 41.5 423 L 40.5 421 Z " /><path fill="rgb(0,0,0)" stroke="rgb(0,0,0)" stroke-width="1" opacity="0.6509803921568628" d="M 602.5 421 L 607 421.5 L 602.5 422 L 602.5 421 Z " /><path fill="rgb(0,0,0)" stroke="rgb(0,0,0)" stroke-width="1" opacity="0.6509803921568628" d="M 1020.5 421 L 1026 421.5 L 1020.5 422 L 1020.5 421 Z " /><path fill="rgb(0,0,0)" stroke="rgb(0,0,0)" stroke-width="1" opacity="0.6509803921568628" d="M 1028.5 421 L 1032 421.5 L 1028.5 422 L 1028.5 421 Z " /><path fill="rgb(0,0,0)" stroke="rgb(0,0,0)" stroke-width="1" opacity="0.6509803921568628" d="M 1113.5 421 L 1116 421.5 L 1113.5 422 L 1113.5 421 Z " /><path fill="rgb(0,0,0)" stroke="rgb(0,0,0)" stroke-width="1" opacity="0.6509803921568628" d="M 1170.5 421 L 1173 421.5 L 1170.5 422 L 1170.5 421 Z " /><path fill="rgb(0,0,0)" stroke="rgb(0,0,0)" stroke-width="1" opacity="0.6509803921568628" d="M 1202.5 421 L 1206 421.5 L 1202.5 422 L 1202.5 421 Z " /><path fill="rgb(0,0,0)" stroke="rgb(0,0,0)" stroke-width="1" opacity="0.6509803921568628" d="M 1259.5 421 L 1263 421.5 L 1259.5 422 L 1259.5 421 Z " /><path fill="rgb(0,0,0)" stroke="rgb(0,0,0)" stroke-width="1" opacity="0.6509803921568628" d="M 689.5 422 L 692.5 426 L 689.5 422 Z " /><path fill="rgb(0,0,0)" stroke="rgb(0,0,0)" stroke-width="1" opacity="0.6509803921568628" d="M 737.5 422 L 741 422.5 L 737.5 423 L 737.5 422 Z " /><path fill="rgb(0,0,0)" stroke="rgb(0,0,0)" stroke-width="1" opacity="0.6509803921568628" d="M 1107.5 423 L 1106.5 425 L 1107.5 423 Z " /><path fill="rgb(0,0,0)" stroke="rgb(0,0,0)" stroke-width="1" opacity="0.6509803921568628" d="M 1178.5 423 L 1181 426.5 L 1180 426.5 L 1178.5 423 Z " /><path fill="rgb(0,0,0)" stroke="rgb(0,0,0)" stroke-width="1" opacity="0.6509803921568628" d="M 421.5 424 L 420.5 426 L 421.5 424 Z " /><path fill="rgb(0,0,0)" stroke="rgb(0,0,0)" stroke-width="1" opacity="0.6509803921568628" d="M 43.5 425 L 44.5 427 L 43.5 425 Z " /><path fill="rgb(0,0,0)" stroke="rgb(0,0,0)" stroke-width="1" opacity="0.6509803921568628" d="M 639.5 426 L 638.5 428 L 639.5 426 Z " /><path fill="rgb(0,0,0)" stroke="rgb(0,0,0)" stroke-width="1" opacity="0.6509803921568628" d="M 1064.5 426 L 1063.5 428 L 1064.5 426 Z " /><path fill="rgb(0,0,0)" stroke="rgb(0,0,0)" stroke-width="1" opacity="0.6509803921568628" d="M 417.5 427 L 415.5 430 L 417.5 427 Z " /><path fill="rgb(0,0,0)" stroke="rgb(0,0,0)" stroke-width="1" opacity="0.6509803921568628" d="M 551.5 427 L 552.5 429 L 551.5 427 Z " /><path fill="rgb(0,0,0)" stroke="rgb(0,0,0)" stroke-width="1" opacity="0.6509803921568628" d="M 695.5 427 L 697.5 430 L 695.5 427 Z " /><path fill="rgb(0,0,0)" stroke="rgb(0,0,0)" stroke-width="1" opacity="0.6509803921568628" d="M 830.5 427 L 831.5 429 L 830.5 427 Z " /><path fill="rgb(0,0,0)" stroke="rgb(0,0,0)" stroke-width="1" opacity="0.6509803921568628" d="M 774.5 428 L 773.5 430 L 774.5 428 Z " /><path fill="rgb(0,0,0)" stroke="rgb(0,0,0)" stroke-width="1" opacity="0.6509803921568628" d="M 141.5 429 L 144 429.5 L 141.5 430 L 141.5 429 Z " /><path fill="rgb(0,0,0)" stroke="rgb(0,0,0)" stroke-width="1" opacity="0.6509803921568628" d="M 1060.5 429 L 1059.5 431 L 1060.5 429 Z " /><path fill="rgb(0,0,0)" stroke="rgb(0,0,0)" stroke-width="1" opacity="0.6509803921568628" d="M 1181.5 429 L 1182 431.5 L 1181 431.5 L 1181.5 429 Z " /><path fill="rgb(0,0,0)" stroke="rgb(0,0,0)" stroke-width="1" opacity="0.6509803921568628" d="M 146.5 430 L 149 430.5 L 146.5 431 L 146.5 430 Z " /><path fill="rgb(0,0,0)" stroke="rgb(0,0,0)" stroke-width="1" opacity="0.6509803921568628" d="M 413.5 430 L 412.5 432 L 413.5 430 Z " /><path fill="rgb(0,0,0)" stroke="rgb(0,0,0)" stroke-width="1" opacity="0.6509803921568628" d="M 48.5 431 L 55.5 439 L 48.5 431 Z " /><path fill="rgb(0,0,0)" stroke="rgb(0,0,0)" stroke-width="1" opacity="0.6509803921568628" d="M 151.5 431 L 154 431.5 L 151.5 432 L 151.5 431 Z " /><path fill="rgb(0,0,0)" stroke="rgb(0,0,0)" stroke-width="1" opacity="0.6509803921568628" d="M 251.5 431 L 254 431.5 L 251.5 432 L 251.5 431 Z " /><path fill="rgb(0,0,0)" stroke="rgb(0,0,0)" stroke-width="1" opacity="0.6509803921568628" d="M 557.5 431 L 558.5 433 L 557.5 431 Z " /><path fill="rgb(0,0,0)" stroke="rgb(0,0,0)" stroke-width="1" opacity="0.6509803921568628" d="M 836.5 431 L 837.5 433 L 836.5 431 Z " /><path fill="rgb(0,0,0)" stroke="rgb(0,0,0)" stroke-width="1" opacity="0.6509803921568628" d="M 158.5 432 L 162 432.5 L 158.5 433 L 158.5 432 Z " /><path fill="rgb(0,0,0)" stroke="rgb(0,0,0)" stroke-width="1" opacity="0.6509803921568628" d="M 243.5 432 L 247 432.5 L 243.5 433 L 243.5 432 Z " /><path fill="rgb(0,0,0)" stroke="rgb(0,0,0)" stroke-width="1" opacity="0.6509803921568628" d="M 167.5 433 L 171 433.5 L 167.5 434 L 167.5 433 Z " /><path fill="rgb(0,0,0)" stroke="rgb(0,0,0)" stroke-width="1" opacity="0.6509803921568628" d="M 234.5 433 L 238 433.5 L 234.5 434 L 234.5 433 Z " /><path fill="rgb(0,0,0)" stroke="rgb(0,0,0)" stroke-width="1" opacity="0.6509803921568628" d="M 409.5 433 L 408.5 435 L 409.5 433 Z " /><path fill="rgb(0,0,0)" stroke="rgb(0,0,0)" stroke-width="1" opacity="0.6509803921568628" d="M 704.5 433 L 707 434.5 L 705.5 435 L 704.5 433 Z " /><path fill="rgb(0,0,0)" stroke="rgb(0,0,0)" stroke-width="1" opacity="0.6509803921568628" d="M 176.5 434 L 183 434.5 L 176.5 435 L 176.5 434 Z " /><path fill="rgb(0,0,0)" stroke="rgb(0,0,0)" stroke-width="1" opacity="0.6509803921568628" d="M 220.5 434 L 228 434.5 L 220.5 435 L 220.5 434 Z " /><path fill="rgb(0,0,0)" stroke="rgb(0,0,0)" stroke-width="1" opacity="0.6509803921568628" d="M 991.5 434 L 992 464.5 L 991 464.5 L 991.5 434 Z " /><path fill="rgb(0,0,0)" stroke="rgb(0,0,0)" stroke-width="1" opacity="0.6509803921568628" d="M 197.5 435 L 209 435.5 L 197.5 436 L 197.5 435 Z " /><path fill="rgb(0,0,0)" stroke="rgb(0,0,0)" stroke-width="1" opacity="0.6509803921568628" d="M 406.5 435 L 405.5 437 L 406.5 435 Z " /><path fill="rgb(0,0,0)" stroke="rgb(0,0,0)" stroke-width="1" opacity="0.6509803921568628" d="M 1106.5 435 L 1108.5 438 L 1106.5 435 Z " /><path fill="rgb(0,0,0)" stroke="rgb(0,0,0)" stroke-width="1" opacity="0.6509803921568628" d="M 1195.5 435 L 1196.5 437 L 1195.5 435 Z " /><path fill="rgb(0,0,0)" stroke="rgb(0,0,0)" stroke-width="1" opacity="0.6509803921568628" d="M 1269.5 435 L 1268.5 437 L 1269.5 435 Z " /><path fill="rgb(0,0,0)" stroke="rgb(0,0,0)" stroke-width="1" opacity="0.6509803921568628" d="M 1136.5 437 L 1151 437.5 L 1136.5 438 L 1136.5 437 Z " /><path fill="rgb(0,0,0)" stroke="rgb(0,0,0)" stroke-width="1" opacity="0.6509803921568628" d="M 1226.5 437 L 1240 437.5 L 1226.5 438 L 1226.5 437 Z " /><path fill="rgb(0,0,0)" stroke="rgb(0,0,0)" stroke-width="1" opacity="0.6509803921568628" d="M 1003.5 438 L 1006 438.5 L 1003.5 439 L 1003.5 438 Z " /><path fill="rgb(0,0,0)" stroke="rgb(0,0,0)" stroke-width="1" opacity="0.6509803921568628" d="M 1128.5 438 L 1132 438.5 L 1128.5 439 L 1128.5 438 Z " /><path fill="rgb(0,0,0)" stroke="rgb(0,0,0)" stroke-width="1" opacity="0.6509803921568628" d="M 1155.5 438 L 1158 438.5 L 1155.5 439 L 1155.5 438 Z " /><path fill="rgb(0,0,0)" stroke="rgb(0,0,0)" stroke-width="1" opacity="0.6509803921568628" d="M 1217.5 438 L 1222 438.5 L 1217.5 439 L 1217.5 438 Z " /><path fill="rgb(0,0,0)" stroke="rgb(0,0,0)" stroke-width="1" opacity="0.6509803921568628" d="M 1244.5 438 L 1248 438.5 L 1244.5 439 L 1244.5 438 Z " /><path fill="rgb(0,0,0)" stroke="rgb(0,0,0)" stroke-width="1" opacity="0.6509803921568628" d="M 578.5 439 L 581 439.5 L 578.5 440 L 578.5 439 Z " /><path fill="rgb(0,0,0)" stroke="rgb(0,0,0)" stroke-width="1" opacity="0.6509803921568628" d="M 749.5 439 L 752 439.5 L 749.5 440 L 749.5 439 Z " /><path fill="rgb(0,0,0)" stroke="rgb(0,0,0)" stroke-width="1" opacity="0.6509803921568628" d="M 856.5 439 L 859 439.5 L 856.5 440 L 856.5 439 Z " /><path fill="rgb(0,0,0)" stroke="rgb(0,0,0)" stroke-width="1" opacity="0.6509803921568628" d="M 889.5 439 L 892 439.5 L 889.5 440 L 889.5 439 Z " /><path fill="rgb(0,0,0)" stroke="rgb(0,0,0)" stroke-width="1" opacity="0.6509803921568628" d="M 1114.5 439 L 1123 439.5 L 1114.5 440 L 1114.5 439 Z " /><path fill="rgb(0,0,0)" stroke="rgb(0,0,0)" stroke-width="1" opacity="0.6509803921568628" d="M 1163.5 439 L 1172 439.5 L 1163.5 440 L 1163.5 439 Z " /><path fill="rgb(0,0,0)" stroke="rgb(0,0,0)" stroke-width="1" opacity="0.6509803921568628" d="M 1204.5 439 L 1213 439.5 L 1204.5 440 L 1204.5 439 Z " /><path fill="rgb(0,0,0)" stroke="rgb(0,0,0)" stroke-width="1" opacity="0.6509803921568628" d="M 1252.5 439 L 1261 439.5 L 1252.5 440 L 1252.5 439 Z " /><path fill="rgb(0,0,0)" stroke="rgb(0,0,0)" stroke-width="1" opacity="0.6509803921568628" d="M 585.5 440 L 590 440.5 L 585.5 441 L 585.5 440 Z " /><path fill="rgb(0,0,0)" stroke="rgb(0,0,0)" stroke-width="1" opacity="0.6509803921568628" d="M 602.5 440 L 607 440.5 L 602.5 441 L 602.5 440 Z " /><path fill="rgb(0,0,0)" stroke="rgb(0,0,0)" stroke-width="1" opacity="0.6509803921568628" d="M 725.5 440 L 732 440.5 L 725.5 441 L 725.5 440 Z " /><path fill="rgb(0,0,0)" stroke="rgb(0,0,0)" stroke-width="1" opacity="0.6509803921568628" d="M 741.5 440 L 746 440.5 L 741.5 441 L 741.5 440 Z " /><path fill="rgb(0,0,0)" stroke="rgb(0,0,0)" stroke-width="1" opacity="0.6509803921568628" d="M 863.5 440 L 869 440.5 L 863.5 441 L 863.5 440 Z " /><path fill="rgb(0,0,0)" stroke="rgb(0,0,0)" stroke-width="1" opacity="0.6509803921568628" d="M 879.5 440 L 886 440.5 L 879.5 441 L 879.5 440 Z " /><path fill="rgb(0,0,0)" stroke="rgb(0,0,0)" stroke-width="1" opacity="0.6509803921568628" d="M 1015.5 440 L 1020 440.5 L 1015.5 441 L 1015.5 440 Z " /><path fill="rgb(0,0,0)" stroke="rgb(0,0,0)" stroke-width="1" opacity="0.6509803921568628" d="M 1028.5 440 L 1033 440.5 L 1028.5 441 L 1028.5 440 Z " /><path fill="rgb(0,0,0)" stroke="rgb(0,0,0)" stroke-width="1" opacity="0.6509803921568628" d="M 59.5 441 L 61.5 444 L 59.5 441 Z " /><path fill="rgb(0,0,0)" stroke="rgb(0,0,0)" stroke-width="1" opacity="0.6509803921568628" d="M 395.5 442 L 394.5 444 L 395.5 442 Z " /><path fill="rgb(0,0,0)" stroke="rgb(0,0,0)" stroke-width="1" opacity="0.6509803921568628" d="M 64.5 445 L 65.5 447 L 64.5 445 Z " /><path fill="rgb(0,0,0)" stroke="rgb(0,0,0)" stroke-width="1" opacity="0.6509803921568628" d="M 390.5 445 L 389.5 447 L 390.5 445 Z " /><path fill="rgb(0,0,0)" stroke="rgb(0,0,0)" stroke-width="1" opacity="0.6509803921568628" d="M 68.5 448 L 69.5 450 L 68.5 448 Z " /><path fill="rgb(0,0,0)" stroke="rgb(0,0,0)" stroke-width="1" opacity="0.6509803921568628" d="M 381.5 450 L 380.5 452 L 381.5 450 Z " /><path fill="rgb(0,0,0)" stroke="rgb(0,0,0)" stroke-width="1" opacity="0.6509803921568628" d="M 77.5 454 L 78.5 456 L 77.5 454 Z " /><path fill="rgb(0,0,0)" stroke="rgb(0,0,0)" stroke-width="1" opacity="0.6509803921568628" d="M 960.5 470 L 961 474.5 L 960 474.5 L 960.5 470 Z " /><path fill="rgb(0,0,0)" stroke="rgb(0,0,0)" stroke-width="1" opacity="0.6509803921568628" d="M 1006.5 477 L 1014 477.5 L 1006.5 478 L 1006.5 477 Z " /><path fill="rgb(0,0,0)" stroke="rgb(0,0,0)" stroke-width="1" opacity="0.6509803921568628" d="M 944.5 478 L 947 478.5 L 944.5 479 L 944.5 478 Z " /><path fill="rgb(0,0,0)" stroke="rgb(0,0,0)" stroke-width="1" opacity="0.6509803921568628" d="M 950.5 478 L 956 478.5 L 950.5 479 L 950.5 478 Z " /><path fill="rgb(0,0,0)" stroke="rgb(0,0,0)" stroke-width="1" opacity="0.6509803921568628" d="M 995.5 478 L 1001 478.5 L 995.5 479 L 995.5 478 Z " /><path fill="rgb(0,0,0)" stroke="rgb(0,0,0)" stroke-width="1" opacity="0.6509803921568628" d="M 942.5 479 L 941.5 481 L 942.5 479 Z " /><path fill="rgb(0,0,0)" stroke="rgb(0,0,0)" stroke-width="1" opacity="0.6509803921568628" d="M 1017.5 479 L 1018.5 481 L 1017.5 479 Z " /><path fill="rgb(0,0,0)" stroke="rgb(0,0,0)" stroke-width="1" opacity="0.6509803921568628" d="M 151.5 481 L 154 481.5 L 151.5 482 L 151.5 481 Z " /><path fill="rgb(0,0,0)" stroke="rgb(0,0,0)" stroke-width="1" opacity="0.6509803921568628" d="M 156.5 482 L 159 482.5 L 156.5 483 L 156.5 482 Z " /><path fill="rgb(0,0,0)" stroke="rgb(0,0,0)" stroke-width="1" opacity="0.6509803921568628" d="M 162.5 483 L 165 483.5 L 162.5 484 L 162.5 483 Z " /><path fill="rgb(0,0,0)" stroke="rgb(0,0,0)" stroke-width="1" opacity="0.6509803921568628" d="M 290.5 483 L 293 483.5 L 290.5 484 L 290.5 483 Z " /><path fill="rgb(0,0,0)" stroke="rgb(0,0,0)" stroke-width="1" opacity="0.6509803921568628" d="M 168.5 484 L 172 484.5 L 168.5 485 L 168.5 484 Z " /><path fill="rgb(0,0,0)" stroke="rgb(0,0,0)" stroke-width="1" opacity="0.6509803921568628" d="M 176.5 485 L 179 485.5 L 176.5 486 L 176.5 485 Z " /><path fill="rgb(0,0,0)" stroke="rgb(0,0,0)" stroke-width="1" opacity="0.6509803921568628" d="M 280.5 485 L 283 485.5 L 280.5 486 L 280.5 485 Z " /><path fill="rgb(0,0,0)" stroke="rgb(0,0,0)" stroke-width="1" opacity="0.6509803921568628" d="M 184.5 486 L 188 486.5 L 184.5 487 L 184.5 486 Z " /><path fill="rgb(0,0,0)" stroke="rgb(0,0,0)" stroke-width="1" opacity="0.6509803921568628" d="M 274.5 486 L 277 486.5 L 274.5 487 L 274.5 486 Z " /><path fill="rgb(0,0,0)" stroke="rgb(0,0,0)" stroke-width="1" opacity="0.6509803921568628" d="M 1021.5 486 L 1022 489.5 L 1021 489.5 L 1021.5 486 Z " /><path fill="rgb(0,0,0)" stroke="rgb(0,0,0)" stroke-width="1" opacity="0.6509803921568628" d="M 193.5 487 L 198 487.5 L 193.5 488 L 193.5 487 Z " /><path fill="rgb(0,0,0)" stroke="rgb(0,0,0)" stroke-width="1" opacity="0.6509803921568628" d="M 266.5 487 L 270 487.5 L 266.5 488 L 266.5 487 Z " /><path fill="rgb(0,0,0)" stroke="rgb(0,0,0)" stroke-width="1" opacity="0.6509803921568628" d="M 205.5 488 L 217 488.5 L 205.5 489 L 205.5 488 Z " /><path fill="rgb(0,0,0)" stroke="rgb(0,0,0)" stroke-width="1" opacity="0.6509803921568628" d="M 253.5 488 L 262 488.5 L 253.5 489 L 253.5 488 Z " /><path fill="rgb(0,0,0)" stroke="rgb(0,0,0)" stroke-width="1" opacity="0.6509803921568628" d="M 939.5 492 L 942.5 496 L 939.5 492 Z " /><path fill="rgb(0,0,0)" stroke="rgb(0,0,0)" stroke-width="1" opacity="0.6509803921568628" d="M 1019.5 493 L 1017.5 496 L 1019.5 493 Z " /><path fill="rgb(0,0,0)" stroke="rgb(0,0,0)" stroke-width="1" opacity="0.6509803921568628" d="M 964.5 496 L 968 496.5 L 964.5 497 L 964.5 496 Z " /><path fill="rgb(0,0,0)" stroke="rgb(0,0,0)" stroke-width="1" opacity="0.6509803921568628" d="M 985.5 496 L 993 496.5 L 985.5 497 L 985.5 496 Z " /><path fill="rgb(0,0,0)" stroke="rgb(0,0,0)" stroke-width="1" opacity="0.6509803921568628" d="M 947.5 497 L 959 497.5 L 947.5 498 L 947.5 497 Z " /><path fill="rgb(0,0,0)" stroke="rgb(0,0,0)" stroke-width="1" opacity="0.6509803921568628" d="M 1000.5 497 L 1012 497.5 L 1000.5 498 L 1000.5 497 Z " /><path fill="rgb(0,0,0)" stroke="rgb(0,0,0)" stroke-width="1" opacity="0.996078431372549" d="M 492.5 39 Q 511.4 37.6 521 45.5 Q 523.7 47.8 523 53.5 L 515.5 62 Q 506.7 65.7 501 72.5 L 495 84.5 L 489 103.5 L 483 128.5 L 483 135.5 L 502 156.5 L 512 175.5 L 516 196.5 L 516 234.5 L 515 235.5 L 514 257.5 L 508 290.5 L 499 319.5 L 492 336.5 Q 470.7 381.7 435.5 413 Q 395.2 449.2 339.5 470 L 307.5 480 L 273.5 487 L 253.5 488 L 252.5 489 L 217.5 489 L 216.5 488 L 198.5 488 L 197.5 487 L 188.5 487 L 187.5 486 L 165.5 484 L 144.5 480 L 115.5 472 Q 93.3 464.2 74.5 453 Q 57.8 442.2 45 427.5 Q 33.2 413.3 27 393.5 L 24 380.5 L 24 352.5 Q 21 348.5 21 341.5 Q 22.4 333.9 27.5 330 Q 34.2 323.2 48.5 324 L 80.5 342 L 123.5 361 L 147.5 367 L 163.5 368 L 164.5 369 L 184.5 369 L 185.5 368 L 204.5 367 L 225.5 363 L 252.5 355 L 274.5 346 Q 317 326.5 348 295.5 Q 366.6 276.6 379 251.5 L 388 230.5 L 405 177.5 L 411 163.5 Q 418.7 145.7 432.5 134 L 442 128.5 L 458 68.5 L 458 62.5 Q 452.8 60.2 453 52.5 L 455 49 L 467.5 43 L 482.5 40 L 491.5 40 L 492.5 39 Z M 473 66 L 469 72 L 469 76 L 453 137 L 448 140 L 437 152 L 425 173 L 413 205 L 409 222 L 399 251 Q 388 277 371 297 Q 356 314 338 328 Q 316 345 292 358 Q 270 369 245 377 L 224 382 L 211 383 L 210 384 L 200 384 L 199 385 L 170 385 L 169 384 L 159 384 L 158 383 L 139 381 L 124 377 Q 86 365 58 343 L 56 347 Q 52 354 42 354 L 42 358 L 46 365 L 58 381 Q 82 408 119 423 L 134 428 L 152 432 L 176 434 L 177 435 L 197 435 L 198 436 L 228 435 L 229 434 L 254 432 L 280 427 L 312 418 Q 341 408 367 393 L 402 368 Q 432 341 452 305 Q 463 284 471 260 L 477 237 L 480 220 L 480 212 L 481 211 L 481 181 L 480 180 L 479 167 L 476 157 L 467 141 L 472 117 L 485 69 L 473 66 Z " /><path fill="rgb(0,0,0)" stroke="rgb(0,0,0)" stroke-width="1" opacity="0.996078431372549" d="M 1152.5 228 Q 1159.4 227.1 1161 231.5 L 1162 238.5 L 1160 242.5 L 1158 253.5 L 1158 316.5 L 1166.5 309 Q 1175.1 301.6 1187.5 298 L 1191.5 297 L 1211.5 297 Q 1229 300.5 1238 312.5 L 1244 323.5 L 1247 335.5 L 1247 345.5 L 1248 346.5 L 1248 413.5 L 1249 418.5 L 1251.5 422 L 1265.5 422 L 1269 424.5 L 1271 431.5 L 1267.5 437 L 1263.5 439 L 1248.5 439 L 1239.5 437 L 1226.5 437 L 1216.5 439 L 1201.5 439 L 1195 434.5 L 1194 429.5 L 1197.5 423 L 1199.5 422 L 1213.5 422 L 1215 420.5 L 1217 413.5 L 1218 356.5 L 1217 355.5 L 1217 344.5 L 1215 336.5 Q 1212.1 328.4 1205.5 324 Q 1198.9 319 1185.5 321 Q 1174.6 323.6 1169 331.5 Q 1161.1 341.6 1158 356.5 L 1158 358.5 L 1158 406.5 L 1159 407.5 L 1159 416.5 L 1161 422 L 1175.5 422 L 1180 425.5 L 1181 433.5 L 1178.5 437 L 1173.5 439 L 1158.5 439 L 1150.5 437 L 1136.5 437 L 1127.5 439 L 1112.5 439 L 1106 434.5 L 1105 428.5 L 1108.5 423 L 1110.5 422 L 1125 422 L 1127 416.5 Q 1125.3 410.2 1128 408.5 L 1128 267.5 L 1126 261.5 L 1123.5 259 L 1114.5 257 L 1109 252.5 Q 1107.3 243.8 1112.5 242 L 1138.5 235 L 1152.5 228 Z " /><path fill="rgb(0,0,0)" stroke="rgb(0,0,0)" stroke-width="1" opacity="0.996078431372549" d="M 870.5 296 L 878.5 296 L 894.5 299 Q 908.4 304.1 917 314.5 Q 924.4 323.1 928 335.5 L 930 354.5 L 928 362.5 L 922.5 368 L 910.5 369 L 909.5 370 L 874.5 371 L 873.5 372 L 859.5 372 L 858.5 373 L 844.5 373 L 838 374 Q 839.5 400.2 856.5 412 L 869.5 418 L 882.5 419 L 897.5 416 Q 907 411.5 913.5 404 Q 915.8 401.3 921.5 402 L 927 405.5 L 929 412.5 L 927 418.5 L 917.5 428 Q 907.9 435.4 894.5 439 L 869.5 441 L 868.5 440 L 854.5 439 L 842.5 435 Q 828.3 428.3 819 416.5 Q 811 406.5 807 392.5 L 805 383.5 L 804 364.5 L 805 363.5 L 806 350.5 L 811 335.5 Q 818.1 320.6 830.5 311 L 847.5 301 L 856.5 298 L 869.5 297 L 870.5 296 Z M 865 315 L 854 320 L 844 331 L 839 342 L 837 351 Q 836 355 839 356 L 840 355 L 857 355 L 858 354 L 884 353 L 885 352 L 898 351 L 899 350 L 899 340 L 892 325 L 881 316 L 865 315 Z " /><path fill="rgb(0,0,0)" stroke="rgb(0,0,0)" stroke-width="1" opacity="0.996078431372549" d="M 586.5 297 L 611.5 297 L 630.5 302 Q 645.4 309.1 655 321.5 Q 663.5 332.5 667 348.5 Q 665.8 353.3 668 354.5 L 668 376.5 Q 662.1 409.1 640.5 426 Q 631.2 433.7 618.5 438 L 601.5 441 L 590.5 441 L 589.5 440 L 576.5 439 L 561.5 434 Q 548.6 427.4 540 416.5 L 532 403.5 L 528 391.5 L 527 380.5 L 526 379.5 L 526 363.5 L 529 348.5 L 534 335.5 L 548.5 316 Q 562.7 301.7 586.5 297 Z M 592 315 L 580 318 L 577 320 Q 568 327 563 338 L 560 346 L 559 359 L 558 360 L 558 372 L 559 373 L 560 385 L 565 399 L 570 407 Q 578 418 595 422 L 607 422 L 621 416 L 631 404 L 637 386 Q 640 350 626 332 Q 619 322 608 317 L 599 315 L 592 315 Z " /><path fill="rgb(0,0,0)" stroke="rgb(0,0,0)" stroke-width="1" opacity="0.996078431372549" d="M 726.5 297 L 749.5 297 L 754.5 298 Q 768.6 301.4 777 310.5 L 781 317.5 L 781 324.5 L 775.5 331 Q 771.7 335.2 762.5 334 L 755 328.5 L 746.5 318 Q 740.3 313.2 727.5 315 L 719.5 318 L 717 320.5 Q 713.8 322.8 715 329.5 L 719.5 336 L 728.5 342 L 763.5 358 L 781 372.5 L 789 387.5 L 790 401.5 Q 787.1 419.1 775.5 428 Q 766.7 435.7 753.5 439 L 732.5 441 L 731.5 440 L 722.5 440 L 711.5 437 Q 697.3 431.3 688 420.5 L 682 410.5 L 682 402.5 Q 683.6 395.6 689.5 393 Q 692.4 390.4 698.5 391 Q 704.3 392.3 707 396.5 Q 710.4 409.6 719.5 417 L 730.5 422 L 740.5 423 L 750.5 421 Q 757.9 418.4 762 412.5 Q 764.5 409 763 401.5 L 755.5 392 L 737.5 382 L 715.5 373 Q 704.6 367.4 697 358.5 L 689 342.5 L 689 326.5 Q 692.7 313.7 702.5 307 L 710.5 302 L 726.5 297 Z " /><path fill="rgb(0,0,0)" stroke="rgb(0,0,0)" stroke-width="1" opacity="0.996078431372549" d="M 983.5 297 Q 993 295 995 300.5 L 994 310.5 L 998.5 307 Q 1012.5 294.5 1041.5 297 Q 1065.8 301.7 1078 318.5 Q 1087.1 330.4 1091 347.5 Q 1089.8 352.3 1092 353.5 L 1092 379.5 Q 1086.2 410.2 1065.5 426 Q 1050.1 440.6 1020.5 441 L 1019.5 440 L 1010.5 440 Q 1007.6 437.4 1001.5 438 L 991 434 L 991 464.5 L 992 465.5 L 992 479 L 1000.5 479 L 1001.5 478 L 1015.5 478 Q 1022.4 480.1 1021 490.5 L 1016.5 496 L 1013.5 497 L 993.5 497 L 992.5 496 L 976.5 496 L 975.5 495 L 974.5 496 L 964.5 496 L 963.5 497 L 945.5 497 L 939 491.5 L 938 486.5 L 940 481 Q 943 478.3 949.5 478 L 950.5 479 L 960 479 L 961 474.5 L 961 334.5 L 956.5 327 L 946.5 325 L 942 320.5 Q 940.5 311.5 946.5 310 L 970.5 304 L 983.5 297 Z M 1023 319 L 1014 321 L 1005 326 Q 996 333 991 344 L 991 400 L 994 406 Q 1003 418 1021 422 L 1032 422 L 1045 417 Q 1052 412 1056 403 L 1060 390 Q 1058 383 1061 382 Q 1062 347 1047 330 Q 1040 319 1023 319 Z " /></svg>