<?xml version="1.0" encoding="UTF-8"?>
<svg desc="Created on https://convert2svg.com/" version="1.1" viewBox="0 0 2000 440" xmlns="http://www.w3.org/2000/svg">
<path d="m481.5 20h30q1.8 2.8 8 1l18 4 14 5q36.3 16.7 60.5 45.5 24.1 27.9 36 68l7 37v10l1 1v36l-1 1v11l-1 1v7l-3 17-4 16-8 22q-14.9 33.6-39.5 57.5-20.3 20.2-49 32l-12 4-24 5-33 1-1-1h-10l-1-1-12-1-31-10q-30.8-14.7-51.5-39.5-25.1-28.9-38-70l-8-40v-11l-1-1v-32l1-1 1-19 4-21 12-35q16.3-36.2 44.5-60.5 18.8-16.2 43-27l20-7 28-5zm3.5 30l-20 4-11 4q-15 6-25 16-23 20-35 51l-9 28-4 23-1 21-1 1 1 46 1 1v8l2 7v5l4 17q10 35 32 60 11 12 27 21l22 9 9 2h8l1 1h14l1-1h7l10-2q19-6 33-17 23-20 36-51l12-36 4-22v-7l1-1v-11l1-1q3-99-42-150-13-15-34-22l-20-4h-24z" fill="#0a6aa4" stroke="#0a6aa4"/>
<path d="m813.5 20h27l21 4 27 11 21.5 15 8-24h17.5l1.5 1.5 15 74 2 5 2 14 5 20.5-23 7q-15.6-42-46.5-70-14.9-14.6-36-23l-21-5h-20l-11 2-19 8-17.5 15.5-9 18q-2.6 7.9-1 20 4.5 21.5 19.5 32.5l10 7 24 11 77 25 14 6q19.4 8.6 36 20l16.5 15.5q10.6 12.9 16 31l3 14 1 21-1 1v9l-3 14-8 20q-11.7 20.8-29.5 35.5-16.5 14-40 21l-19 4-31 1-1-1h-9l-11-2-19-6-23-13-23.5-18-8 29.5-2.5 4.5h-16l-0.5-2.5-3-13v-6l-4-19v-6l-4-19-4-30-1-1v-6l-4-19-1-12 1.5-1.5 20.5-4q15.4 52.4 51.5 85 16.7 15.3 40 24l16 4 21 1 17-3 15-6q16.3-8.7 27.5-22.5l10-18 2-8 1-14q-2.8-1.7-1-8l-4-13q-5-10.5-13.5-17.5-13.6-10.9-31-18l-87-29-17-7q-25.6-11.4-42.5-31.5-11.5-14-17-34l-2-10v-27q7-38 32.5-57.5 13.9-11.6 32-19l20-6 12-1 1-1z" fill="#0a6aa4" stroke="#0a6aa4"/>
<path d="m164 26h121.5l0.5 0.5v22.5h-21.5q-9.2 1.8-13.5 8.5l-4 10v13l-1 1v217l-1 1v8l-3 16-7 20q-7.9 16.1-20.5 27.5-19.5 18.5-49 27l-16 3h-9l-1 1h-20l-1-1-15-1-23-7q-22.7-10.3-37.5-28.5-13.6-15.4-20-38l-2-10v-28l4-13 9.5-11.5q5.7-5.8 19-4 8.6 2.4 12.5 9.5l4 10v19l-3 13v17q4.5 17.5 16.5 27.5 10.3 9.7 26 14l11 1 1 1h13l16-3 14-6 20.5-16.5 11-18 3-9 2-10v-7l1-1v-21l1-1v-191l-1-1v-18l-1-5q-1.9-7.6-7.5-11.5l-11-4h-18.5v-23z" fill="#0a6aa4" stroke="#0a6aa4"/>
<path d="m1013 26h261.5l1.5 1.5 30 93v3l-5.5 3.5-16.5 6q-9-38.3-35.5-60l-20-12-17-4h-10l-1-1h-102.5v134h46.5l1-1 11-1 10-4 12.5-11.5q5.7-7.3 8-18-1.5-5.5 1-7v-26.5h21.5l0.5 0.5v164.5h-22v-32.5q-2.2-1.3-1-6l-5-12-10.5-11.5-9-5-10-2h-54.5v124.5l1 1v13q1.3 5.8 5.5 8.5l9 2h70l1-1 19-1 26-7q20.8-9.7 35.5-25.5 22.6-25.1 34-60.5h3.5l18.5 8.5-2 10-33 103v3.5h-272.5l-0.5-0.5v-22.5l26.5-1 9.5-6.5 4-7 1-5v-286q-1.6-10.9-9.5-15.5l-10-3h-21.5v-23z" fill="#0a6aa4" stroke="#0a6aa4"/>
<path d="m1353 26h156.5l1 1h13l1 1 15 1q39.8 7.3 60.5 33.5 13 14.5 19 36l3 16 1 21-1 1v12l-1 1-1 11-6 18q-10.8 23.7-29.5 39.5l-19 12-25 7-14 1-1 1h-14l-1 1h-74.5v114.5l4 11 4.5 4.5 11 3h19.5v22.5l-0.5 0.5h-121.5v-23h15.5l10-2 9.5-7.5 3-9v-13l1-1v-260l-1-1q1.3-10.3-1-17-1.8-7.2-7.5-10.5l-10-3h-19.5v-23zm83 30v154h63l1-1 19-1 15-4 14-9q10-10 16-23l6-19 1-17 1-1-1-18-3-14-11-22q-11-16-31-22l-11-1-1-1h-11l-1-1h-66z" fill="#0a6aa4" stroke="#0a6aa4"/>
<path d="m1645 26h122.5l0.5 0.5v22.5h-20.5l-5 1q-7.2 1.8-10.5 7.5l-4 11v121.5h168v-102.5l-1-1v-20q-2-10-9.5-14.5l-9-3h-19.5v-22.5l0.5-0.5h121.5v23h-21.5q-10 1.5-14.5 8.5l-3 9v291l2 7 5.5 5.5 5 2h8l1 1h17.5v22.5l-0.5 0.5h-121.5v-23h18.5l11-2 6.5-5.5 2-6v-20l1-1v-118.5h-168v136.5l2 8 5.5 5.5 5 2h9l1 1h17.5v22.5l-0.5 0.5h-122.5v-23h17.5l11-2 4.5-3.5 5-12v-14l1-1v-258l-1-1q1.4-10.9-1-18-1.8-7.6-7.5-11.5l-9-3h-20.5v-23z" fill="#0a6aa4" stroke="#0a6aa4"/>
<path d="m0 0h1999.5l0.5 0.5v439.5h-1999.5l-0.5-0.5v-439.5zm482 20l-28 5-20 7q-25 11-43 27-29 24-45 61l-12 35-4 21-1 19-1 1v32l1 1v11l8 40q13 41 38 70 21 24 52 39l31 10 12 1 1 1h10l1 1 33-1 24-5 12-4q28-12 49-32 24-24 39-57l8-22 4-16 3-17v-7l1-1v-11l1-1v-36l-1-1v-10l-7-37q-12-41-36-68-24-29-60-46l-14-5-18-4q-7 2-8-1h-30zm332 0l-1 1-12 1-20 6q-19 7-32 19-26 20-33 58v27l2 10q5 19 17 34 17 20 43 31l17 7 87 29q17 7 31 18 8 7 13 18l4 13q-2 6 1 8l-1 14-2 8-10 18q-11 13-27 22l-15 6-17 3-21-1-16-4q-24-9-40-24-37-33-52-85l-20 4-2 2 1 12 4 19v6l1 1 4 30 4 19v6l4 19v6l3 13 1 2h16l2-4 8-30 24 18 23 13 19 6 11 2h9l1 1 31-1 19-4q23-7 40-21 17-15 29-35l8-20 3-14v-9l1-1-1-21-3-14q-5-19-16-31l-16-16q-17-11-36-20l-14-6-77-25-24-11-10-7q-16-11-20-32-2-13 1-20l9-18 18-16 19-8 11-2h20l21 5q21 8 36 23 30 28 46 70l23-7-5-20-2-14-2-5-15-74-1-2h-18l-8 24-21-15-27-11-21-4h-27zm-650 6v23h19l11 4q5 4 7 12l1 5v18l1 1v191l-1 1v21l-1 1v7l-2 10-3 9-11 18-20 16-14 6-16 3h-13l-1-1-11-1q-16-4-26-14-13-10-17-27v-17l3-13v-19l-4-10q-4-8-12-10-14-2-19 4l-10 12-4 13v28l2 10q6 22 20 38 15 18 38 28l23 7 15 1 1 1h20l1-1h9l16-3q29-8 49-27 12-11 20-27l7-20 3-16v-8l1-1v-217l1-1v-13l4-10q4-7 14-9h21v-22-1h-122zm849 0v23h22l10 3q7 5 9 16v286l-1 5-4 7-9 6-27 1v23h1 272v-3l33-103 2-10-18-9h-4q-11 35-34 61-15 15-35 25l-26 7-19 1-1 1h-70l-9-2q-5-3-6-8v-13l-1-1v-125h55l10 2 9 5 10 12 5 12q-1 4 1 6v32h22v-164-1h-22v27q-2 1-1 7-2 10-8 18l-12 11-10 4-11 1-1 1h-47v-134h103l1 1h10l17 4 20 12q26 22 35 60l17-6 5-3v-3l-30-93-1-2h-262zm340 0v23h20l10 3q5 3 7 11 2 6 1 17l1 1v260l-1 1v13l-3 9-9 7-10 2h-16v23h122v-23h-19l-11-3-5-4-4-11v-115h75l1-1h14l1-1 14-1 25-7 19-12q18-16 29-39l6-18 1-11 1-1v-12l1-1-1-21-3-16q-6-22-19-36-21-27-60-34l-15-1-1-1h-13l-1-1h-157zm292 0v23h21l9 3q5 4 7 12 2 7 1 18l1 1v258l-1 1v14l-5 12-4 3-11 2h-18v23h123v-23h-17l-1-1h-9l-5-2-6-5-2-8v-137h168v119l-1 1v20l-2 6-6 5-11 2h-19v23h122v-23h-17l-1-1h-8l-5-2-6-5-2-7v-291l3-9q4-8 15-9h21v-23h-121l-1 1v22h20l9 3q7 5 9 15v20l1 1v102h-168v-121l4-11q3-6 11-8l5-1h20v-22-1h-123z" opacity="0" stroke="#000"/>
<path d="m484.5 50h24l20 4q21 7 34.5 21.5 45 51 42 150l-1 1v11l-1 1v7l-4 22-12 36q-12.7 31.3-36.5 51.5-13.8 11.2-33 17l-10 2h-7l-1 1h-14l-1-1h-8l-9-2-22-9q-15.2-8.8-26.5-21.5-21.7-24.3-32-60l-4-17v-5l-2-7v-8l-1-1-1-46 1-1 1-21 4-23 9-28q12.2-30.3 34.5-50.5 10.9-9.6 25-16l11-4 20-4z" opacity="0" stroke="#000"/>
<path d="m1436 56h65.5l1 1h11l1 1 11 1q20.5 6 31.5 21.5l11 22 3 14 1 18-1 1-1 17-6 19q-6.2 13.8-16.5 23.5l-14 9-15 4-19 1-1 1h-62.5v-154z" opacity="0" stroke="#000"/>
</svg>
