<svg viewBox="0 0 2000 1217" version="1.1" xmlns="http://www.w3.org/2000/svg" desc="NYCJoseph Logo" ><path fill="rgb(0,0,0)" stroke="rgb(0,0,0)" stroke-width="1" opacity="0" d="M 0 0 L 2000 0 L 2000 1217 L 0 1217 L 0 0 Z M 842 375 L 841 376 L 827 377 L 817 380 L 807 388 L 807 394 L 812 400 L 805 431 L 795 466 L 793 466 L 785 471 Q 772 482 765 499 L 756 521 L 743 563 L 732 589 Q 722 609 707 626 Q 674 661 628 682 L 611 689 L 582 698 L 556 703 L 547 703 L 546 704 L 515 704 L 486 699 L 457 688 Q 429 676 405 660 Q 390 658 384 664 Q 377 668 375 676 L 375 683 L 378 692 L 378 707 L 377 708 L 379 725 L 384 740 Q 391 756 402 768 Q 415 782 433 792 L 466 807 L 485 813 L 511 819 L 538 822 L 539 823 L 547 823 L 548 824 L 559 824 L 560 825 L 616 825 Q 617 822 624 824 L 652 819 L 690 808 Q 752 786 796 744 Q 830 712 850 665 L 858 643 L 866 610 L 868 591 L 869 590 L 870 558 L 871 557 L 870 528 L 866 511 L 858 495 L 837 471 Q 842 437 854 411 Q 861 402 872 397 Q 879 395 877 384 L 873 379 L 862 375 L 842 375 Z M 1505 564 L 1489 572 L 1474 575 L 1466 578 L 1462 583 Q 1461 588 1464 591 Q 1468 595 1477 595 L 1480 599 L 1481 610 L 1482 611 L 1482 732 L 1481 733 L 1481 750 L 1480 755 L 1478 758 Q 1471 760 1470 757 L 1462 759 L 1459 763 L 1460 772 L 1463 774 L 1469 776 L 1486 775 L 1487 774 L 1509 774 L 1518 776 Q 1527 777 1532 774 L 1536 768 L 1535 762 L 1533 759 L 1527 757 L 1517 758 L 1514 755 L 1513 750 L 1513 691 Q 1516 678 1522 670 Q 1528 660 1542 657 Q 1555 656 1562 662 L 1568 672 L 1571 684 L 1571 744 L 1570 745 L 1570 753 L 1567 758 Q 1561 760 1560 757 L 1553 758 L 1548 764 L 1549 772 L 1559 776 L 1576 775 L 1577 774 L 1598 774 L 1607 776 L 1615 776 L 1623 773 L 1625 770 L 1624 762 L 1621 758 L 1617 757 L 1607 758 L 1603 753 L 1603 745 L 1602 744 L 1602 676 Q 1600 674 1601 669 Q 1598 654 1590 646 L 1575 635 L 1562 632 L 1549 632 L 1540 634 Q 1527 638 1519 646 L 1514 652 L 1513 652 L 1513 586 L 1516 577 L 1516 568 Q 1514 562 1505 564 Z M 944 632 L 925 637 L 907 648 Q 886 664 880 696 L 880 720 L 882 730 Q 886 744 895 755 L 913 769 L 925 774 L 940 777 L 961 777 L 971 775 Q 986 770 998 760 Q 1011 748 1018 731 L 1022 717 L 1022 709 L 1023 708 Q 1024 673 1008 656 Q 999 645 986 638 L 962 632 L 944 632 Z M 1086 632 L 1085 633 L 1074 634 L 1066 637 L 1055 644 Q 1045 651 1042 665 Q 1041 683 1049 693 Q 1057 703 1069 709 L 1091 718 L 1108 727 Q 1115 731 1117 740 L 1117 745 L 1114 751 L 1100 758 L 1087 758 L 1075 753 L 1067 746 L 1060 731 L 1055 727 Q 1046 726 1043 729 Q 1036 732 1035 741 L 1036 748 L 1043 759 L 1060 771 L 1080 777 L 1100 777 L 1110 775 L 1122 770 L 1133 762 L 1141 751 L 1144 741 L 1144 726 Q 1141 714 1134 707 L 1117 693 L 1092 682 L 1076 673 L 1069 665 L 1070 659 L 1077 653 L 1086 651 Q 1097 651 1103 656 L 1110 667 L 1120 671 L 1126 670 L 1131 667 Q 1135 664 1136 658 L 1133 649 Q 1119 630 1086 632 Z M 1220 632 L 1203 636 Q 1191 641 1182 649 Q 1172 657 1166 669 L 1161 681 L 1158 695 L 1158 716 L 1160 727 Q 1165 744 1175 756 L 1192 769 L 1207 775 L 1218 777 L 1240 777 L 1250 775 Q 1264 771 1275 762 L 1283 752 Q 1284 743 1281 740 L 1278 738 L 1271 738 L 1257 749 L 1243 754 L 1226 754 Q 1215 752 1209 746 Q 1194 735 1192 712 L 1194 710 L 1219 709 L 1220 708 L 1236 708 L 1237 707 L 1256 707 L 1257 706 L 1269 706 L 1278 704 Q 1282 701 1284 695 L 1283 674 L 1281 667 L 1274 654 Q 1265 641 1250 635 L 1238 632 L 1220 632 Z M 1340 632 L 1326 639 L 1302 645 L 1299 647 L 1295 653 L 1296 658 Q 1300 663 1310 663 L 1313 667 L 1315 674 L 1315 806 L 1314 807 L 1314 815 L 1310 814 L 1299 814 L 1297 815 L 1292 821 L 1293 829 Q 1296 833 1302 834 L 1313 834 L 1323 832 L 1339 832 L 1340 833 L 1354 833 L 1355 834 Q 1365 835 1372 832 L 1376 826 Q 1376 819 1373 817 L 1368 813 L 1350 814 L 1349 815 L 1346 814 L 1347 770 L 1358 775 L 1369 776 L 1370 777 L 1387 777 L 1396 775 Q 1412 770 1423 760 L 1438 741 L 1444 727 L 1447 712 L 1447 695 L 1446 694 L 1445 682 L 1436 660 L 1430 652 L 1417 640 L 1403 634 L 1393 632 L 1380 632 L 1370 634 L 1358 639 L 1349 645 L 1350 642 L 1349 636 Q 1347 631 1340 632 Z " /><path fill="rgb(0,0,0)" stroke="rgb(0,0,0)" stroke-width="1" opacity="0" d="M 825.5 403 L 831.5 403 L 838 405 L 837 413.5 L 822 466.5 L 821 478.5 Q 828.7 487.3 832 500.5 L 834 511.5 L 834 521.5 L 835 522.5 L 835 539.5 L 834 540.5 L 834 551.5 L 833 552.5 L 832 564.5 L 826 590.5 L 813 625.5 Q 793.3 668.8 760.5 699 Q 719.6 736.1 660.5 755 L 631.5 763 L 604.5 768 L 588.5 769 L 587.5 770 L 574.5 770 L 573.5 771 L 537.5 771 L 536.5 770 L 525.5 770 L 524.5 769 L 508.5 768 L 493.5 765 L 468.5 757 Q 438.8 744.2 418 722.5 Q 404.2 709 396 691 Q 404.8 690.4 409 684.5 L 411 680 Q 441.4 702.4 482.5 715 L 501.5 719 L 516.5 720 L 517.5 721 L 558.5 721 L 559.5 720 L 574.5 719 L 603.5 712 Q 625.5 705 644.5 695 Q 689.8 671.3 723 635.5 Q 738.1 618.1 749 596.5 L 757 577.5 L 775 518.5 L 788 492.5 L 799.5 478 L 807 473.5 L 823 413.5 L 824 404.5 L 825.5 403 Z " /><path fill="rgb(0,0,0)" stroke="rgb(0,0,0)" stroke-width="1" opacity="0" d="M 1221.5 651 Q 1240.3 650.7 1247 662.5 L 1252 673.5 L 1252 686 L 1242.5 688 L 1233.5 688 L 1232.5 689 L 1192 691 Q 1192.7 665.6 1209.5 655 L 1221.5 651 Z " /><path fill="rgb(0,0,0)" stroke="rgb(0,0,0)" stroke-width="1" opacity="0" d="M 941.5 652 Q 954.6 650.4 962.5 654 Q 972.1 657.9 978 665.5 Q 992.1 682.9 991 715.5 L 990 716.5 L 989 728.5 L 986 736.5 Q 981.7 746.2 973.5 752 L 963.5 757 L 950.5 758 Q 936.1 755.4 928 746.5 Q 910.2 728.3 913 689.5 L 915 679.5 L 920 668.5 L 931.5 656 L 941.5 652 Z " /><path fill="rgb(0,0,0)" stroke="rgb(0,0,0)" stroke-width="1" opacity="0" d="M 1371.5 656 Q 1382.3 654.3 1388.5 657 Q 1396.9 660.6 1402 667.5 Q 1417.2 685.8 1414 722.5 L 1408 741.5 L 1397.5 753 L 1388.5 757 L 1380.5 758 Q 1378.7 755.2 1372.5 757 L 1363.5 754 Q 1354.8 749.8 1349 742.5 L 1346 737.5 L 1346 677.5 L 1352 668 L 1360.5 661 L 1371.5 656 Z " /><path fill="rgb(0,0,0)" stroke="rgb(0,0,0)" stroke-width="1" opacity="0.6509803921568628" d="M 841.5 375 L 846 375.5 L 841.5 376 L 841.5 375 Z " /><path fill="rgb(0,0,0)" stroke="rgb(0,0,0)" stroke-width="1" opacity="0.6509803921568628" d="M 859.5 375 L 862 375.5 L 859.5 376 L 859.5 375 Z " /><path fill="rgb(0,0,0)" stroke="rgb(0,0,0)" stroke-width="1" opacity="0.6509803921568628" d="M 832.5 376 L 836 376.5 L 832.5 377 L 832.5 376 Z " /><path fill="rgb(0,0,0)" stroke="rgb(0,0,0)" stroke-width="1" opacity="0.6509803921568628" d="M 826.5 377 L 829 377.5 L 826.5 378 L 826.5 377 Z " /><path fill="rgb(0,0,0)" stroke="rgb(0,0,0)" stroke-width="1" opacity="0.6509803921568628" d="M 816.5 380 L 818 380.5 L 815.5 382 L 816.5 380 Z " /><path fill="rgb(0,0,0)" stroke="rgb(0,0,0)" stroke-width="1" opacity="0.6509803921568628" d="M 875.5 382 L 877 384.5 L 876 384.5 L 875.5 382 Z " /><path fill="rgb(0,0,0)" stroke="rgb(0,0,0)" stroke-width="1" opacity="0.6509803921568628" d="M 811.5 383 L 810.5 385 L 811.5 383 Z " /><path fill="rgb(0,0,0)" stroke="rgb(0,0,0)" stroke-width="1" opacity="0.6509803921568628" d="M 808.5 386 L 807.5 388 L 808.5 386 Z " /><path fill="rgb(0,0,0)" stroke="rgb(0,0,0)" stroke-width="1" opacity="0.6509803921568628" d="M 875.5 392 L 871.5 397 L 875.5 392 Z " /><path fill="rgb(0,0,0)" stroke="rgb(0,0,0)" stroke-width="1" opacity="0.6509803921568628" d="M 810.5 397 L 811.5 399 L 810.5 397 Z " /><path fill="rgb(0,0,0)" stroke="rgb(0,0,0)" stroke-width="1" opacity="0.6509803921568628" d="M 826.5 402 L 829 402.5 L 826.5 403 L 826.5 402 Z " /><path fill="rgb(0,0,0)" stroke="rgb(0,0,0)" stroke-width="1" opacity="0.6509803921568628" d="M 859.5 404 L 855.5 409 L 859.5 404 Z " /><path fill="rgb(0,0,0)" stroke="rgb(0,0,0)" stroke-width="1" opacity="0.6509803921568628" d="M 838.5 405 L 839 407.5 L 838 407.5 L 838.5 405 Z " /><path fill="rgb(0,0,0)" stroke="rgb(0,0,0)" stroke-width="1" opacity="0.6509803921568628" d="M 838.5 459 L 839 461.5 L 838 461.5 L 838.5 459 Z " /><path fill="rgb(0,0,0)" stroke="rgb(0,0,0)" stroke-width="1" opacity="0.6509803921568628" d="M 837.5 464 L 838 467.5 L 837 467.5 L 837.5 464 Z " /><path fill="rgb(0,0,0)" stroke="rgb(0,0,0)" stroke-width="1" opacity="0.6509803921568628" d="M 822.5 466 L 823 468.5 L 822 468.5 L 822.5 466 Z " /><path fill="rgb(0,0,0)" stroke="rgb(0,0,0)" stroke-width="1" opacity="0.6509803921568628" d="M 788.5 468 L 787.5 470 L 788.5 468 Z " /><path fill="rgb(0,0,0)" stroke="rgb(0,0,0)" stroke-width="1" opacity="0.6509803921568628" d="M 784.5 471 L 778.5 478 L 784.5 471 Z " /><path fill="rgb(0,0,0)" stroke="rgb(0,0,0)" stroke-width="1" opacity="0.6509803921568628" d="M 806.5 473 L 805.5 475 L 806.5 473 Z " /><path fill="rgb(0,0,0)" stroke="rgb(0,0,0)" stroke-width="1" opacity="0.6509803921568628" d="M 801.5 476 L 800.5 478 L 801.5 476 Z " /><path fill="rgb(0,0,0)" stroke="rgb(0,0,0)" stroke-width="1" opacity="0.6509803921568628" d="M 776.5 480 L 775.5 482 L 776.5 480 Z " /><path fill="rgb(0,0,0)" stroke="rgb(0,0,0)" stroke-width="1" opacity="0.6509803921568628" d="M 795.5 482 L 794.5 484 L 795.5 482 Z " /><path fill="rgb(0,0,0)" stroke="rgb(0,0,0)" stroke-width="1" opacity="0.6509803921568628" d="M 847.5 482 L 850.5 486 L 847.5 482 Z " /><path fill="rgb(0,0,0)" stroke="rgb(0,0,0)" stroke-width="1" opacity="0.6509803921568628" d="M 824.5 483 L 825.5 485 L 824.5 483 Z " /><path fill="rgb(0,0,0)" stroke="rgb(0,0,0)" stroke-width="1" opacity="0.6509803921568628" d="M 772.5 486 L 771.5 488 L 772.5 486 Z " /><path fill="rgb(0,0,0)" stroke="rgb(0,0,0)" stroke-width="1" opacity="0.6509803921568628" d="M 792.5 486 L 791.5 488 L 792.5 486 Z " /><path fill="rgb(0,0,0)" stroke="rgb(0,0,0)" stroke-width="1" opacity="0.6509803921568628" d="M 853.5 489 L 854.5 491 L 853.5 489 Z " /><path fill="rgb(0,0,0)" stroke="rgb(0,0,0)" stroke-width="1" opacity="0.6509803921568628" d="M 856.5 493 L 857.5 495 L 856.5 493 Z " /><path fill="rgb(0,0,0)" stroke="rgb(0,0,0)" stroke-width="1" opacity="0.6509803921568628" d="M 784.5 499 L 783.5 501 L 784.5 499 Z " /><path fill="rgb(0,0,0)" stroke="rgb(0,0,0)" stroke-width="1" opacity="0.6509803921568628" d="M 832.5 502 L 833 504.5 L 832 504.5 L 832.5 502 Z " /><path fill="rgb(0,0,0)" stroke="rgb(0,0,0)" stroke-width="1" opacity="0.6509803921568628" d="M 833.5 508 L 834 510.5 L 833 510.5 L 833.5 508 Z " /><path fill="rgb(0,0,0)" stroke="rgb(0,0,0)" stroke-width="1" opacity="0.6509803921568628" d="M 834.5 516 L 835 521.5 L 834 521.5 L 834.5 516 Z " /><path fill="rgb(0,0,0)" stroke="rgb(0,0,0)" stroke-width="1" opacity="0.6509803921568628" d="M 869.5 527 L 870 531.5 L 869 531.5 L 869.5 527 Z " /><path fill="rgb(0,0,0)" stroke="rgb(0,0,0)" stroke-width="1" opacity="0.6509803921568628" d="M 834.5 540 L 835 546.5 L 834 546.5 L 834.5 540 Z " /><path fill="rgb(0,0,0)" stroke="rgb(0,0,0)" stroke-width="1" opacity="0.6509803921568628" d="M 870.5 548 L 871 556.5 L 870 556.5 L 870.5 548 Z " /><path fill="rgb(0,0,0)" stroke="rgb(0,0,0)" stroke-width="1" opacity="0.6509803921568628" d="M 833.5 552 L 834 555.5 L 833 555.5 L 833.5 552 Z " /><path fill="rgb(0,0,0)" stroke="rgb(0,0,0)" stroke-width="1" opacity="0.6509803921568628" d="M 832.5 559 L 833 561.5 L 832 561.5 L 832.5 559 Z " /><path fill="rgb(0,0,0)" stroke="rgb(0,0,0)" stroke-width="1" opacity="0.6509803921568628" d="M 1511.5 564 L 1516 567.5 L 1515.5 569 L 1512.5 565 L 1511.5 564 Z " /><path fill="rgb(0,0,0)" stroke="rgb(0,0,0)" stroke-width="1" opacity="0.6509803921568628" d="M 831.5 565 L 832 567.5 L 831 567.5 L 831.5 565 Z " /><path fill="rgb(0,0,0)" stroke="rgb(0,0,0)" stroke-width="1" opacity="0.6509803921568628" d="M 830.5 570 L 831 572.5 L 830 572.5 L 830.5 570 Z " /><path fill="rgb(0,0,0)" stroke="rgb(0,0,0)" stroke-width="1" opacity="0.6509803921568628" d="M 869.5 571 L 870 578.5 L 869 578.5 L 869.5 571 Z " /><path fill="rgb(0,0,0)" stroke="rgb(0,0,0)" stroke-width="1" opacity="0.6509803921568628" d="M 1465.5 578 L 1464.5 580 L 1465.5 578 Z " /><path fill="rgb(0,0,0)" stroke="rgb(0,0,0)" stroke-width="1" opacity="0.6509803921568628" d="M 1462.5 582 L 1463 586.5 L 1462 586.5 L 1462.5 582 Z " /><path fill="rgb(0,0,0)" stroke="rgb(0,0,0)" stroke-width="1" opacity="0.6509803921568628" d="M 1513.5 582 L 1514 584.5 L 1513 584.5 L 1513.5 582 Z " /><path fill="rgb(0,0,0)" stroke="rgb(0,0,0)" stroke-width="1" opacity="0.6509803921568628" d="M 868.5 585 L 869 589.5 L 868 589.5 L 868.5 585 Z " /><path fill="rgb(0,0,0)" stroke="rgb(0,0,0)" stroke-width="1" opacity="0.6509803921568628" d="M 1512.5 589 L 1513 652.5 L 1512 652.5 L 1512.5 589 Z " /><path fill="rgb(0,0,0)" stroke="rgb(0,0,0)" stroke-width="1" opacity="0.6509803921568628" d="M 1464.5 590 L 1465.5 592 L 1464.5 590 Z " /><path fill="rgb(0,0,0)" stroke="rgb(0,0,0)" stroke-width="1" opacity="0.6509803921568628" d="M 867.5 594 L 868 597.5 L 867 597.5 L 867.5 594 Z " /><path fill="rgb(0,0,0)" stroke="rgb(0,0,0)" stroke-width="1" opacity="0.6509803921568628" d="M 1477.5 595 L 1479.5 598 L 1477.5 595 Z " /><path fill="rgb(0,0,0)" stroke="rgb(0,0,0)" stroke-width="1" opacity="0.6509803921568628" d="M 866.5 601 L 867 603.5 L 866 603.5 L 866.5 601 Z " /><path fill="rgb(0,0,0)" stroke="rgb(0,0,0)" stroke-width="1" opacity="0.6509803921568628" d="M 1481.5 603 L 1482 609.5 L 1481 609.5 L 1481.5 603 Z " /><path fill="rgb(0,0,0)" stroke="rgb(0,0,0)" stroke-width="1" opacity="0.6509803921568628" d="M 865.5 607 L 866 609.5 L 865 609.5 L 865.5 607 Z " /><path fill="rgb(0,0,0)" stroke="rgb(0,0,0)" stroke-width="1" opacity="0.6509803921568628" d="M 741.5 609 L 740.5 611 L 741.5 609 Z " /><path fill="rgb(0,0,0)" stroke="rgb(0,0,0)" stroke-width="1" opacity="0.6509803921568628" d="M 717.5 612 L 716.5 614 L 717.5 612 Z " /><path fill="rgb(0,0,0)" stroke="rgb(0,0,0)" stroke-width="1" opacity="0.6509803921568628" d="M 714.5 616 L 712.5 619 L 714.5 616 Z " /><path fill="rgb(0,0,0)" stroke="rgb(0,0,0)" stroke-width="1" opacity="0.6509803921568628" d="M 710.5 621 L 707.5 625 L 710.5 621 Z " /><path fill="rgb(0,0,0)" stroke="rgb(0,0,0)" stroke-width="1" opacity="0.6509803921568628" d="M 733.5 621 L 732.5 623 L 733.5 621 Z " /><path fill="rgb(0,0,0)" stroke="rgb(0,0,0)" stroke-width="1" opacity="0.6509803921568628" d="M 862.5 622 L 863 624.5 L 862 624.5 L 862.5 622 Z " /><path fill="rgb(0,0,0)" stroke="rgb(0,0,0)" stroke-width="1" opacity="0.6509803921568628" d="M 730.5 625 L 729.5 627 L 730.5 625 Z " /><path fill="rgb(0,0,0)" stroke="rgb(0,0,0)" stroke-width="1" opacity="0.6509803921568628" d="M 727.5 629 L 725.5 632 L 727.5 629 Z " /><path fill="rgb(0,0,0)" stroke="rgb(0,0,0)" stroke-width="1" opacity="0.6509803921568628" d="M 701.5 631 L 695.5 638 L 701.5 631 Z " /><path fill="rgb(0,0,0)" stroke="rgb(0,0,0)" stroke-width="1" opacity="0.6509803921568628" d="M 943.5 632 L 962 632.5 L 943.5 633 L 943.5 632 Z " /><path fill="rgb(0,0,0)" stroke="rgb(0,0,0)" stroke-width="1" opacity="0.6509803921568628" d="M 1085.5 632 L 1101 632.5 L 1085.5 633 L 1085.5 632 Z " /><path fill="rgb(0,0,0)" stroke="rgb(0,0,0)" stroke-width="1" opacity="0.6509803921568628" d="M 1219.5 632 L 1224 632.5 L 1219.5 633 L 1219.5 632 Z " /><path fill="rgb(0,0,0)" stroke="rgb(0,0,0)" stroke-width="1" opacity="0.6509803921568628" d="M 1233.5 632 L 1238 632.5 L 1233.5 633 L 1233.5 632 Z " /><path fill="rgb(0,0,0)" stroke="rgb(0,0,0)" stroke-width="1" opacity="0.6509803921568628" d="M 1339.5 632 L 1345 632.5 L 1339.5 633 L 1339.5 632 Z " /><path fill="rgb(0,0,0)" stroke="rgb(0,0,0)" stroke-width="1" opacity="0.6509803921568628" d="M 1379.5 632 L 1393 632.5 L 1379.5 633 L 1379.5 632 Z " /><path fill="rgb(0,0,0)" stroke="rgb(0,0,0)" stroke-width="1" opacity="0.6509803921568628" d="M 1548.5 632 L 1562 632.5 L 1548.5 633 L 1548.5 632 Z " /><path fill="rgb(0,0,0)" stroke="rgb(0,0,0)" stroke-width="1" opacity="0.6509803921568628" d="M 966.5 633 L 969 633.5 L 966.5 634 L 966.5 633 Z " /><path fill="rgb(0,0,0)" stroke="rgb(0,0,0)" stroke-width="1" opacity="0.6509803921568628" d="M 1104.5 633 L 1107 633.5 L 1104.5 634 L 1104.5 633 Z " /><path fill="rgb(0,0,0)" stroke="rgb(0,0,0)" stroke-width="1" opacity="0.6509803921568628" d="M 1241.5 633 L 1244 633.5 L 1241.5 634 L 1241.5 633 Z " /><path fill="rgb(0,0,0)" stroke="rgb(0,0,0)" stroke-width="1" opacity="0.6509803921568628" d="M 1346.5 633 L 1348.5 636 L 1346.5 633 Z " /><path fill="rgb(0,0,0)" stroke="rgb(0,0,0)" stroke-width="1" opacity="0.6509803921568628" d="M 1373.5 633 L 1376 633.5 L 1373.5 634 L 1373.5 633 Z " /><path fill="rgb(0,0,0)" stroke="rgb(0,0,0)" stroke-width="1" opacity="0.6509803921568628" d="M 1396.5 633 L 1399 633.5 L 1396.5 634 L 1396.5 633 Z " /><path fill="rgb(0,0,0)" stroke="rgb(0,0,0)" stroke-width="1" opacity="0.6509803921568628" d="M 1073.5 634 L 1076 634.5 L 1073.5 635 L 1073.5 634 Z " /><path fill="rgb(0,0,0)" stroke="rgb(0,0,0)" stroke-width="1" opacity="0.6509803921568628" d="M 722.5 635 L 705.5 653 L 722.5 635 Z " /><path fill="rgb(0,0,0)" stroke="rgb(0,0,0)" stroke-width="1" opacity="0.6509803921568628" d="M 1349.5 637 L 1350 641.5 L 1349 641.5 L 1349.5 637 Z " /><path fill="rgb(0,0,0)" stroke="rgb(0,0,0)" stroke-width="1" opacity="0.6509803921568628" d="M 1063.5 638 L 1062.5 640 L 1063.5 638 Z " /><path fill="rgb(0,0,0)" stroke="rgb(0,0,0)" stroke-width="1" opacity="0.6509803921568628" d="M 1122.5 639 L 1123.5 641 L 1122.5 639 Z " /><path fill="rgb(0,0,0)" stroke="rgb(0,0,0)" stroke-width="1" opacity="0.6509803921568628" d="M 1357.5 639 L 1356.5 641 L 1357.5 639 Z " /><path fill="rgb(0,0,0)" stroke="rgb(0,0,0)" stroke-width="1" opacity="0.6509803921568628" d="M 1416.5 640 L 1417.5 642 L 1416.5 640 Z " /><path fill="rgb(0,0,0)" stroke="rgb(0,0,0)" stroke-width="1" opacity="0.6509803921568628" d="M 1526.5 640 L 1525.5 642 L 1526.5 640 Z " /><path fill="rgb(0,0,0)" stroke="rgb(0,0,0)" stroke-width="1" opacity="0.6509803921568628" d="M 1583.5 640 L 1584.5 642 L 1583.5 640 Z " /><path fill="rgb(0,0,0)" stroke="rgb(0,0,0)" stroke-width="1" opacity="0.6509803921568628" d="M 1058.5 641 L 1057.5 643 L 1058.5 641 Z " /><path fill="rgb(0,0,0)" stroke="rgb(0,0,0)" stroke-width="1" opacity="0.6509803921568628" d="M 1125.5 641 L 1127.5 644 L 1125.5 641 Z " /><path fill="rgb(0,0,0)" stroke="rgb(0,0,0)" stroke-width="1" opacity="0.6509803921568628" d="M 1354.5 641 L 1353.5 643 L 1354.5 641 Z " /><path fill="rgb(0,0,0)" stroke="rgb(0,0,0)" stroke-width="1" opacity="0.6509803921568628" d="M 689.5 642 L 687.5 645 L 689.5 642 Z " /><path fill="rgb(0,0,0)" stroke="rgb(0,0,0)" stroke-width="1" opacity="0.6509803921568628" d="M 1262.5 642 L 1263.5 644 L 1262.5 642 Z " /><path fill="rgb(0,0,0)" stroke="rgb(0,0,0)" stroke-width="1" opacity="0.6509803921568628" d="M 1419.5 642 L 1420.5 644 L 1419.5 642 Z " /><path fill="rgb(0,0,0)" stroke="rgb(0,0,0)" stroke-width="1" opacity="0.6509803921568628" d="M 1523.5 642 L 1521.5 645 L 1523.5 642 Z " /><path fill="rgb(0,0,0)" stroke="rgb(0,0,0)" stroke-width="1" opacity="0.6509803921568628" d="M 911.5 644 L 910.5 646 L 911.5 644 Z " /><path fill="rgb(0,0,0)" stroke="rgb(0,0,0)" stroke-width="1" opacity="0.6509803921568628" d="M 995.5 644 L 996.5 646 L 995.5 644 Z " /><path fill="rgb(0,0,0)" stroke="rgb(0,0,0)" stroke-width="1" opacity="0.6509803921568628" d="M 1054.5 644 L 1049.5 650 L 1054.5 644 Z " /><path fill="rgb(0,0,0)" stroke="rgb(0,0,0)" stroke-width="1" opacity="0.6509803921568628" d="M 1348.5 644 Q 1351.5 645.5 1348.5 647 L 1348.5 644 Z " /><path fill="rgb(0,0,0)" stroke="rgb(0,0,0)" stroke-width="1" opacity="0.6509803921568628" d="M 1588.5 644 L 1589.5 646 L 1588.5 644 Z " /><path fill="rgb(0,0,0)" stroke="rgb(0,0,0)" stroke-width="1" opacity="0.6509803921568628" d="M 1186.5 645 L 1185.5 647 L 1186.5 645 Z " /><path fill="rgb(0,0,0)" stroke="rgb(0,0,0)" stroke-width="1" opacity="0.6509803921568628" d="M 1424.5 646 L 1429.5 652 L 1424.5 646 Z " /><path fill="rgb(0,0,0)" stroke="rgb(0,0,0)" stroke-width="1" opacity="0.6509803921568628" d="M 1518.5 646 L 1514.5 651 L 1518.5 646 Z " /><path fill="rgb(0,0,0)" stroke="rgb(0,0,0)" stroke-width="1" opacity="0.6509803921568628" d="M 683.5 647 L 682.5 649 L 683.5 647 Z " /><path fill="rgb(0,0,0)" stroke="rgb(0,0,0)" stroke-width="1" opacity="0.6509803921568628" d="M 999.5 647 L 1007.5 656 L 999.5 647 Z " /><path fill="rgb(0,0,0)" stroke="rgb(0,0,0)" stroke-width="1" opacity="0.6509803921568628" d="M 1131.5 647 L 1132.5 649 L 1131.5 647 Z " /><path fill="rgb(0,0,0)" stroke="rgb(0,0,0)" stroke-width="1" opacity="0.6509803921568628" d="M 1298.5 647 L 1297.5 649 L 1298.5 647 Z " /><path fill="rgb(0,0,0)" stroke="rgb(0,0,0)" stroke-width="1" opacity="0.6509803921568628" d="M 906.5 648 L 903.5 652 L 906.5 648 Z " /><path fill="rgb(0,0,0)" stroke="rgb(0,0,0)" stroke-width="1" opacity="0.6509803921568628" d="M 1181.5 649 L 1174.5 657 L 1181.5 649 Z " /><path fill="rgb(0,0,0)" stroke="rgb(0,0,0)" stroke-width="1" opacity="0.6509803921568628" d="M 1592.5 649 L 1593.5 651 L 1592.5 649 Z " /><path fill="rgb(0,0,0)" stroke="rgb(0,0,0)" stroke-width="1" opacity="0.6509803921568628" d="M 679.5 650 L 678.5 652 L 679.5 650 Z " /><path fill="rgb(0,0,0)" stroke="rgb(0,0,0)" stroke-width="1" opacity="0.6509803921568628" d="M 945.5 651 L 953 651.5 L 945.5 652 L 945.5 651 Z " /><path fill="rgb(0,0,0)" stroke="rgb(0,0,0)" stroke-width="1" opacity="0.6509803921568628" d="M 1081.5 651 L 1085 651.5 L 1081.5 652 L 1081.5 651 Z " /><path fill="rgb(0,0,0)" stroke="rgb(0,0,0)" stroke-width="1" opacity="0.6509803921568628" d="M 1090.5 651 L 1094 651.5 L 1090.5 652 L 1090.5 651 Z " /><path fill="rgb(0,0,0)" stroke="rgb(0,0,0)" stroke-width="1" opacity="0.6509803921568628" d="M 1218.5 651 L 1221 651.5 L 1218.5 652 L 1218.5 651 Z " /><path fill="rgb(0,0,0)" stroke="rgb(0,0,0)" stroke-width="1" opacity="0.6509803921568628" d="M 1228.5 651 L 1231 651.5 L 1228.5 652 L 1228.5 651 Z " /><path fill="rgb(0,0,0)" stroke="rgb(0,0,0)" stroke-width="1" opacity="0.6509803921568628" d="M 1271.5 651 L 1273.5 654 L 1271.5 651 Z " /><path fill="rgb(0,0,0)" stroke="rgb(0,0,0)" stroke-width="1" opacity="0.6509803921568628" d="M 798.5 652 L 797.5 654 L 798.5 652 Z " /><path fill="rgb(0,0,0)" stroke="rgb(0,0,0)" stroke-width="1" opacity="0.6509803921568628" d="M 675.5 653 L 674.5 655 L 675.5 653 Z " /><path fill="rgb(0,0,0)" stroke="rgb(0,0,0)" stroke-width="1" opacity="0.6509803921568628" d="M 933.5 654 L 935 654.5 L 932.5 656 L 933.5 654 Z " /><path fill="rgb(0,0,0)" stroke="rgb(0,0,0)" stroke-width="1" opacity="0.6509803921568628" d="M 1073.5 654 L 1071.5 657 L 1073.5 654 Z " /><path fill="rgb(0,0,0)" stroke="rgb(0,0,0)" stroke-width="1" opacity="0.6509803921568628" d="M 1100.5 654 L 1101.5 656 L 1100.5 654 Z " /><path fill="rgb(0,0,0)" stroke="rgb(0,0,0)" stroke-width="1" opacity="0.6509803921568628" d="M 1274.5 655 L 1275.5 657 L 1274.5 655 Z " /><path fill="rgb(0,0,0)" stroke="rgb(0,0,0)" stroke-width="1" opacity="0.6509803921568628" d="M 1376.5 655 L 1383 655.5 L 1376.5 656 L 1376.5 655 Z " /><path fill="rgb(0,0,0)" stroke="rgb(0,0,0)" stroke-width="1" opacity="0.6509803921568628" d="M 1432.5 655 L 1433.5 657 L 1432.5 655 Z " /><path fill="rgb(0,0,0)" stroke="rgb(0,0,0)" stroke-width="1" opacity="0.6509803921568628" d="M 671.5 656 L 670.5 658 L 671.5 656 Z " /><path fill="rgb(0,0,0)" stroke="rgb(0,0,0)" stroke-width="1" opacity="0.6509803921568628" d="M 700.5 656 L 698.5 659 L 700.5 656 Z " /><path fill="rgb(0,0,0)" stroke="rgb(0,0,0)" stroke-width="1" opacity="0.6509803921568628" d="M 898.5 656 L 896.5 659 L 898.5 656 Z " /><path fill="rgb(0,0,0)" stroke="rgb(0,0,0)" stroke-width="1" opacity="0.6509803921568628" d="M 930.5 656 L 922.5 665 L 930.5 656 Z " /><path fill="rgb(0,0,0)" stroke="rgb(0,0,0)" stroke-width="1" opacity="0.6509803921568628" d="M 1207.5 656 L 1200.5 664 L 1207.5 656 Z " /><path fill="rgb(0,0,0)" stroke="rgb(0,0,0)" stroke-width="1" opacity="0.6509803921568628" d="M 1241.5 656 L 1245.5 661 L 1241.5 656 Z " /><path fill="rgb(0,0,0)" stroke="rgb(0,0,0)" stroke-width="1" opacity="0.6509803921568628" d="M 1103.5 657 L 1106.5 661 L 1103.5 657 Z " /><path fill="rgb(0,0,0)" stroke="rgb(0,0,0)" stroke-width="1" opacity="0.6509803921568628" d="M 1296.5 657 L 1298.5 660 L 1296.5 657 Z " /><path fill="rgb(0,0,0)" stroke="rgb(0,0,0)" stroke-width="1" opacity="0.6509803921568628" d="M 1550.5 657 L 1553 657.5 L 1550.5 658 L 1550.5 657 Z " /><path fill="rgb(0,0,0)" stroke="rgb(0,0,0)" stroke-width="1" opacity="0.6509803921568628" d="M 668.5 658 L 667.5 660 L 668.5 658 Z " /><path fill="rgb(0,0,0)" stroke="rgb(0,0,0)" stroke-width="1" opacity="0.6509803921568628" d="M 970.5 658 L 971.5 660 L 970.5 658 Z " /><path fill="rgb(0,0,0)" stroke="rgb(0,0,0)" stroke-width="1" opacity="0.6509803921568628" d="M 1009.5 658 L 1010.5 660 L 1009.5 658 Z " /><path fill="rgb(0,0,0)" stroke="rgb(0,0,0)" stroke-width="1" opacity="0.6509803921568628" d="M 1434.5 658 L 1435.5 660 L 1434.5 658 Z " /><path fill="rgb(0,0,0)" stroke="rgb(0,0,0)" stroke-width="1" opacity="0.6509803921568628" d="M 1172.5 659 L 1171.5 661 L 1172.5 659 Z " /><path fill="rgb(0,0,0)" stroke="rgb(0,0,0)" stroke-width="1" opacity="0.6509803921568628" d="M 1393.5 659 L 1394.5 661 L 1393.5 659 Z " /><path fill="rgb(0,0,0)" stroke="rgb(0,0,0)" stroke-width="1" opacity="0.6509803921568628" d="M 1533.5 659 L 1535 659.5 L 1532.5 661 L 1533.5 659 Z " /><path fill="rgb(0,0,0)" stroke="rgb(0,0,0)" stroke-width="1" opacity="0.6509803921568628" d="M 403.5 660 L 406 661.5 L 404.5 661 L 403.5 660 Z " /><path fill="rgb(0,0,0)" stroke="rgb(0,0,0)" stroke-width="1" opacity="0.6509803921568628" d="M 665.5 660 L 664.5 662 L 665.5 660 Z " /><path fill="rgb(0,0,0)" stroke="rgb(0,0,0)" stroke-width="1" opacity="0.6509803921568628" d="M 695.5 660 L 693.5 663 L 695.5 660 Z " /><path fill="rgb(0,0,0)" stroke="rgb(0,0,0)" stroke-width="1" opacity="0.6509803921568628" d="M 1559.5 660 L 1560.5 662 L 1559.5 660 Z " /><path fill="rgb(0,0,0)" stroke="rgb(0,0,0)" stroke-width="1" opacity="0.6509803921568628" d="M 894.5 661 L 893.5 663 L 894.5 661 Z " /><path fill="rgb(0,0,0)" stroke="rgb(0,0,0)" stroke-width="1" opacity="0.6509803921568628" d="M 1011.5 661 L 1012.5 663 L 1011.5 661 Z " /><path fill="rgb(0,0,0)" stroke="rgb(0,0,0)" stroke-width="1" opacity="0.6509803921568628" d="M 662.5 662 L 661.5 664 L 662.5 662 Z " /><path fill="rgb(0,0,0)" stroke="rgb(0,0,0)" stroke-width="1" opacity="0.6509803921568628" d="M 1107.5 662 L 1108.5 664 L 1107.5 662 Z " /><path fill="rgb(0,0,0)" stroke="rgb(0,0,0)" stroke-width="1" opacity="0.6509803921568628" d="M 1358.5 662 L 1353.5 668 L 1358.5 662 Z " /><path fill="rgb(0,0,0)" stroke="rgb(0,0,0)" stroke-width="1" opacity="0.6509803921568628" d="M 1397.5 662 L 1400.5 666 L 1397.5 662 Z " /><path fill="rgb(0,0,0)" stroke="rgb(0,0,0)" stroke-width="1" opacity="0.6509803921568628" d="M 1133.5 663 L 1130.5 667 L 1133.5 663 Z " /><path fill="rgb(0,0,0)" stroke="rgb(0,0,0)" stroke-width="1" opacity="0.6509803921568628" d="M 1310.5 663 L 1312.5 666 L 1310.5 663 Z " /><path fill="rgb(0,0,0)" stroke="rgb(0,0,0)" stroke-width="1" opacity="0.6509803921568628" d="M 1527.5 663 L 1523.5 668 L 1527.5 663 Z " /><path fill="rgb(0,0,0)" stroke="rgb(0,0,0)" stroke-width="1" opacity="0.6509803921568628" d="M 383.5 664 L 382.5 666 L 383.5 664 Z " /><path fill="rgb(0,0,0)" stroke="rgb(0,0,0)" stroke-width="1" opacity="0.6509803921568628" d="M 690.5 664 L 689.5 666 L 690.5 664 Z " /><path fill="rgb(0,0,0)" stroke="rgb(0,0,0)" stroke-width="1" opacity="0.6509803921568628" d="M 892.5 664 L 891.5 666 L 892.5 664 Z " /><path fill="rgb(0,0,0)" stroke="rgb(0,0,0)" stroke-width="1" opacity="0.6509803921568628" d="M 1042.5 664 L 1043 675.5 L 1042 675.5 L 1042.5 664 Z " /><path fill="rgb(0,0,0)" stroke="rgb(0,0,0)" stroke-width="1" opacity="0.6509803921568628" d="M 413.5 665 L 414.5 667 L 413.5 665 Z " /><path fill="rgb(0,0,0)" stroke="rgb(0,0,0)" stroke-width="1" opacity="0.6509803921568628" d="M 1199.5 665 L 1198.5 667 L 1199.5 665 Z " /><path fill="rgb(0,0,0)" stroke="rgb(0,0,0)" stroke-width="1" opacity="0.6509803921568628" d="M 1564.5 665 L 1565.5 667 L 1564.5 665 Z " /><path fill="rgb(0,0,0)" stroke="rgb(0,0,0)" stroke-width="1" opacity="0.6509803921568628" d="M 921.5 666 L 920.5 668 L 921.5 666 Z " /><path fill="rgb(0,0,0)" stroke="rgb(0,0,0)" stroke-width="1" opacity="0.6509803921568628" d="M 978.5 666 L 979.5 668 L 978.5 666 Z " /><path fill="rgb(0,0,0)" stroke="rgb(0,0,0)" stroke-width="1" opacity="0.6509803921568628" d="M 1110.5 666 L 1111.5 668 L 1110.5 666 Z " /><path fill="rgb(0,0,0)" stroke="rgb(0,0,0)" stroke-width="1" opacity="0.6509803921568628" d="M 654.5 667 L 653.5 669 L 654.5 667 Z " /><path fill="rgb(0,0,0)" stroke="rgb(0,0,0)" stroke-width="1" opacity="0.6509803921568628" d="M 686.5 667 L 685.5 669 L 686.5 667 Z " /><path fill="rgb(0,0,0)" stroke="rgb(0,0,0)" stroke-width="1" opacity="0.6509803921568628" d="M 788.5 667 L 787.5 669 L 788.5 667 Z " /><path fill="rgb(0,0,0)" stroke="rgb(0,0,0)" stroke-width="1" opacity="0.6509803921568628" d="M 1128.5 667 L 1127.5 669 L 1128.5 667 Z " /><path fill="rgb(0,0,0)" stroke="rgb(0,0,0)" stroke-width="1" opacity="0.6509803921568628" d="M 1402.5 668 L 1403.5 670 L 1402.5 668 Z " /><path fill="rgb(0,0,0)" stroke="rgb(0,0,0)" stroke-width="1" opacity="0.6509803921568628" d="M 1600.5 668 L 1601 670.5 L 1600 670.5 L 1600.5 668 Z " /><path fill="rgb(0,0,0)" stroke="rgb(0,0,0)" stroke-width="1" opacity="0.6509803921568628" d="M 378.5 669 L 377.5 671 L 378.5 669 Z " /><path fill="rgb(0,0,0)" stroke="rgb(0,0,0)" stroke-width="1" opacity="0.6509803921568628" d="M 1071.5 669 L 1073.5 672 L 1071.5 669 Z " /><path fill="rgb(0,0,0)" stroke="rgb(0,0,0)" stroke-width="1" opacity="0.6509803921568628" d="M 1351.5 669 L 1350.5 671 L 1351.5 669 Z " /><path fill="rgb(0,0,0)" stroke="rgb(0,0,0)" stroke-width="1" opacity="0.6509803921568628" d="M 422.5 670 L 423.5 672 L 422.5 670 Z " /><path fill="rgb(0,0,0)" stroke="rgb(0,0,0)" stroke-width="1" opacity="0.6509803921568628" d="M 682.5 670 L 681.5 672 L 682.5 670 Z " /><path fill="rgb(0,0,0)" stroke="rgb(0,0,0)" stroke-width="1" opacity="0.6509803921568628" d="M 1314.5 670 L 1315 672.5 L 1314 672.5 L 1314.5 670 Z " /><path fill="rgb(0,0,0)" stroke="rgb(0,0,0)" stroke-width="1" opacity="0.6509803921568628" d="M 1521.5 670 L 1520.5 672 L 1521.5 670 Z " /><path fill="rgb(0,0,0)" stroke="rgb(0,0,0)" stroke-width="1" opacity="0.6509803921568628" d="M 785.5 671 L 784.5 673 L 785.5 671 Z " /><path fill="rgb(0,0,0)" stroke="rgb(0,0,0)" stroke-width="1" opacity="0.6509803921568628" d="M 1404.5 671 L 1405.5 673 L 1404.5 671 Z " /><path fill="rgb(0,0,0)" stroke="rgb(0,0,0)" stroke-width="1" opacity="0.6509803921568628" d="M 1076.5 673 L 1077.5 675 L 1076.5 673 Z " /><path fill="rgb(0,0,0)" stroke="rgb(0,0,0)" stroke-width="1" opacity="0.6509803921568628" d="M 1282.5 673 L 1283 675.5 L 1282 675.5 L 1282.5 673 Z " /><path fill="rgb(0,0,0)" stroke="rgb(0,0,0)" stroke-width="1" opacity="0.6509803921568628" d="M 1348.5 673 L 1347.5 675 L 1348.5 673 Z " /><path fill="rgb(0,0,0)" stroke="rgb(0,0,0)" stroke-width="1" opacity="0.6509803921568628" d="M 1252.5 675 L 1253 685.5 L 1250.5 687 L 1250.5 686 L 1252 685.5 L 1252.5 675 Z " /><path fill="rgb(0,0,0)" stroke="rgb(0,0,0)" stroke-width="1" opacity="0.6509803921568628" d="M 1601.5 675 L 1602 681.5 L 1601 681.5 L 1601.5 675 Z " /><path fill="rgb(0,0,0)" stroke="rgb(0,0,0)" stroke-width="1" opacity="0.6509803921568628" d="M 433.5 676 L 436 677.5 L 434.5 678 L 433.5 676 Z " /><path fill="rgb(0,0,0)" stroke="rgb(0,0,0)" stroke-width="1" opacity="0.6509803921568628" d="M 781.5 676 L 779.5 679 L 781.5 676 Z " /><path fill="rgb(0,0,0)" stroke="rgb(0,0,0)" stroke-width="1" opacity="0.6509803921568628" d="M 1081.5 676 L 1082.5 678 L 1081.5 676 Z " /><path fill="rgb(0,0,0)" stroke="rgb(0,0,0)" stroke-width="1" opacity="0.6509803921568628" d="M 670.5 678 L 669.5 680 L 670.5 678 Z " /><path fill="rgb(0,0,0)" stroke="rgb(0,0,0)" stroke-width="1" opacity="0.6509803921568628" d="M 1283.5 679 L 1284 683.5 L 1283 683.5 L 1283.5 679 Z " /><path fill="rgb(0,0,0)" stroke="rgb(0,0,0)" stroke-width="1" opacity="0.6509803921568628" d="M 1345.5 679 L 1346 735.5 L 1345 735.5 L 1345.5 679 Z " /><path fill="rgb(0,0,0)" stroke="rgb(0,0,0)" stroke-width="1" opacity="0.6509803921568628" d="M 667.5 680 L 666.5 682 L 667.5 680 Z " /><path fill="rgb(0,0,0)" stroke="rgb(0,0,0)" stroke-width="1" opacity="0.6509803921568628" d="M 1570.5 680 L 1571 682.5 L 1570 682.5 L 1570.5 680 Z " /><path fill="rgb(0,0,0)" stroke="rgb(0,0,0)" stroke-width="1" opacity="0.6509803921568628" d="M 414.5 681 L 415.5 683 L 414.5 681 Z " /><path fill="rgb(0,0,0)" stroke="rgb(0,0,0)" stroke-width="1" opacity="0.6509803921568628" d="M 914.5 681 L 915 683.5 L 914 683.5 L 914.5 681 Z " /><path fill="rgb(0,0,0)" stroke="rgb(0,0,0)" stroke-width="1" opacity="0.6509803921568628" d="M 664.5 682 L 663.5 684 L 664.5 682 Z " /><path fill="rgb(0,0,0)" stroke="rgb(0,0,0)" stroke-width="1" opacity="0.6509803921568628" d="M 776.5 682 L 771.5 688 L 776.5 682 Z " /><path fill="rgb(0,0,0)" stroke="rgb(0,0,0)" stroke-width="1" opacity="0.6509803921568628" d="M 417.5 683 L 418.5 685 L 417.5 683 Z " /><path fill="rgb(0,0,0)" stroke="rgb(0,0,0)" stroke-width="1" opacity="0.6509803921568628" d="M 408.5 684 L 405.5 688 L 408.5 684 Z " /><path fill="rgb(0,0,0)" stroke="rgb(0,0,0)" stroke-width="1" opacity="0.6509803921568628" d="M 420.5 685 L 421.5 687 L 420.5 685 Z " /><path fill="rgb(0,0,0)" stroke="rgb(0,0,0)" stroke-width="1" opacity="0.6509803921568628" d="M 913.5 686 L 914 688.5 L 913 688.5 L 913.5 686 Z " /><path fill="rgb(0,0,0)" stroke="rgb(0,0,0)" stroke-width="1" opacity="0.6509803921568628" d="M 1191.5 686 L 1193 691.5 L 1191 690.5 L 1191.5 686 Z " /><path fill="rgb(0,0,0)" stroke="rgb(0,0,0)" stroke-width="1" opacity="0.6509803921568628" d="M 1445.5 686 L 1446 688.5 L 1445 688.5 L 1445.5 686 Z " /><path fill="rgb(0,0,0)" stroke="rgb(0,0,0)" stroke-width="1" opacity="0.6509803921568628" d="M 1021.5 687 L 1022 689.5 L 1021 689.5 L 1021.5 687 Z " /><path fill="rgb(0,0,0)" stroke="rgb(0,0,0)" stroke-width="1" opacity="0.6509803921568628" d="M 1243.5 687 L 1246 687.5 L 1243.5 688 L 1243.5 687 Z " /><path fill="rgb(0,0,0)" stroke="rgb(0,0,0)" stroke-width="1" opacity="0.6509803921568628" d="M 377.5 688 L 378 690.5 L 377 690.5 L 377.5 688 Z " /><path fill="rgb(0,0,0)" stroke="rgb(0,0,0)" stroke-width="1" opacity="0.6509803921568628" d="M 1159.5 688 L 1160 690.5 L 1159 690.5 L 1159.5 688 Z " /><path fill="rgb(0,0,0)" stroke="rgb(0,0,0)" stroke-width="1" opacity="0.6509803921568628" d="M 1233.5 688 L 1238 688.5 L 1233.5 689 L 1233.5 688 Z " /><path fill="rgb(0,0,0)" stroke="rgb(0,0,0)" stroke-width="1" opacity="0.6509803921568628" d="M 1219.5 689 L 1227 689.5 L 1219.5 690 L 1219.5 689 Z " /><path fill="rgb(0,0,0)" stroke="rgb(0,0,0)" stroke-width="1" opacity="0.6509803921568628" d="M 396.5 690 L 399 690.5 L 396.5 691 L 396.5 690 Z " /><path fill="rgb(0,0,0)" stroke="rgb(0,0,0)" stroke-width="1" opacity="0.6509803921568628" d="M 428.5 690 L 429.5 692 L 428.5 690 Z " /><path fill="rgb(0,0,0)" stroke="rgb(0,0,0)" stroke-width="1" opacity="0.6509803921568628" d="M 1203.5 690 L 1211 690.5 L 1203.5 691 L 1203.5 690 Z " /><path fill="rgb(0,0,0)" stroke="rgb(0,0,0)" stroke-width="1" opacity="0.6509803921568628" d="M 989.5 691 L 990 693.5 L 989 693.5 L 989.5 691 Z " /><path fill="rgb(0,0,0)" stroke="rgb(0,0,0)" stroke-width="1" opacity="0.6509803921568628" d="M 1283.5 691 L 1284 694.5 L 1283 694.5 L 1283.5 691 Z " /><path fill="rgb(0,0,0)" stroke="rgb(0,0,0)" stroke-width="1" opacity="0.6509803921568628" d="M 1049.5 692 L 1050.5 694 L 1049.5 692 Z " /><path fill="rgb(0,0,0)" stroke="rgb(0,0,0)" stroke-width="1" opacity="0.6509803921568628" d="M 1571.5 692 L 1572 727.5 L 1571 727.5 L 1571.5 692 Z " /><path fill="rgb(0,0,0)" stroke="rgb(0,0,0)" stroke-width="1" opacity="0.6509803921568628" d="M 435.5 694 L 436.5 696 L 435.5 694 Z " /><path fill="rgb(0,0,0)" stroke="rgb(0,0,0)" stroke-width="1" opacity="0.6509803921568628" d="M 1158.5 694 L 1159 699.5 L 1158 699.5 L 1158.5 694 Z " /><path fill="rgb(0,0,0)" stroke="rgb(0,0,0)" stroke-width="1" opacity="0.6509803921568628" d="M 1446.5 694 L 1447 711.5 L 1446 711.5 L 1446.5 694 Z " /><path fill="rgb(0,0,0)" stroke="rgb(0,0,0)" stroke-width="1" opacity="0.6509803921568628" d="M 1512.5 694 L 1513 742.5 L 1512 742.5 L 1512.5 694 Z " /><path fill="rgb(0,0,0)" stroke="rgb(0,0,0)" stroke-width="1" opacity="0.6509803921568628" d="M 880.5 695 L 881 698.5 L 880 698.5 L 880.5 695 Z " /><path fill="rgb(0,0,0)" stroke="rgb(0,0,0)" stroke-width="1" opacity="0.6509803921568628" d="M 912.5 695 L 913 707.5 L 912 707.5 L 912.5 695 Z " /><path fill="rgb(0,0,0)" stroke="rgb(0,0,0)" stroke-width="1" opacity="0.6509803921568628" d="M 1022.5 695 L 1023 707.5 L 1022 707.5 L 1022.5 695 Z " /><path fill="rgb(0,0,0)" stroke="rgb(0,0,0)" stroke-width="1" opacity="0.6509803921568628" d="M 1413.5 695 L 1414 697.5 L 1413 697.5 L 1413.5 695 Z " /><path fill="rgb(0,0,0)" stroke="rgb(0,0,0)" stroke-width="1" opacity="0.6509803921568628" d="M 990.5 697 L 991 701.5 L 990 701.5 L 990.5 697 Z " /><path fill="rgb(0,0,0)" stroke="rgb(0,0,0)" stroke-width="1" opacity="0.6509803921568628" d="M 577.5 698 L 580 698.5 L 577.5 699 L 577.5 698 Z " /><path fill="rgb(0,0,0)" stroke="rgb(0,0,0)" stroke-width="1" opacity="0.6509803921568628" d="M 759.5 699 L 755.5 704 L 759.5 699 Z " /><path fill="rgb(0,0,0)" stroke="rgb(0,0,0)" stroke-width="1" opacity="0.6509803921568628" d="M 1125.5 699 L 1126.5 701 L 1125.5 699 Z " /><path fill="rgb(0,0,0)" stroke="rgb(0,0,0)" stroke-width="1" opacity="0.6509803921568628" d="M 1281.5 699 L 1277.5 704 L 1281.5 699 Z " /><path fill="rgb(0,0,0)" stroke="rgb(0,0,0)" stroke-width="1" opacity="0.6509803921568628" d="M 400.5 700 L 401.5 702 L 400.5 700 Z " /><path fill="rgb(0,0,0)" stroke="rgb(0,0,0)" stroke-width="1" opacity="0.6509803921568628" d="M 495.5 701 L 498 701.5 L 495.5 702 L 495.5 701 Z " /><path fill="rgb(0,0,0)" stroke="rgb(0,0,0)" stroke-width="1" opacity="0.6509803921568628" d="M 562.5 701 L 565 701.5 L 562.5 702 L 562.5 701 Z " /><path fill="rgb(0,0,0)" stroke="rgb(0,0,0)" stroke-width="1" opacity="0.6509803921568628" d="M 1058.5 701 L 1059.5 703 L 1058.5 701 Z " /><path fill="rgb(0,0,0)" stroke="rgb(0,0,0)" stroke-width="1" opacity="0.6509803921568628" d="M 501.5 702 L 505 702.5 L 501.5 703 L 501.5 702 Z " /><path fill="rgb(0,0,0)" stroke="rgb(0,0,0)" stroke-width="1" opacity="0.6509803921568628" d="M 556.5 702 L 559 702.5 L 556.5 703 L 556.5 702 Z " /><path fill="rgb(0,0,0)" stroke="rgb(0,0,0)" stroke-width="1" opacity="0.6509803921568628" d="M 829.5 702 L 828.5 704 L 829.5 702 Z " /><path fill="rgb(0,0,0)" stroke="rgb(0,0,0)" stroke-width="1" opacity="0.6509803921568628" d="M 402.5 703 L 403.5 705 L 402.5 703 Z " /><path fill="rgb(0,0,0)" stroke="rgb(0,0,0)" stroke-width="1" opacity="0.6509803921568628" d="M 509.5 703 L 514 703.5 L 509.5 704 L 509.5 703 Z " /><path fill="rgb(0,0,0)" stroke="rgb(0,0,0)" stroke-width="1" opacity="0.6509803921568628" d="M 546.5 703 L 551 703.5 L 546.5 704 L 546.5 703 Z " /><path fill="rgb(0,0,0)" stroke="rgb(0,0,0)" stroke-width="1" opacity="0.6509803921568628" d="M 1414.5 703 L 1415 717.5 L 1414 717.5 L 1414.5 703 Z " /><path fill="rgb(0,0,0)" stroke="rgb(0,0,0)" stroke-width="1" opacity="0.6509803921568628" d="M 518.5 704 L 539 704.5 L 518.5 705 L 518.5 704 Z " /><path fill="rgb(0,0,0)" stroke="rgb(0,0,0)" stroke-width="1" opacity="0.6509803921568628" d="M 1062.5 704 L 1063.5 706 L 1062.5 704 Z " /><path fill="rgb(0,0,0)" stroke="rgb(0,0,0)" stroke-width="1" opacity="0.6509803921568628" d="M 1132.5 705 L 1133.5 707 L 1132.5 705 Z " /><path fill="rgb(0,0,0)" stroke="rgb(0,0,0)" stroke-width="1" opacity="0.6509803921568628" d="M 1264.5 705 L 1269 705.5 L 1264.5 706 L 1264.5 705 Z " /><path fill="rgb(0,0,0)" stroke="rgb(0,0,0)" stroke-width="1" opacity="0.6509803921568628" d="M 751.5 706 L 750.5 708 L 751.5 706 Z " /><path fill="rgb(0,0,0)" stroke="rgb(0,0,0)" stroke-width="1" opacity="0.6509803921568628" d="M 1247.5 706 L 1256 706.5 L 1247.5 707 L 1247.5 706 Z " /><path fill="rgb(0,0,0)" stroke="rgb(0,0,0)" stroke-width="1" opacity="0.6509803921568628" d="M 377.5 707 L 378 710.5 L 377 710.5 L 377.5 707 Z " /><path fill="rgb(0,0,0)" stroke="rgb(0,0,0)" stroke-width="1" opacity="0.6509803921568628" d="M 405.5 707 L 406.5 709 L 405.5 707 Z " /><path fill="rgb(0,0,0)" stroke="rgb(0,0,0)" stroke-width="1" opacity="0.6509803921568628" d="M 1067.5 707 L 1068.5 709 L 1067.5 707 Z " /><path fill="rgb(0,0,0)" stroke="rgb(0,0,0)" stroke-width="1" opacity="0.6509803921568628" d="M 1228.5 707 L 1236 707.5 L 1228.5 708 L 1228.5 707 Z " /><path fill="rgb(0,0,0)" stroke="rgb(0,0,0)" stroke-width="1" opacity="0.6509803921568628" d="M 1213.5 708 L 1219 708.5 L 1213.5 709 L 1213.5 708 Z " /><path fill="rgb(0,0,0)" stroke="rgb(0,0,0)" stroke-width="1" opacity="0.6509803921568628" d="M 824.5 709 L 823.5 711 L 824.5 709 Z " /><path fill="rgb(0,0,0)" stroke="rgb(0,0,0)" stroke-width="1" opacity="0.6509803921568628" d="M 1135.5 709 L 1136.5 711 L 1135.5 709 Z " /><path fill="rgb(0,0,0)" stroke="rgb(0,0,0)" stroke-width="1" opacity="0.6509803921568628" d="M 1198.5 709 L 1205 709.5 L 1198.5 710 L 1198.5 709 Z " /><path fill="rgb(0,0,0)" stroke="rgb(0,0,0)" stroke-width="1" opacity="0.6509803921568628" d="M 746.5 710 L 745.5 712 L 746.5 710 Z " /><path fill="rgb(0,0,0)" stroke="rgb(0,0,0)" stroke-width="1" opacity="0.6509803921568628" d="M 1158.5 710 L 1159 715.5 L 1158 715.5 L 1158.5 710 Z " /><path fill="rgb(0,0,0)" stroke="rgb(0,0,0)" stroke-width="1" opacity="0.6509803921568628" d="M 408.5 711 L 409.5 713 L 408.5 711 Z " /><path fill="rgb(0,0,0)" stroke="rgb(0,0,0)" stroke-width="1" opacity="0.6509803921568628" d="M 742.5 713 L 741.5 715 L 742.5 713 Z " /><path fill="rgb(0,0,0)" stroke="rgb(0,0,0)" stroke-width="1" opacity="0.6509803921568628" d="M 913.5 713 L 914 715.5 L 913 715.5 L 913.5 713 Z " /><path fill="rgb(0,0,0)" stroke="rgb(0,0,0)" stroke-width="1" opacity="0.6509803921568628" d="M 1021.5 713 L 1022 716.5 L 1021 716.5 L 1021.5 713 Z " /><path fill="rgb(0,0,0)" stroke="rgb(0,0,0)" stroke-width="1" opacity="0.6509803921568628" d="M 1192.5 714 L 1193 716.5 L 1192 716.5 L 1192.5 714 Z " /><path fill="rgb(0,0,0)" stroke="rgb(0,0,0)" stroke-width="1" opacity="0.6509803921568628" d="M 412.5 716 L 417.5 722 L 412.5 716 Z " /><path fill="rgb(0,0,0)" stroke="rgb(0,0,0)" stroke-width="1" opacity="0.6509803921568628" d="M 738.5 716 L 737.5 718 L 738.5 716 Z " /><path fill="rgb(0,0,0)" stroke="rgb(0,0,0)" stroke-width="1" opacity="0.6509803921568628" d="M 880.5 716 L 881 719.5 L 880 719.5 L 880.5 716 Z " /><path fill="rgb(0,0,0)" stroke="rgb(0,0,0)" stroke-width="1" opacity="0.6509803921568628" d="M 990.5 716 L 991 721.5 L 990 721.5 L 990.5 716 Z " /><path fill="rgb(0,0,0)" stroke="rgb(0,0,0)" stroke-width="1" opacity="0.6509803921568628" d="M 1445.5 716 L 1446 718.5 L 1445 718.5 L 1445.5 716 Z " /><path fill="rgb(0,0,0)" stroke="rgb(0,0,0)" stroke-width="1" opacity="0.6509803921568628" d="M 378.5 717 L 379 719.5 L 378 719.5 L 378.5 717 Z " /><path fill="rgb(0,0,0)" stroke="rgb(0,0,0)" stroke-width="1" opacity="0.6509803921568628" d="M 495.5 717 L 498 717.5 L 495.5 718 L 495.5 717 Z " /><path fill="rgb(0,0,0)" stroke="rgb(0,0,0)" stroke-width="1" opacity="0.6509803921568628" d="M 818.5 717 L 817.5 719 L 818.5 717 Z " /><path fill="rgb(0,0,0)" stroke="rgb(0,0,0)" stroke-width="1" opacity="0.6509803921568628" d="M 501.5 718 L 505 718.5 L 501.5 719 L 501.5 718 Z " /><path fill="rgb(0,0,0)" stroke="rgb(0,0,0)" stroke-width="1" opacity="0.6509803921568628" d="M 572.5 718 L 575 718.5 L 572.5 719 L 572.5 718 Z " /><path fill="rgb(0,0,0)" stroke="rgb(0,0,0)" stroke-width="1" opacity="0.6509803921568628" d="M 914.5 718 L 915 720.5 L 914 720.5 L 914.5 718 Z " /><path fill="rgb(0,0,0)" stroke="rgb(0,0,0)" stroke-width="1" opacity="0.6509803921568628" d="M 508.5 719 L 512 719.5 L 508.5 720 L 508.5 719 Z " /><path fill="rgb(0,0,0)" stroke="rgb(0,0,0)" stroke-width="1" opacity="0.6509803921568628" d="M 564.5 719 L 568 719.5 L 564.5 720 L 564.5 719 Z " /><path fill="rgb(0,0,0)" stroke="rgb(0,0,0)" stroke-width="1" opacity="0.6509803921568628" d="M 517.5 720 L 523 720.5 L 517.5 721 L 517.5 720 Z " /><path fill="rgb(0,0,0)" stroke="rgb(0,0,0)" stroke-width="1" opacity="0.6509803921568628" d="M 553.5 720 L 559 720.5 L 553.5 721 L 553.5 720 Z " /><path fill="rgb(0,0,0)" stroke="rgb(0,0,0)" stroke-width="1" opacity="0.6509803921568628" d="M 815.5 721 L 813.5 724 L 815.5 721 Z " /><path fill="rgb(0,0,0)" stroke="rgb(0,0,0)" stroke-width="1" opacity="0.6509803921568628" d="M 379.5 722 L 380 724.5 L 379 724.5 L 379.5 722 Z " /><path fill="rgb(0,0,0)" stroke="rgb(0,0,0)" stroke-width="1" opacity="0.6509803921568628" d="M 1413.5 723 L 1414 725.5 L 1413 725.5 L 1413.5 723 Z " /><path fill="rgb(0,0,0)" stroke="rgb(0,0,0)" stroke-width="1" opacity="0.6509803921568628" d="M 726.5 724 L 725.5 726 L 726.5 724 Z " /><path fill="rgb(0,0,0)" stroke="rgb(0,0,0)" stroke-width="1" opacity="0.6509803921568628" d="M 1143.5 725 L 1144 728.5 L 1143 728.5 L 1143.5 725 Z " /><path fill="rgb(0,0,0)" stroke="rgb(0,0,0)" stroke-width="1" opacity="0.6509803921568628" d="M 423.5 727 L 426.5 731 L 423.5 727 Z " /><path fill="rgb(0,0,0)" stroke="rgb(0,0,0)" stroke-width="1" opacity="0.6509803921568628" d="M 721.5 727 L 720.5 729 L 721.5 727 Z " /><path fill="rgb(0,0,0)" stroke="rgb(0,0,0)" stroke-width="1" opacity="0.6509803921568628" d="M 810.5 727 L 807.5 731 L 810.5 727 Z " /><path fill="rgb(0,0,0)" stroke="rgb(0,0,0)" stroke-width="1" opacity="0.6509803921568628" d="M 1109.5 728 L 1114.5 734 L 1109.5 728 Z " /><path fill="rgb(0,0,0)" stroke="rgb(0,0,0)" stroke-width="1" opacity="0.6509803921568628" d="M 1042.5 729 L 1038.5 734 L 1042.5 729 Z " /><path fill="rgb(0,0,0)" stroke="rgb(0,0,0)" stroke-width="1" opacity="0.6509803921568628" d="M 1058.5 729 L 1059.5 731 L 1058.5 729 Z " /><path fill="rgb(0,0,0)" stroke="rgb(0,0,0)" stroke-width="1" opacity="0.6509803921568628" d="M 712.5 732 L 711.5 734 L 712.5 732 Z " /><path fill="rgb(0,0,0)" stroke="rgb(0,0,0)" stroke-width="1" opacity="0.6509803921568628" d="M 1481.5 732 L 1482 744.5 L 1481 744.5 L 1481.5 732 Z " /><path fill="rgb(0,0,0)" stroke="rgb(0,0,0)" stroke-width="1" opacity="0.6509803921568628" d="M 431.5 734 L 432.5 736 L 431.5 734 Z " /><path fill="rgb(0,0,0)" stroke="rgb(0,0,0)" stroke-width="1" opacity="0.6509803921568628" d="M 1199.5 735 L 1200.5 737 L 1199.5 735 Z " /><path fill="rgb(0,0,0)" stroke="rgb(0,0,0)" stroke-width="1" opacity="0.6509803921568628" d="M 1143.5 738 L 1144 740.5 L 1143 740.5 L 1143.5 738 Z " /><path fill="rgb(0,0,0)" stroke="rgb(0,0,0)" stroke-width="1" opacity="0.6509803921568628" d="M 1201.5 738 L 1202.5 740 L 1201.5 738 Z " /><path fill="rgb(0,0,0)" stroke="rgb(0,0,0)" stroke-width="1" opacity="0.6509803921568628" d="M 984.5 739 L 983.5 741 L 984.5 739 Z " /><path fill="rgb(0,0,0)" stroke="rgb(0,0,0)" stroke-width="1" opacity="0.6509803921568628" d="M 439.5 740 L 440.5 742 L 439.5 740 Z " /><path fill="rgb(0,0,0)" stroke="rgb(0,0,0)" stroke-width="1" opacity="0.6509803921568628" d="M 798.5 740 L 795.5 744 L 798.5 740 Z " /><path fill="rgb(0,0,0)" stroke="rgb(0,0,0)" stroke-width="1" opacity="0.6509803921568628" d="M 1035.5 740 L 1036 744.5 L 1035 744.5 L 1035.5 740 Z " /><path fill="rgb(0,0,0)" stroke="rgb(0,0,0)" stroke-width="1" opacity="0.6509803921568628" d="M 1266.5 740 L 1264.5 743 L 1266.5 740 Z " /><path fill="rgb(0,0,0)" stroke="rgb(0,0,0)" stroke-width="1" opacity="0.6509803921568628" d="M 442.5 742 L 443.5 744 L 442.5 742 Z " /><path fill="rgb(0,0,0)" stroke="rgb(0,0,0)" stroke-width="1" opacity="0.6509803921568628" d="M 924.5 742 L 927.5 746 L 924.5 742 Z " /><path fill="rgb(0,0,0)" stroke="rgb(0,0,0)" stroke-width="1" opacity="0.6509803921568628" d="M 1011.5 742 L 1010.5 744 L 1011.5 742 Z " /><path fill="rgb(0,0,0)" stroke="rgb(0,0,0)" stroke-width="1" opacity="0.6509803921568628" d="M 1166.5 742 L 1167.5 744 L 1166.5 742 Z " /><path fill="rgb(0,0,0)" stroke="rgb(0,0,0)" stroke-width="1" opacity="0.6509803921568628" d="M 888.5 744 L 889.5 746 L 888.5 744 Z " /><path fill="rgb(0,0,0)" stroke="rgb(0,0,0)" stroke-width="1" opacity="0.6509803921568628" d="M 1282.5 744 L 1283 746.5 L 1282 746.5 L 1282.5 744 Z " /><path fill="rgb(0,0,0)" stroke="rgb(0,0,0)" stroke-width="1" opacity="0.6509803921568628" d="M 1570.5 744 L 1571 749.5 L 1570 749.5 L 1570.5 744 Z " /><path fill="rgb(0,0,0)" stroke="rgb(0,0,0)" stroke-width="1" opacity="0.6509803921568628" d="M 1602.5 744 L 1603 749.5 L 1602 749.5 L 1602.5 744 Z " /><path fill="rgb(0,0,0)" stroke="rgb(0,0,0)" stroke-width="1" opacity="0.6509803921568628" d="M 980.5 745 L 974.5 752 L 980.5 745 Z " /><path fill="rgb(0,0,0)" stroke="rgb(0,0,0)" stroke-width="1" opacity="0.6509803921568628" d="M 1009.5 745 L 1008.5 747 L 1009.5 745 Z " /><path fill="rgb(0,0,0)" stroke="rgb(0,0,0)" stroke-width="1" opacity="0.6509803921568628" d="M 1260.5 745 L 1258.5 748 L 1260.5 745 Z " /><path fill="rgb(0,0,0)" stroke="rgb(0,0,0)" stroke-width="1" opacity="0.6509803921568628" d="M 1405.5 745 L 1398.5 753 L 1405.5 745 Z " /><path fill="rgb(0,0,0)" stroke="rgb(0,0,0)" stroke-width="1" opacity="0.6509803921568628" d="M 1434.5 745 L 1433.5 747 L 1434.5 745 Z " /><path fill="rgb(0,0,0)" stroke="rgb(0,0,0)" stroke-width="1" opacity="0.6509803921568628" d="M 1209.5 746 L 1210.5 748 L 1209.5 746 Z " /><path fill="rgb(0,0,0)" stroke="rgb(0,0,0)" stroke-width="1" opacity="0.6509803921568628" d="M 1068.5 747 L 1073.5 753 L 1068.5 747 Z " /><path fill="rgb(0,0,0)" stroke="rgb(0,0,0)" stroke-width="1" opacity="0.6509803921568628" d="M 1169.5 747 L 1170.5 749 L 1169.5 747 Z " /><path fill="rgb(0,0,0)" stroke="rgb(0,0,0)" stroke-width="1" opacity="0.6509803921568628" d="M 452.5 748 L 453.5 750 L 452.5 748 Z " /><path fill="rgb(0,0,0)" stroke="rgb(0,0,0)" stroke-width="1" opacity="0.6509803921568628" d="M 930.5 748 L 932.5 751 L 930.5 748 Z " /><path fill="rgb(0,0,0)" stroke="rgb(0,0,0)" stroke-width="1" opacity="0.6509803921568628" d="M 1115.5 748 L 1114.5 750 L 1115.5 748 Z " /><path fill="rgb(0,0,0)" stroke="rgb(0,0,0)" stroke-width="1" opacity="0.6509803921568628" d="M 788.5 749 L 785.5 753 L 788.5 749 Z " /><path fill="rgb(0,0,0)" stroke="rgb(0,0,0)" stroke-width="1" opacity="0.6509803921568628" d="M 1006.5 749 L 1005.5 751 L 1006.5 749 Z " /><path fill="rgb(0,0,0)" stroke="rgb(0,0,0)" stroke-width="1" opacity="0.6509803921568628" d="M 1140.5 749 L 1141 750.5 L 1139 751.5 L 1140.5 749 Z " /><path fill="rgb(0,0,0)" stroke="rgb(0,0,0)" stroke-width="1" opacity="0.6509803921568628" d="M 1282.5 749 L 1283 751.5 L 1282 751.5 L 1282.5 749 Z " /><path fill="rgb(0,0,0)" stroke="rgb(0,0,0)" stroke-width="1" opacity="0.6509803921568628" d="M 1356.5 749 L 1357.5 751 L 1356.5 749 Z " /><path fill="rgb(0,0,0)" stroke="rgb(0,0,0)" stroke-width="1" opacity="0.6509803921568628" d="M 1431.5 749 L 1430.5 751 L 1431.5 749 Z " /><path fill="rgb(0,0,0)" stroke="rgb(0,0,0)" stroke-width="1" opacity="0.6509803921568628" d="M 892.5 750 L 893.5 752 L 892.5 750 Z " /><path fill="rgb(0,0,0)" stroke="rgb(0,0,0)" stroke-width="1" opacity="0.6509803921568628" d="M 1171.5 750 L 1172.5 752 L 1171.5 750 Z " /><path fill="rgb(0,0,0)" stroke="rgb(0,0,0)" stroke-width="1" opacity="0.6509803921568628" d="M 1480.5 750 L 1481 752.5 L 1480 752.5 L 1480.5 750 Z " /><path fill="rgb(0,0,0)" stroke="rgb(0,0,0)" stroke-width="1" opacity="0.6509803921568628" d="M 1513.5 750 L 1514 752.5 L 1513 752.5 L 1513.5 750 Z " /><path fill="rgb(0,0,0)" stroke="rgb(0,0,0)" stroke-width="1" opacity="0.6509803921568628" d="M 1112.5 751 L 1110.5 754 L 1112.5 751 Z " /><path fill="rgb(0,0,0)" stroke="rgb(0,0,0)" stroke-width="1" opacity="0.6509803921568628" d="M 972.5 752 L 971.5 754 L 972.5 752 Z " /><path fill="rgb(0,0,0)" stroke="rgb(0,0,0)" stroke-width="1" opacity="0.6509803921568628" d="M 1039.5 753 L 1041.5 756 L 1039.5 753 Z " /><path fill="rgb(0,0,0)" stroke="rgb(0,0,0)" stroke-width="1" opacity="0.6509803921568628" d="M 392.5 754 L 393.5 756 L 392.5 754 Z " /><path fill="rgb(0,0,0)" stroke="rgb(0,0,0)" stroke-width="1" opacity="0.6509803921568628" d="M 895.5 754 L 902.5 762 L 895.5 754 Z " /><path fill="rgb(0,0,0)" stroke="rgb(0,0,0)" stroke-width="1" opacity="0.6509803921568628" d="M 1002.5 754 L 997.5 760 L 1002.5 754 Z " /><path fill="rgb(0,0,0)" stroke="rgb(0,0,0)" stroke-width="1" opacity="0.6509803921568628" d="M 1229.5 754 L 1237 754.5 L 1229.5 755 L 1229.5 754 Z " /><path fill="rgb(0,0,0)" stroke="rgb(0,0,0)" stroke-width="1" opacity="0.6509803921568628" d="M 1427.5 754 L 1422.5 760 L 1427.5 754 Z " /><path fill="rgb(0,0,0)" stroke="rgb(0,0,0)" stroke-width="1" opacity="0.6509803921568628" d="M 781.5 755 L 779.5 758 L 781.5 755 Z " /><path fill="rgb(0,0,0)" stroke="rgb(0,0,0)" stroke-width="1" opacity="0.6509803921568628" d="M 1137.5 755 L 1136.5 757 L 1137.5 755 Z " /><path fill="rgb(0,0,0)" stroke="rgb(0,0,0)" stroke-width="1" opacity="0.6509803921568628" d="M 1175.5 755 L 1181.5 762 L 1175.5 755 Z " /><path fill="rgb(0,0,0)" stroke="rgb(0,0,0)" stroke-width="1" opacity="0.6509803921568628" d="M 1279.5 756 L 1274.5 762 L 1279.5 756 Z " /><path fill="rgb(0,0,0)" stroke="rgb(0,0,0)" stroke-width="1" opacity="0.6509803921568628" d="M 1568.5 756 L 1567.5 758 L 1568.5 756 Z " /><path fill="rgb(0,0,0)" stroke="rgb(0,0,0)" stroke-width="1" opacity="0.6509803921568628" d="M 1604.5 756 L 1605.5 758 L 1604.5 756 Z " /><path fill="rgb(0,0,0)" stroke="rgb(0,0,0)" stroke-width="1" opacity="0.6509803921568628" d="M 394.5 757 L 395.5 759 L 394.5 757 Z " /><path fill="rgb(0,0,0)" stroke="rgb(0,0,0)" stroke-width="1" opacity="0.6509803921568628" d="M 956.5 757 L 961 757.5 L 956.5 758 L 956.5 757 Z " /><path fill="rgb(0,0,0)" stroke="rgb(0,0,0)" stroke-width="1" opacity="0.6509803921568628" d="M 1374.5 757 L 1380 757.5 L 1374.5 758 L 1374.5 757 Z " /><path fill="rgb(0,0,0)" stroke="rgb(0,0,0)" stroke-width="1" opacity="0.6509803921568628" d="M 1382.5 757 L 1386 757.5 L 1382.5 758 L 1382.5 757 Z " /><path fill="rgb(0,0,0)" stroke="rgb(0,0,0)" stroke-width="1" opacity="0.6509803921568628" d="M 1467.5 757 L 1470 757.5 L 1467.5 758 L 1467.5 757 Z " /><path fill="rgb(0,0,0)" stroke="rgb(0,0,0)" stroke-width="1" opacity="0.6509803921568628" d="M 1524.5 757 L 1527 757.5 L 1524.5 758 L 1524.5 757 Z " /><path fill="rgb(0,0,0)" stroke="rgb(0,0,0)" stroke-width="1" opacity="0.6509803921568628" d="M 1556.5 757 L 1560 757.5 L 1556.5 758 L 1556.5 757 Z " /><path fill="rgb(0,0,0)" stroke="rgb(0,0,0)" stroke-width="1" opacity="0.6509803921568628" d="M 1613.5 757 L 1617 757.5 L 1613.5 758 L 1613.5 757 Z " /><path fill="rgb(0,0,0)" stroke="rgb(0,0,0)" stroke-width="1" opacity="0.6509803921568628" d="M 1043.5 758 L 1046.5 762 L 1043.5 758 Z " /><path fill="rgb(0,0,0)" stroke="rgb(0,0,0)" stroke-width="1" opacity="0.6509803921568628" d="M 1091.5 758 L 1095 758.5 L 1091.5 759 L 1091.5 758 Z " /><path fill="rgb(0,0,0)" stroke="rgb(0,0,0)" stroke-width="1" opacity="0.6509803921568628" d="M 1461.5 759 L 1460.5 761 L 1461.5 759 Z " /><path fill="rgb(0,0,0)" stroke="rgb(0,0,0)" stroke-width="1" opacity="0.6509803921568628" d="M 1532.5 759 L 1535 762.5 L 1534 762.5 L 1532.5 759 Z " /><path fill="rgb(0,0,0)" stroke="rgb(0,0,0)" stroke-width="1" opacity="0.6509803921568628" d="M 775.5 760 L 774.5 762 L 775.5 760 Z " /><path fill="rgb(0,0,0)" stroke="rgb(0,0,0)" stroke-width="1" opacity="0.6509803921568628" d="M 397.5 761 L 398.5 763 L 397.5 761 Z " /><path fill="rgb(0,0,0)" stroke="rgb(0,0,0)" stroke-width="1" opacity="0.6509803921568628" d="M 993.5 762 L 992.5 764 L 993.5 762 Z " /><path fill="rgb(0,0,0)" stroke="rgb(0,0,0)" stroke-width="1" opacity="0.6509803921568628" d="M 1418.5 762 L 1417.5 764 L 1418.5 762 Z " /><path fill="rgb(0,0,0)" stroke="rgb(0,0,0)" stroke-width="1" opacity="0.6509803921568628" d="M 771.5 763 L 769.5 766 L 771.5 763 Z " /><path fill="rgb(0,0,0)" stroke="rgb(0,0,0)" stroke-width="1" opacity="0.6509803921568628" d="M 905.5 763 L 906.5 765 L 905.5 763 Z " /><path fill="rgb(0,0,0)" stroke="rgb(0,0,0)" stroke-width="1" opacity="0.6509803921568628" d="M 1049.5 763 L 1051.5 766 L 1049.5 763 Z " /><path fill="rgb(0,0,0)" stroke="rgb(0,0,0)" stroke-width="1" opacity="0.6509803921568628" d="M 1184.5 763 L 1185.5 765 L 1184.5 763 Z " /><path fill="rgb(0,0,0)" stroke="rgb(0,0,0)" stroke-width="1" opacity="0.6509803921568628" d="M 1128.5 764 L 1127.5 766 L 1128.5 764 Z " /><path fill="rgb(0,0,0)" stroke="rgb(0,0,0)" stroke-width="1" opacity="0.6509803921568628" d="M 495.5 765 L 498 765.5 L 495.5 766 L 495.5 765 Z " /><path fill="rgb(0,0,0)" stroke="rgb(0,0,0)" stroke-width="1" opacity="0.6509803921568628" d="M 1414.5 765 L 1413.5 767 L 1414.5 765 Z " /><path fill="rgb(0,0,0)" stroke="rgb(0,0,0)" stroke-width="1" opacity="0.6509803921568628" d="M 1535.5 765 L 1536 767.5 L 1535 767.5 L 1535.5 765 Z " /><path fill="rgb(0,0,0)" stroke="rgb(0,0,0)" stroke-width="1" opacity="0.6509803921568628" d="M 500.5 766 L 503 766.5 L 500.5 767 L 500.5 766 Z " /><path fill="rgb(0,0,0)" stroke="rgb(0,0,0)" stroke-width="1" opacity="0.6509803921568628" d="M 767.5 766 L 766.5 768 L 767.5 766 Z " /><path fill="rgb(0,0,0)" stroke="rgb(0,0,0)" stroke-width="1" opacity="0.6509803921568628" d="M 402.5 767 L 409.5 775 L 402.5 767 Z " /><path fill="rgb(0,0,0)" stroke="rgb(0,0,0)" stroke-width="1" opacity="0.6509803921568628" d="M 505.5 767 L 508 767.5 L 505.5 768 L 505.5 767 Z " /><path fill="rgb(0,0,0)" stroke="rgb(0,0,0)" stroke-width="1" opacity="0.6509803921568628" d="M 605.5 767 L 608 767.5 L 605.5 768 L 605.5 767 Z " /><path fill="rgb(0,0,0)" stroke="rgb(0,0,0)" stroke-width="1" opacity="0.6509803921568628" d="M 911.5 767 L 912.5 769 L 911.5 767 Z " /><path fill="rgb(0,0,0)" stroke="rgb(0,0,0)" stroke-width="1" opacity="0.6509803921568628" d="M 1190.5 767 L 1191.5 769 L 1190.5 767 Z " /><path fill="rgb(0,0,0)" stroke="rgb(0,0,0)" stroke-width="1" opacity="0.6509803921568628" d="M 512.5 768 L 516 768.5 L 512.5 769 L 512.5 768 Z " /><path fill="rgb(0,0,0)" stroke="rgb(0,0,0)" stroke-width="1" opacity="0.6509803921568628" d="M 597.5 768 L 601 768.5 L 597.5 769 L 597.5 768 Z " /><path fill="rgb(0,0,0)" stroke="rgb(0,0,0)" stroke-width="1" opacity="0.6509803921568628" d="M 521.5 769 L 525 769.5 L 521.5 770 L 521.5 769 Z " /><path fill="rgb(0,0,0)" stroke="rgb(0,0,0)" stroke-width="1" opacity="0.6509803921568628" d="M 588.5 769 L 592 769.5 L 588.5 770 L 588.5 769 Z " /><path fill="rgb(0,0,0)" stroke="rgb(0,0,0)" stroke-width="1" opacity="0.6509803921568628" d="M 763.5 769 L 762.5 771 L 763.5 769 Z " /><path fill="rgb(0,0,0)" stroke="rgb(0,0,0)" stroke-width="1" opacity="0.6509803921568628" d="M 1058.5 769 L 1061 770.5 L 1059.5 771 L 1058.5 769 Z " /><path fill="rgb(0,0,0)" stroke="rgb(0,0,0)" stroke-width="1" opacity="0.6509803921568628" d="M 530.5 770 L 537 770.5 L 530.5 771 L 530.5 770 Z " /><path fill="rgb(0,0,0)" stroke="rgb(0,0,0)" stroke-width="1" opacity="0.6509803921568628" d="M 574.5 770 L 582 770.5 L 574.5 771 L 574.5 770 Z " /><path fill="rgb(0,0,0)" stroke="rgb(0,0,0)" stroke-width="1" opacity="0.6509803921568628" d="M 1345.5 770 L 1346 800.5 L 1345 800.5 L 1345.5 770 Z " /><path fill="rgb(0,0,0)" stroke="rgb(0,0,0)" stroke-width="1" opacity="0.6509803921568628" d="M 551.5 771 L 563 771.5 L 551.5 772 L 551.5 771 Z " /><path fill="rgb(0,0,0)" stroke="rgb(0,0,0)" stroke-width="1" opacity="0.6509803921568628" d="M 760.5 771 L 759.5 773 L 760.5 771 Z " /><path fill="rgb(0,0,0)" stroke="rgb(0,0,0)" stroke-width="1" opacity="0.6509803921568628" d="M 1460.5 771 L 1462.5 774 L 1460.5 771 Z " /><path fill="rgb(0,0,0)" stroke="rgb(0,0,0)" stroke-width="1" opacity="0.6509803921568628" d="M 1549.5 771 L 1550.5 773 L 1549.5 771 Z " /><path fill="rgb(0,0,0)" stroke="rgb(0,0,0)" stroke-width="1" opacity="0.6509803921568628" d="M 1623.5 771 L 1622.5 773 L 1623.5 771 Z " /><path fill="rgb(0,0,0)" stroke="rgb(0,0,0)" stroke-width="1" opacity="0.6509803921568628" d="M 1490.5 773 L 1505 773.5 L 1490.5 774 L 1490.5 773 Z " /><path fill="rgb(0,0,0)" stroke="rgb(0,0,0)" stroke-width="1" opacity="0.6509803921568628" d="M 1580.5 773 L 1594 773.5 L 1580.5 774 L 1580.5 773 Z " /><path fill="rgb(0,0,0)" stroke="rgb(0,0,0)" stroke-width="1" opacity="0.6509803921568628" d="M 1357.5 774 L 1360 774.5 L 1357.5 775 L 1357.5 774 Z " /><path fill="rgb(0,0,0)" stroke="rgb(0,0,0)" stroke-width="1" opacity="0.6509803921568628" d="M 1482.5 774 L 1486 774.5 L 1482.5 775 L 1482.5 774 Z " /><path fill="rgb(0,0,0)" stroke="rgb(0,0,0)" stroke-width="1" opacity="0.6509803921568628" d="M 1509.5 774 L 1512 774.5 L 1509.5 775 L 1509.5 774 Z " /><path fill="rgb(0,0,0)" stroke="rgb(0,0,0)" stroke-width="1" opacity="0.6509803921568628" d="M 1571.5 774 L 1576 774.5 L 1571.5 775 L 1571.5 774 Z " /><path fill="rgb(0,0,0)" stroke="rgb(0,0,0)" stroke-width="1" opacity="0.6509803921568628" d="M 1598.5 774 L 1602 774.5 L 1598.5 775 L 1598.5 774 Z " /><path fill="rgb(0,0,0)" stroke="rgb(0,0,0)" stroke-width="1" opacity="0.6509803921568628" d="M 932.5 775 L 935 775.5 L 932.5 776 L 932.5 775 Z " /><path fill="rgb(0,0,0)" stroke="rgb(0,0,0)" stroke-width="1" opacity="0.6509803921568628" d="M 1103.5 775 L 1106 775.5 L 1103.5 776 L 1103.5 775 Z " /><path fill="rgb(0,0,0)" stroke="rgb(0,0,0)" stroke-width="1" opacity="0.6509803921568628" d="M 1210.5 775 L 1213 775.5 L 1210.5 776 L 1210.5 775 Z " /><path fill="rgb(0,0,0)" stroke="rgb(0,0,0)" stroke-width="1" opacity="0.6509803921568628" d="M 1243.5 775 L 1246 775.5 L 1243.5 776 L 1243.5 775 Z " /><path fill="rgb(0,0,0)" stroke="rgb(0,0,0)" stroke-width="1" opacity="0.6509803921568628" d="M 1468.5 775 L 1477 775.5 L 1468.5 776 L 1468.5 775 Z " /><path fill="rgb(0,0,0)" stroke="rgb(0,0,0)" stroke-width="1" opacity="0.6509803921568628" d="M 1517.5 775 L 1526 775.5 L 1517.5 776 L 1517.5 775 Z " /><path fill="rgb(0,0,0)" stroke="rgb(0,0,0)" stroke-width="1" opacity="0.6509803921568628" d="M 1558.5 775 L 1567 775.5 L 1558.5 776 L 1558.5 775 Z " /><path fill="rgb(0,0,0)" stroke="rgb(0,0,0)" stroke-width="1" opacity="0.6509803921568628" d="M 1606.5 775 L 1615 775.5 L 1606.5 776 L 1606.5 775 Z " /><path fill="rgb(0,0,0)" stroke="rgb(0,0,0)" stroke-width="1" opacity="0.6509803921568628" d="M 939.5 776 L 944 776.5 L 939.5 777 L 939.5 776 Z " /><path fill="rgb(0,0,0)" stroke="rgb(0,0,0)" stroke-width="1" opacity="0.6509803921568628" d="M 956.5 776 L 961 776.5 L 956.5 777 L 956.5 776 Z " /><path fill="rgb(0,0,0)" stroke="rgb(0,0,0)" stroke-width="1" opacity="0.6509803921568628" d="M 1079.5 776 L 1086 776.5 L 1079.5 777 L 1079.5 776 Z " /><path fill="rgb(0,0,0)" stroke="rgb(0,0,0)" stroke-width="1" opacity="0.6509803921568628" d="M 1095.5 776 L 1100 776.5 L 1095.5 777 L 1095.5 776 Z " /><path fill="rgb(0,0,0)" stroke="rgb(0,0,0)" stroke-width="1" opacity="0.6509803921568628" d="M 1217.5 776 L 1223 776.5 L 1217.5 777 L 1217.5 776 Z " /><path fill="rgb(0,0,0)" stroke="rgb(0,0,0)" stroke-width="1" opacity="0.6509803921568628" d="M 1233.5 776 L 1240 776.5 L 1233.5 777 L 1233.5 776 Z " /><path fill="rgb(0,0,0)" stroke="rgb(0,0,0)" stroke-width="1" opacity="0.6509803921568628" d="M 1369.5 776 L 1374 776.5 L 1369.5 777 L 1369.5 776 Z " /><path fill="rgb(0,0,0)" stroke="rgb(0,0,0)" stroke-width="1" opacity="0.6509803921568628" d="M 1382.5 776 L 1387 776.5 L 1382.5 777 L 1382.5 776 Z " /><path fill="rgb(0,0,0)" stroke="rgb(0,0,0)" stroke-width="1" opacity="0.6509803921568628" d="M 413.5 777 L 415.5 780 L 413.5 777 Z " /><path fill="rgb(0,0,0)" stroke="rgb(0,0,0)" stroke-width="1" opacity="0.6509803921568628" d="M 749.5 778 L 748.5 780 L 749.5 778 Z " /><path fill="rgb(0,0,0)" stroke="rgb(0,0,0)" stroke-width="1" opacity="0.6509803921568628" d="M 418.5 781 L 419.5 783 L 418.5 781 Z " /><path fill="rgb(0,0,0)" stroke="rgb(0,0,0)" stroke-width="1" opacity="0.6509803921568628" d="M 744.5 781 L 743.5 783 L 744.5 781 Z " /><path fill="rgb(0,0,0)" stroke="rgb(0,0,0)" stroke-width="1" opacity="0.6509803921568628" d="M 422.5 784 L 423.5 786 L 422.5 784 Z " /><path fill="rgb(0,0,0)" stroke="rgb(0,0,0)" stroke-width="1" opacity="0.6509803921568628" d="M 735.5 786 L 734.5 788 L 735.5 786 Z " /><path fill="rgb(0,0,0)" stroke="rgb(0,0,0)" stroke-width="1" opacity="0.6509803921568628" d="M 431.5 790 L 432.5 792 L 431.5 790 Z " /><path fill="rgb(0,0,0)" stroke="rgb(0,0,0)" stroke-width="1" opacity="0.6509803921568628" d="M 1314.5 806 L 1315 810.5 L 1314 810.5 L 1314.5 806 Z " /><path fill="rgb(0,0,0)" stroke="rgb(0,0,0)" stroke-width="1" opacity="0.6509803921568628" d="M 1360.5 813 L 1368 813.5 L 1360.5 814 L 1360.5 813 Z " /><path fill="rgb(0,0,0)" stroke="rgb(0,0,0)" stroke-width="1" opacity="0.6509803921568628" d="M 1298.5 814 L 1301 814.5 L 1298.5 815 L 1298.5 814 Z " /><path fill="rgb(0,0,0)" stroke="rgb(0,0,0)" stroke-width="1" opacity="0.6509803921568628" d="M 1304.5 814 L 1310 814.5 L 1304.5 815 L 1304.5 814 Z " /><path fill="rgb(0,0,0)" stroke="rgb(0,0,0)" stroke-width="1" opacity="0.6509803921568628" d="M 1349.5 814 L 1355 814.5 L 1349.5 815 L 1349.5 814 Z " /><path fill="rgb(0,0,0)" stroke="rgb(0,0,0)" stroke-width="1" opacity="0.6509803921568628" d="M 1296.5 815 L 1295.5 817 L 1296.5 815 Z " /><path fill="rgb(0,0,0)" stroke="rgb(0,0,0)" stroke-width="1" opacity="0.6509803921568628" d="M 1371.5 815 L 1372.5 817 L 1371.5 815 Z " /><path fill="rgb(0,0,0)" stroke="rgb(0,0,0)" stroke-width="1" opacity="0.6509803921568628" d="M 505.5 817 L 508 817.5 L 505.5 818 L 505.5 817 Z " /><path fill="rgb(0,0,0)" stroke="rgb(0,0,0)" stroke-width="1" opacity="0.6509803921568628" d="M 510.5 818 L 513 818.5 L 510.5 819 L 510.5 818 Z " /><path fill="rgb(0,0,0)" stroke="rgb(0,0,0)" stroke-width="1" opacity="0.6509803921568628" d="M 516.5 819 L 519 819.5 L 516.5 820 L 516.5 819 Z " /><path fill="rgb(0,0,0)" stroke="rgb(0,0,0)" stroke-width="1" opacity="0.6509803921568628" d="M 644.5 819 L 647 819.5 L 644.5 820 L 644.5 819 Z " /><path fill="rgb(0,0,0)" stroke="rgb(0,0,0)" stroke-width="1" opacity="0.6509803921568628" d="M 522.5 820 L 526 820.5 L 522.5 821 L 522.5 820 Z " /><path fill="rgb(0,0,0)" stroke="rgb(0,0,0)" stroke-width="1" opacity="0.6509803921568628" d="M 530.5 821 L 533 821.5 L 530.5 822 L 530.5 821 Z " /><path fill="rgb(0,0,0)" stroke="rgb(0,0,0)" stroke-width="1" opacity="0.6509803921568628" d="M 634.5 821 L 637 821.5 L 634.5 822 L 634.5 821 Z " /><path fill="rgb(0,0,0)" stroke="rgb(0,0,0)" stroke-width="1" opacity="0.6509803921568628" d="M 538.5 822 L 542 822.5 L 538.5 823 L 538.5 822 Z " /><path fill="rgb(0,0,0)" stroke="rgb(0,0,0)" stroke-width="1" opacity="0.6509803921568628" d="M 628.5 822 L 631 822.5 L 628.5 823 L 628.5 822 Z " /><path fill="rgb(0,0,0)" stroke="rgb(0,0,0)" stroke-width="1" opacity="0.6509803921568628" d="M 1375.5 822 L 1376 825.5 L 1375 825.5 L 1375.5 822 Z " /><path fill="rgb(0,0,0)" stroke="rgb(0,0,0)" stroke-width="1" opacity="0.6509803921568628" d="M 547.5 823 L 552 823.5 L 547.5 824 L 547.5 823 Z " /><path fill="rgb(0,0,0)" stroke="rgb(0,0,0)" stroke-width="1" opacity="0.6509803921568628" d="M 620.5 823 L 624 823.5 L 620.5 824 L 620.5 823 Z " /><path fill="rgb(0,0,0)" stroke="rgb(0,0,0)" stroke-width="1" opacity="0.6509803921568628" d="M 559.5 824 L 571 824.5 L 559.5 825 L 559.5 824 Z " /><path fill="rgb(0,0,0)" stroke="rgb(0,0,0)" stroke-width="1" opacity="0.6509803921568628" d="M 607.5 824 L 616 824.5 L 607.5 825 L 607.5 824 Z " /><path fill="rgb(0,0,0)" stroke="rgb(0,0,0)" stroke-width="1" opacity="0.6509803921568628" d="M 1293.5 828 L 1296.5 832 L 1293.5 828 Z " /><path fill="rgb(0,0,0)" stroke="rgb(0,0,0)" stroke-width="1" opacity="0.6509803921568628" d="M 1373.5 829 L 1371.5 832 L 1373.5 829 Z " /><path fill="rgb(0,0,0)" stroke="rgb(0,0,0)" stroke-width="1" opacity="0.6509803921568628" d="M 1318.5 832 L 1322 832.5 L 1318.5 833 L 1318.5 832 Z " /><path fill="rgb(0,0,0)" stroke="rgb(0,0,0)" stroke-width="1" opacity="0.6509803921568628" d="M 1339.5 832 L 1347 832.5 L 1339.5 833 L 1339.5 832 Z " /><path fill="rgb(0,0,0)" stroke="rgb(0,0,0)" stroke-width="1" opacity="0.6509803921568628" d="M 1301.5 833 L 1313 833.5 L 1301.5 834 L 1301.5 833 Z " /><path fill="rgb(0,0,0)" stroke="rgb(0,0,0)" stroke-width="1" opacity="0.6509803921568628" d="M 1354.5 833 L 1366 833.5 L 1354.5 834 L 1354.5 833 Z " /><path fill="rgb(0,0,0)" stroke="rgb(0,0,0)" stroke-width="1" opacity="0.996078431372549" d="M 846.5 375 Q 865.4 373.6 875 381.5 Q 877.7 383.8 877 389.5 L 869.5 398 Q 860.7 401.7 855 408.5 L 849 420.5 L 843 439.5 L 837 464.5 L 837 471.5 L 856 492.5 L 866 511.5 L 870 532.5 L 870 570.5 L 869 571.5 L 868 593.5 L 862 626.5 L 853 655.5 L 846 672.5 Q 824.7 717.7 789.5 749 Q 749.2 785.2 693.5 806 L 661.5 816 L 627.5 823 L 607.5 824 L 606.5 825 L 571.5 825 L 570.5 824 L 552.5 824 L 551.5 823 L 542.5 823 L 541.5 822 L 519.5 820 L 498.5 816 L 469.5 808 Q 447.3 800.2 428.5 789 Q 411.8 778.2 399 763.5 Q 387.2 749.3 381 729.5 L 378 716.5 L 378 688.5 Q 375 684.5 375 677.5 Q 376.4 670 381.5 666 Q 388.2 659.2 402.5 660 L 434.5 678 L 477.5 697 L 501.5 703 L 517.5 704 L 518.5 705 L 538.5 705 L 539.5 704 L 558.5 703 L 579.5 699 L 606.5 691 L 628.5 682 Q 671 662.5 702 631.5 Q 720.6 612.6 733 587.5 L 742 566.5 L 759 513.5 L 765 499.5 Q 772.7 481.7 786.5 470 L 796 464.5 L 812 404.5 L 812 398.5 Q 806.8 396.2 807 388.5 L 809 385 L 821.5 379 L 836.5 376 L 845.5 376 L 846.5 375 Z M 827 402 L 823 408 L 823 412 L 807 473 L 802 476 L 791 488 L 779 509 L 767 541 L 763 558 L 753 587 Q 742 613 725 633 Q 710 650 692 664 Q 670 681 646 694 Q 624 705 599 713 L 578 718 L 565 719 L 564 720 L 554 720 L 553 721 L 524 721 L 523 720 L 513 720 L 512 719 L 493 717 L 478 713 Q 440 701 412 679 L 410 683 Q 406 690 396 690 L 396 694 L 400 701 L 412 717 Q 436 744 473 759 L 488 764 L 506 768 L 530 770 L 531 771 L 551 771 L 552 772 L 582 771 L 583 770 L 608 768 L 634 763 L 666 754 Q 695 744 721 729 L 756 704 Q 786 677 806 641 Q 817 620 825 596 L 831 573 L 834 556 L 834 548 L 835 547 L 835 517 L 834 516 L 833 503 L 830 493 L 821 477 L 826 453 L 839 405 L 827 402 Z " /><path fill="rgb(0,0,0)" stroke="rgb(0,0,0)" stroke-width="1" opacity="0.996078431372549" d="M 1506.5 564 Q 1513.4 563.1 1515 567.5 L 1516 574.5 L 1514 578.5 L 1512 589.5 L 1512 652.5 L 1520.5 645 Q 1529.1 637.6 1541.5 634 L 1545.5 633 L 1565.5 633 Q 1583 636.5 1592 648.5 L 1598 659.5 L 1601 671.5 L 1601 681.5 L 1602 682.5 L 1602 749.5 L 1603 754.5 L 1605.5 758 L 1619.5 758 L 1623 760.5 L 1625 767.5 L 1621.5 773 L 1617.5 775 L 1602.5 775 L 1593.5 773 L 1580.5 773 L 1570.5 775 L 1555.5 775 L 1549 770.5 L 1548 765.5 L 1551.5 759 L 1553.5 758 L 1567.5 758 L 1569 756.5 L 1571 749.5 L 1572 692.5 L 1571 691.5 L 1571 680.5 L 1569 672.5 Q 1566.1 664.4 1559.5 660 Q 1552.9 655 1539.5 657 Q 1528.6 659.6 1523 667.5 Q 1515.1 677.6 1512 692.5 L 1512 694.5 L 1512 742.5 L 1513 743.5 L 1513 752.5 L 1515 758 L 1529.5 758 L 1534 761.5 L 1535 769.5 L 1532.5 773 L 1527.5 775 L 1512.5 775 L 1504.5 773 L 1490.5 773 L 1481.5 775 L 1466.5 775 L 1460 770.5 L 1459 764.5 L 1462.5 759 L 1464.5 758 L 1479 758 L 1481 752.5 Q 1479.3 746.3 1482 744.5 L 1482 603.5 L 1480 597.5 L 1477.5 595 L 1468.5 593 L 1463 588.5 Q 1461.3 579.8 1466.5 578 L 1492.5 571 L 1506.5 564 Z " /><path fill="rgb(0,0,0)" stroke="rgb(0,0,0)" stroke-width="1" opacity="0.996078431372549" d="M 1224.5 632 L 1232.5 632 L 1248.5 635 Q 1262.4 640.1 1271 650.5 Q 1278.4 659.1 1282 671.5 L 1284 690.5 L 1282 698.5 L 1276.5 704 L 1264.5 705 L 1263.5 706 L 1228.5 707 L 1227.5 708 L 1213.5 708 L 1212.5 709 L 1198.5 709 L 1192 710 Q 1193.5 736.2 1210.5 748 L 1223.5 754 L 1236.5 755 L 1251.5 752 Q 1261 747.5 1267.5 740 Q 1269.8 737.3 1275.5 738 L 1281 741.5 L 1283 748.5 L 1281 754.5 L 1271.5 764 Q 1261.9 771.4 1248.5 775 L 1223.5 777 L 1222.5 776 L 1208.5 775 L 1196.5 771 Q 1182.3 764.3 1173 752.5 Q 1165 742.5 1161 728.5 L 1159 719.5 L 1158 700.5 L 1159 699.5 L 1160 686.5 L 1165 671.5 Q 1172.1 656.6 1184.5 647 L 1201.5 637 L 1210.5 634 L 1223.5 633 L 1224.5 632 Z M 1219 651 L 1208 656 L 1198 667 L 1193 678 L 1191 687 Q 1190 691 1193 692 L 1194 691 L 1211 691 L 1212 690 L 1238 689 L 1239 688 L 1252 687 L 1253 686 L 1253 676 L 1246 661 L 1235 652 L 1219 651 Z " /><path fill="rgb(0,0,0)" stroke="rgb(0,0,0)" stroke-width="1" opacity="0.996078431372549" d="M 940.5 633 L 965.5 633 L 984.5 638 Q 999.4 645.1 1009 657.5 Q 1017.5 668.5 1021 684.5 Q 1019.7 689.3 1022 690.5 L 1022 712.5 Q 1016.1 745.1 994.5 762 Q 985.2 769.7 972.5 774 L 955.5 777 L 944.5 777 L 943.5 776 L 930.5 775 L 915.5 770 Q 902.6 763.4 894 752.5 L 886 739.5 L 882 727.5 L 881 716.5 L 880 715.5 L 880 699.5 L 883 684.5 L 888 671.5 L 902.5 652 Q 916.7 637.7 940.5 633 Z M 946 651 L 934 654 L 931 656 Q 922 663 917 674 L 914 682 L 913 695 L 912 696 L 912 708 L 913 709 L 914 721 L 919 735 L 924 743 Q 932 754 949 758 L 961 758 L 975 752 L 985 740 L 991 722 Q 994 686 980 668 Q 973 658 962 653 L 953 651 L 946 651 Z " /><path fill="rgb(0,0,0)" stroke="rgb(0,0,0)" stroke-width="1" opacity="0.996078431372549" d="M 1080.5 633 L 1103.5 633 L 1108.5 634 Q 1122.6 637.4 1131 646.5 L 1135 653.5 L 1135 660.5 L 1129.5 667 Q 1125.7 671.2 1116.5 670 L 1109 664.5 L 1100.5 654 Q 1094.3 649.2 1081.5 651 L 1073.5 654 L 1071 656.5 Q 1067.8 658.8 1069 665.5 L 1073.5 672 L 1082.5 678 L 1117.5 694 L 1135 708.5 L 1143 723.5 L 1144 737.5 Q 1141.1 755.1 1129.5 764 Q 1120.7 771.7 1107.5 775 L 1086.5 777 L 1085.5 776 L 1076.5 776 L 1065.5 773 Q 1051.3 767.3 1042 756.5 L 1036 746.5 L 1036 738.5 Q 1037.6 731.6 1043.5 729 Q 1046.4 726.4 1052.5 727 Q 1058.3 728.3 1061 732.5 Q 1064.4 745.6 1073.5 753 L 1084.5 758 L 1094.5 759 L 1104.5 757 Q 1111.9 754.4 1116 748.5 Q 1118.5 745 1117 737.5 L 1109.5 728 L 1091.5 718 L 1069.5 709 Q 1058.6 703.4 1051 694.5 L 1043 678.5 L 1043 662.5 Q 1046.7 649.7 1056.5 643 L 1064.5 638 L 1080.5 633 Z " /><path fill="rgb(0,0,0)" stroke="rgb(0,0,0)" stroke-width="1" opacity="0.996078431372549" d="M 1337.5 633 Q 1347 631 1349 636.5 L 1348 646.5 L 1352.5 643 Q 1366.5 630.5 1395.5 633 Q 1419.8 637.7 1432 654.5 Q 1441.1 666.4 1445 683.5 Q 1443.7 688.3 1446 689.5 L 1446 715.5 Q 1440.2 746.2 1419.5 762 Q 1404.1 776.6 1374.5 777 L 1373.5 776 L 1364.5 776 Q 1361.6 773.4 1355.5 774 L 1345 770 L 1345 800.5 L 1346 801.5 L 1346 815 L 1354.5 815 L 1355.5 814 L 1369.5 814 Q 1376.4 816.1 1375 826.5 L 1370.5 832 L 1367.5 833 L 1347.5 833 L 1346.5 832 L 1330.5 832 L 1329.5 831 L 1328.5 832 L 1318.5 832 L 1317.5 833 L 1299.5 833 L 1293 827.5 L 1292 822.5 L 1294 817 Q 1297 814.3 1303.5 814 L 1304.5 815 L 1314 815 L 1315 810.5 L 1315 670.5 L 1310.5 663 L 1300.5 661 L 1296 656.5 Q 1294.5 647.5 1300.5 646 L 1324.5 640 L 1337.5 633 Z M 1377 655 L 1368 657 L 1359 662 Q 1350 669 1345 680 L 1345 736 L 1348 742 Q 1357 754 1375 758 L 1386 758 L 1399 753 Q 1406 748 1410 739 L 1414 726 Q 1412 719 1415 718 Q 1416 683 1401 666 Q 1394 655 1377 655 Z " /></svg>
