<?xml version="1.0" encoding="UTF-8"?>
<svg desc="Created on https://convert2svg.com/" version="1.1" viewBox="0 0 1295 521" xmlns="http://www.w3.org/2000/svg">
<path d="m0 0h1295v521h-1295v-521zm488 39l-1 1-14 1-10 3-10 8v6l5 6-7 31-10 35h-2l-8 5q-13 11-20 28l-9 22-13 42-11 26q-10 20-25 37-33 35-79 56l-17 7-29 9-26 5h-9l-1 1h-31l-29-5-29-11q-28-12-52-28-15-2-21 4-7 4-9 12v7l3 9v15l-1 1 2 17 5 15q7 16 18 28 13 14 31 24l33 15 19 6 26 6 27 3 1 1h8l1 1h11l1 1h56q1-3 8-1l28-5 38-11q62-22 106-64 34-32 54-79l8-22 8-33 2-19 1-1 1-32 1-1-1-29-4-17-8-16-21-24q5-34 17-60 7-9 18-14 7-2 5-13l-4-5-11-4h-20zm663 189l-16 8-15 3-8 3-4 5q-1 5 2 8 4 4 13 4l3 4 1 11 1 1v121l-1 1v17l-1 5-2 3q-7 2-8-1l-8 2-3 4 1 9 3 2 6 2 17-1 1-1h22l9 2q9 1 14-2l4-6-1-6-2-3-6-2-10 1-3-3-1-5v-59q3-13 9-21 6-10 20-13 13-1 20 5l6 10 3 12v60l-1 1v8l-3 5q-6 2-7-1l-7 1-5 6 1 8 10 4 17-1 1-1h21l9 2h8l8-3 2-3-1-8-3-4-4-1-10 1-4-5v-8l-1-1v-68q-2-2-1-7-3-15-11-23l-15-11-13-3h-13l-9 2q-13 4-21 12l-5 6h-1v-66l3-9v-9q-2-6-11-4zm-561 68l-19 5-18 11q-21 16-27 48v24l2 10q4 14 13 25l18 14 12 5 15 3h21l10-2q15-5 27-15 13-12 20-29l4-14v-8l1-1q1-35-15-52-9-11-22-18l-24-6h-18zm142 0l-1 1-11 1-8 3-11 7q-10 7-13 21-1 18 7 28t20 16l22 9 17 9q7 4 9 13v5l-3 6-14 7h-13l-12-5-8-7-7-15-5-4q-9-1-12 2-7 3-8 12l1 7 7 11 17 12 20 6h20l10-2 12-5 11-8 8-11 3-10v-15q-3-12-10-19l-17-14-25-11-16-9-7-8 1-6 7-6 9-2q11 0 17 5l7 11 10 4 6-1 5-3q4-3 5-9l-3-9q-14-19-47-17zm134 0l-17 4q-12 5-21 13-10 8-16 20l-5 12-3 14v21l2 11q5 17 15 29l17 13 15 6 11 2h22l10-2q14-4 25-13l8-10q1-9-2-12l-3-2h-7l-14 11-14 5h-17q-11-2-17-8-15-11-17-34l2-2 25-1 1-1h16l1-1h19l1-1h12l9-2q4-3 6-9l-1-21-2-7-7-13q-9-13-24-19l-12-3h-18zm120 0l-14 7-24 6-3 2-4 6 1 5q4 5 14 5l3 4 2 7v132l-1 1v8l-4-1h-11l-2 1-5 6 1 8q3 4 9 5h11l10-2h16l1 1h14l1 1q10 1 17-2l4-6q0-7-3-9l-5-4-18 1-1 1-3-1 1-44 11 5 11 1 1 1h17l9-2q16-5 27-15l15-19 6-14 3-15v-17l-1-1-1-12-9-22-6-8-13-12-14-6-10-2h-13l-10 2-12 5-9 6 1-3-1-6q-2-5-9-4z" opacity="0" stroke="#000"/>
<path d="m471.5 67h6l6.5 2-1 8.5-15 53-1 12q7.7 8.8 11 22l2 11v10l1 1v17l-1 1v11l-1 1-1 12-6 26-13 35q-19.7 43.3-52.5 73.5-40.9 37.1-100 56l-29 8-27 5-16 1-1 1h-13l-1 1h-36l-1-1h-11l-1-1-16-1-15-3-25-8q-29.7-12.8-50.5-34.5-13.8-13.5-22-31.5 8.8-0.6 13-6.5l2-4.5q30.4 22.4 71.5 35l19 4 15 1 1 1h41l1-1 15-1 29-7q22-7 41-17 45.3-23.7 78.5-59.5 15.1-17.4 26-39l8-19 18-59 13-26 11.5-14.5 7.5-4.5 16-60 1-9 1.5-1.5z" opacity="0" stroke="#000"/>
<path d="m867.5 315q18.8-0.3 25.5 11.5l5 11v12.5l-9.5 2h-9l-1 1-40.5 2q0.7-25.4 17.5-36l12-4z" opacity="0" stroke="#000"/>
<path d="m587.5 316q13.1-1.6 21 2 9.6 3.9 15.5 11.5 14.1 17.4 13 50l-1 1-1 12-3 8q-4.3 9.7-12.5 15.5l-10 5-13 1q-14.4-2.6-22.5-11.5-17.8-18.2-15-57l2-10 5-11 11.5-12.5 10-4z" opacity="0" stroke="#000"/>
<path d="m1017.5 320q10.8-1.7 17 1 8.4 3.6 13.5 10.5 15.2 18.3 12 55l-6 19-10.5 11.5-9 4-8 1q-1.7-2.7-8-1l-9-3q-8.7-4.2-14.5-11.5l-3-5v-60l6-9.5 8.5-7 11-5z" opacity="0" stroke="#000"/>
<path d="m487.5 39l4.5 0.5-4.5 0.5v-1z" opacity=".65098" stroke="#000"/>
<path d="m505.5 39l2.5 0.5-2.5 0.5v-1z" opacity=".65098" stroke="#000"/>
<path d="m478.5 40l3.5 0.5-3.5 0.5v-1z" opacity=".65098" stroke="#000"/>
<path d="m472.5 41l2.5 0.5-2.5 0.5v-1z" opacity=".65098" stroke="#000"/>
<path d="m462.5 44l1.5 0.5-2.5 1.5 1-2z" opacity=".65098" stroke="#000"/>
<path d="m521.5 46l1.5 2.5h-1l-0.5-2.5z" opacity=".65098" stroke="#000"/>
<path d="m457.5 47l-1 2 1-2z" opacity=".65098" stroke="#000"/>
<path d="m454.5 50l-1 2 1-2z" opacity=".65098" stroke="#000"/>
<path d="m521.5 56l-4 5 4-5z" opacity=".65098" stroke="#000"/>
<path d="m456.5 61l1 2-1-2z" opacity=".65098" stroke="#000"/>
<path d="m472.5 66l2.5 0.5-2.5 0.5v-1z" opacity=".65098" stroke="#000"/>
<path d="m505.5 68l-4 5 4-5z" opacity=".65098" stroke="#000"/>
<path d="m484.5 69l0.5 2.5h-1l0.5-2.5z" opacity=".65098" stroke="#000"/>
<path d="m484.5 123l0.5 2.5h-1l0.5-2.5z" opacity=".65098" stroke="#000"/>
<path d="m483.5 128l0.5 3.5h-1l0.5-3.5z" opacity=".65098" stroke="#000"/>
<path d="m468.5 130l0.5 2.5h-1l0.5-2.5z" opacity=".65098" stroke="#000"/>
<path d="m434.5 132l-1 2 1-2z" opacity=".65098" stroke="#000"/>
<path d="m430.5 135l-6 7 6-7z" opacity=".65098" stroke="#000"/>
<path d="m452.5 137l-1 2 1-2z" opacity=".65098" stroke="#000"/>
<path d="m447.5 140l-1 2 1-2z" opacity=".65098" stroke="#000"/>
<path d="m422.5 144l-1 2 1-2z" opacity=".65098" stroke="#000"/>
<path d="m441.5 146l-1 2 1-2z" opacity=".65098" stroke="#000"/>
<path d="m493.5 146l3 4-3-4z" opacity=".65098" stroke="#000"/>
<path d="m470.5 147l1 2-1-2z" opacity=".65098" stroke="#000"/>
<path d="m418.5 150l-1 2 1-2z" opacity=".65098" stroke="#000"/>
<path d="m438.5 150l-1 2 1-2z" opacity=".65098" stroke="#000"/>
<path d="m499.5 153l1 2-1-2z" opacity=".65098" stroke="#000"/>
<path d="m502.5 157l1 2-1-2z" opacity=".65098" stroke="#000"/>
<path d="m430.5 163l-1 2 1-2z" opacity=".65098" stroke="#000"/>
<path d="m478.5 166l0.5 2.5h-1l0.5-2.5z" opacity=".65098" stroke="#000"/>
<path d="m479.5 172l0.5 2.5h-1l0.5-2.5z" opacity=".65098" stroke="#000"/>
<path d="m480.5 180l0.5 5.5h-1l0.5-5.5z" opacity=".65098" stroke="#000"/>
<path d="m515.5 191l0.5 4.5h-1l0.5-4.5z" opacity=".65098" stroke="#000"/>
<path d="m480.5 204l0.5 6.5h-1l0.5-6.5z" opacity=".65098" stroke="#000"/>
<path d="m516.5 212l0.5 8.5h-1l0.5-8.5z" opacity=".65098" stroke="#000"/>
<path d="m479.5 216l0.5 3.5h-1l0.5-3.5z" opacity=".65098" stroke="#000"/>
<path d="m478.5 223l0.5 2.5h-1l0.5-2.5z" opacity=".65098" stroke="#000"/>
<path d="m1157.5 228l4.5 3.5-0.5 1.5-3-4-1-1z" opacity=".65098" stroke="#000"/>
<path d="m477.5 229l0.5 2.5h-1l0.5-2.5z" opacity=".65098" stroke="#000"/>
<path d="m476.5 234l0.5 2.5h-1l0.5-2.5z" opacity=".65098" stroke="#000"/>
<path d="m515.5 235l0.5 7.5h-1l0.5-7.5z" opacity=".65098" stroke="#000"/>
<path d="m1111.5 242l-1 2 1-2z" opacity=".65098" stroke="#000"/>
<path d="m1108.5 246l0.5 4.5h-1l0.5-4.5z" opacity=".65098" stroke="#000"/>
<path d="m1159.5 246l0.5 2.5h-1l0.5-2.5z" opacity=".65098" stroke="#000"/>
<path d="m514.5 249l0.5 4.5h-1l0.5-4.5z" opacity=".65098" stroke="#000"/>
<path d="m1158.5 253l0.5 63.5h-1l0.5-63.5z" opacity=".65098" stroke="#000"/>
<path d="m1110.5 254l1 2-1-2z" opacity=".65098" stroke="#000"/>
<path d="m513.5 258l0.5 3.5h-1l0.5-3.5z" opacity=".65098" stroke="#000"/>
<path d="m1123.5 259l2 3-2-3z" opacity=".65098" stroke="#000"/>
<path d="m512.5 265l0.5 2.5h-1l0.5-2.5z" opacity=".65098" stroke="#000"/>
<path d="m1127.5 267l0.5 6.5h-1l0.5-6.5z" opacity=".65098" stroke="#000"/>
<path d="m511.5 271l0.5 2.5h-1l0.5-2.5z" opacity=".65098" stroke="#000"/>
<path d="m387.5 273l-1 2 1-2z" opacity=".65098" stroke="#000"/>
<path d="m363.5 276l-1 2 1-2z" opacity=".65098" stroke="#000"/>
<path d="m360.5 280l-2 3 2-3z" opacity=".65098" stroke="#000"/>
<path d="m356.5 285l-3 4 3-4z" opacity=".65098" stroke="#000"/>
<path d="m379.5 285l-1 2 1-2z" opacity=".65098" stroke="#000"/>
<path d="m508.5 286l0.5 2.5h-1l0.5-2.5z" opacity=".65098" stroke="#000"/>
<path d="m376.5 289l-1 2 1-2z" opacity=".65098" stroke="#000"/>
<path d="m373.5 293l-2 3 2-3z" opacity=".65098" stroke="#000"/>
<path d="m347.5 295l-6 7 6-7z" opacity=".65098" stroke="#000"/>
<path d="m589.5 296l18.5 0.5-18.5 0.5v-1z" opacity=".65098" stroke="#000"/>
<path d="m731.5 296l15.5 0.5-15.5 0.5v-1z" opacity=".65098" stroke="#000"/>
<path d="m865.5 296l4.5 0.5-4.5 0.5v-1z" opacity=".65098" stroke="#000"/>
<path d="m879.5 296l4.5 0.5-4.5 0.5v-1z" opacity=".65098" stroke="#000"/>
<path d="m985.5 296l5.5 0.5-5.5 0.5v-1z" opacity=".65098" stroke="#000"/>
<path d="m1025.5 296l13.5 0.5-13.5 0.5v-1z" opacity=".65098" stroke="#000"/>
<path d="m1194.5 296l13.5 0.5-13.5 0.5v-1z" opacity=".65098" stroke="#000"/>
<path d="m612.5 297l2.5 0.5-2.5 0.5v-1z" opacity=".65098" stroke="#000"/>
<path d="m750.5 297l2.5 0.5-2.5 0.5v-1z" opacity=".65098" stroke="#000"/>
<path d="m887.5 297l2.5 0.5-2.5 0.5v-1z" opacity=".65098" stroke="#000"/>
<path d="m992.5 297l2 3-2-3z" opacity=".65098" stroke="#000"/>
<path d="m1019.5 297l2.5 0.5-2.5 0.5v-1z" opacity=".65098" stroke="#000"/>
<path d="m1042.5 297l2.5 0.5-2.5 0.5v-1z" opacity=".65098" stroke="#000"/>
<path d="m719.5 298l2.5 0.5-2.5 0.5v-1z" opacity=".65098" stroke="#000"/>
<path d="m368.5 299l-17 18 17-18z" opacity=".65098" stroke="#000"/>
<path d="m995.5 301l0.5 4.5h-1l0.5-4.5z" opacity=".65098" stroke="#000"/>
<path d="m709.5 302l-1 2 1-2z" opacity=".65098" stroke="#000"/>
<path d="m768.5 303l1 2-1-2z" opacity=".65098" stroke="#000"/>
<path d="m1003.5 303l-1 2 1-2z" opacity=".65098" stroke="#000"/>
<path d="m1062.5 304l1 2-1-2z" opacity=".65098" stroke="#000"/>
<path d="m1172.5 304l-1 2 1-2z" opacity=".65098" stroke="#000"/>
<path d="m1229.5 304l1 2-1-2z" opacity=".65098" stroke="#000"/>
<path d="m704.5 305l-1 2 1-2z" opacity=".65098" stroke="#000"/>
<path d="m771.5 305l2 3-2-3z" opacity=".65098" stroke="#000"/>
<path d="m1000.5 305l-1 2 1-2z" opacity=".65098" stroke="#000"/>
<path d="m335.5 306l-2 3 2-3z" opacity=".65098" stroke="#000"/>
<path d="m908.5 306l1 2-1-2z" opacity=".65098" stroke="#000"/>
<path d="m1065.5 306l1 2-1-2z" opacity=".65098" stroke="#000"/>
<path d="m1169.5 306l-2 3 2-3z" opacity=".65098" stroke="#000"/>
<path d="m557.5 308l-1 2 1-2z" opacity=".65098" stroke="#000"/>
<path d="m641.5 308l1 2-1-2z" opacity=".65098" stroke="#000"/>
<path d="m700.5 308l-5 6 5-6z" opacity=".65098" stroke="#000"/>
<path d="m994.5 308q3 1.5 0 3v-3z" opacity=".65098" stroke="#000"/>
<path d="m1234.5 308l1 2-1-2z" opacity=".65098" stroke="#000"/>
<path d="m832.5 309l-1 2 1-2z" opacity=".65098" stroke="#000"/>
<path d="m1070.5 310l5 6-5-6z" opacity=".65098" stroke="#000"/>
<path d="m1164.5 310l-4 5 4-5z" opacity=".65098" stroke="#000"/>
<path d="m329.5 311l-1 2 1-2z" opacity=".65098" stroke="#000"/>
<path d="m645.5 311l8 9-8-9z" opacity=".65098" stroke="#000"/>
<path d="m777.5 311l1 2-1-2z" opacity=".65098" stroke="#000"/>
<path d="m944.5 311l-1 2 1-2z" opacity=".65098" stroke="#000"/>
<path d="m552.5 312l-3 4 3-4z" opacity=".65098" stroke="#000"/>
<path d="m827.5 313l-7 8 7-8z" opacity=".65098" stroke="#000"/>
<path d="m1238.5 313l1 2-1-2z" opacity=".65098" stroke="#000"/>
<path d="m325.5 314l-1 2 1-2z" opacity=".65098" stroke="#000"/>
<path d="m591.5 315l7.5 0.5-7.5 0.5v-1z" opacity=".65098" stroke="#000"/>
<path d="m727.5 315l3.5 0.5-3.5 0.5v-1z" opacity=".65098" stroke="#000"/>
<path d="m736.5 315l3.5 0.5-3.5 0.5v-1z" opacity=".65098" stroke="#000"/>
<path d="m864.5 315l2.5 0.5-2.5 0.5v-1z" opacity=".65098" stroke="#000"/>
<path d="m874.5 315l2.5 0.5-2.5 0.5v-1z" opacity=".65098" stroke="#000"/>
<path d="m917.5 315l2 3-2-3z" opacity=".65098" stroke="#000"/>
<path d="m444.5 316l-1 2 1-2z" opacity=".65098" stroke="#000"/>
<path d="m321.5 317l-1 2 1-2z" opacity=".65098" stroke="#000"/>
<path d="m579.5 318l1.5 0.5-2.5 1.5 1-2z" opacity=".65098" stroke="#000"/>
<path d="m719.5 318l-2 3 2-3z" opacity=".65098" stroke="#000"/>
<path d="m746.5 318l1 2-1-2z" opacity=".65098" stroke="#000"/>
<path d="m920.5 319l1 2-1-2z" opacity=".65098" stroke="#000"/>
<path d="m1022.5 319l6.5 0.5-6.5 0.5v-1z" opacity=".65098" stroke="#000"/>
<path d="m1078.5 319l1 2-1-2z" opacity=".65098" stroke="#000"/>
<path d="m317.5 320l-1 2 1-2z" opacity=".65098" stroke="#000"/>
<path d="m346.5 320l-2 3 2-3z" opacity=".65098" stroke="#000"/>
<path d="m544.5 320l-2 3 2-3z" opacity=".65098" stroke="#000"/>
<path d="m576.5 320l-8 9 8-9z" opacity=".65098" stroke="#000"/>
<path d="m853.5 320l-7 8 7-8z" opacity=".65098" stroke="#000"/>
<path d="m887.5 320l4 5-4-5z" opacity=".65098" stroke="#000"/>
<path d="m749.5 321l3 4-3-4z" opacity=".65098" stroke="#000"/>
<path d="m942.5 321l2 3-2-3z" opacity=".65098" stroke="#000"/>
<path d="m1196.5 321l2.5 0.5-2.5 0.5v-1z" opacity=".65098" stroke="#000"/>
<path d="m314.5 322l-1 2 1-2z" opacity=".65098" stroke="#000"/>
<path d="m616.5 322l1 2-1-2z" opacity=".65098" stroke="#000"/>
<path d="m655.5 322l1 2-1-2z" opacity=".65098" stroke="#000"/>
<path d="m1080.5 322l1 2-1-2z" opacity=".65098" stroke="#000"/>
<path d="m818.5 323l-1 2 1-2z" opacity=".65098" stroke="#000"/>
<path d="m1039.5 323l1 2-1-2z" opacity=".65098" stroke="#000"/>
<path d="m1179.5 323l1.5 0.5-2.5 1.5 1-2z" opacity=".65098" stroke="#000"/>
<path d="m49.5 324l2.5 1.5-1.5-0.5-1-1z" opacity=".65098" stroke="#000"/>
<path d="m311.5 324l-1 2 1-2z" opacity=".65098" stroke="#000"/>
<path d="m341.5 324l-2 3 2-3z" opacity=".65098" stroke="#000"/>
<path d="m1205.5 324l1 2-1-2z" opacity=".65098" stroke="#000"/>
<path d="m540.5 325l-1 2 1-2z" opacity=".65098" stroke="#000"/>
<path d="m657.5 325l1 2-1-2z" opacity=".65098" stroke="#000"/>
<path d="m308.5 326l-1 2 1-2z" opacity=".65098" stroke="#000"/>
<path d="m753.5 326l1 2-1-2z" opacity=".65098" stroke="#000"/>
<path d="m1004.5 326l-5 6 5-6z" opacity=".65098" stroke="#000"/>
<path d="m1043.5 326l3 4-3-4z" opacity=".65098" stroke="#000"/>
<path d="m779.5 327l-3 4 3-4z" opacity=".65098" stroke="#000"/>
<path d="m956.5 327l2 3-2-3z" opacity=".65098" stroke="#000"/>
<path d="m1173.5 327l-4 5 4-5z" opacity=".65098" stroke="#000"/>
<path d="m29.5 328l-1 2 1-2z" opacity=".65098" stroke="#000"/>
<path d="m336.5 328l-1 2 1-2z" opacity=".65098" stroke="#000"/>
<path d="m538.5 328l-1 2 1-2z" opacity=".65098" stroke="#000"/>
<path d="m688.5 328l0.5 11.5h-1l0.5-11.5z" opacity=".65098" stroke="#000"/>
<path d="m59.5 329l1 2-1-2z" opacity=".65098" stroke="#000"/>
<path d="m845.5 329l-1 2 1-2z" opacity=".65098" stroke="#000"/>
<path d="m1210.5 329l1 2-1-2z" opacity=".65098" stroke="#000"/>
<path d="m567.5 330l-1 2 1-2z" opacity=".65098" stroke="#000"/>
<path d="m624.5 330l1 2-1-2z" opacity=".65098" stroke="#000"/>
<path d="m756.5 330l1 2-1-2z" opacity=".65098" stroke="#000"/>
<path d="m300.5 331l-1 2 1-2z" opacity=".65098" stroke="#000"/>
<path d="m332.5 331l-1 2 1-2z" opacity=".65098" stroke="#000"/>
<path d="m434.5 331l-1 2 1-2z" opacity=".65098" stroke="#000"/>
<path d="m774.5 331l-1 2 1-2z" opacity=".65098" stroke="#000"/>
<path d="m1048.5 332l1 2-1-2z" opacity=".65098" stroke="#000"/>
<path d="m1246.5 332l0.5 2.5h-1l0.5-2.5z" opacity=".65098" stroke="#000"/>
<path d="m24.5 333l-1 2 1-2z" opacity=".65098" stroke="#000"/>
<path d="m717.5 333l2 3-2-3z" opacity=".65098" stroke="#000"/>
<path d="m997.5 333l-1 2 1-2z" opacity=".65098" stroke="#000"/>
<path d="m68.5 334l1 2-1-2z" opacity=".65098" stroke="#000"/>
<path d="m328.5 334l-1 2 1-2z" opacity=".65098" stroke="#000"/>
<path d="m960.5 334l0.5 2.5h-1l0.5-2.5z" opacity=".65098" stroke="#000"/>
<path d="m1167.5 334l-1 2 1-2z" opacity=".65098" stroke="#000"/>
<path d="m431.5 335l-1 2 1-2z" opacity=".65098" stroke="#000"/>
<path d="m1050.5 335l1 2-1-2z" opacity=".65098" stroke="#000"/>
<path d="m722.5 337l1 2-1-2z" opacity=".65098" stroke="#000"/>
<path d="m928.5 337l0.5 2.5h-1l0.5-2.5z" opacity=".65098" stroke="#000"/>
<path d="m994.5 337l-1 2 1-2z" opacity=".65098" stroke="#000"/>
<path d="m898.5 339l0.5 10.5-2.5 1.5v-1l1.5-0.5 0.5-10.5z" opacity=".65098" stroke="#000"/>
<path d="m1247.5 339l0.5 6.5h-1l0.5-6.5z" opacity=".65098" stroke="#000"/>
<path d="m79.5 340l2.5 1.5-1.5 0.5-1-2z" opacity=".65098" stroke="#000"/>
<path d="m427.5 340l-2 3 2-3z" opacity=".65098" stroke="#000"/>
<path d="m727.5 340l1 2-1-2z" opacity=".65098" stroke="#000"/>
<path d="m316.5 342l-1 2 1-2z" opacity=".65098" stroke="#000"/>
<path d="m929.5 343l0.5 4.5h-1l0.5-4.5z" opacity=".65098" stroke="#000"/>
<path d="m991.5 343l0.5 56.5h-1l0.5-56.5z" opacity=".65098" stroke="#000"/>
<path d="m313.5 344l-1 2 1-2z" opacity=".65098" stroke="#000"/>
<path d="m1216.5 344l0.5 2.5h-1l0.5-2.5z" opacity=".65098" stroke="#000"/>
<path d="m60.5 345l1 2-1-2z" opacity=".65098" stroke="#000"/>
<path d="m560.5 345l0.5 2.5h-1l0.5-2.5z" opacity=".65098" stroke="#000"/>
<path d="m310.5 346l-1 2 1-2z" opacity=".65098" stroke="#000"/>
<path d="m422.5 346l-5 6 5-6z" opacity=".65098" stroke="#000"/>
<path d="m63.5 347l1 2-1-2z" opacity=".65098" stroke="#000"/>
<path d="m54.5 348l-3 4 3-4z" opacity=".65098" stroke="#000"/>
<path d="m66.5 349l1 2-1-2z" opacity=".65098" stroke="#000"/>
<path d="m559.5 350l0.5 2.5h-1l0.5-2.5z" opacity=".65098" stroke="#000"/>
<path d="m837.5 350l1.5 5.5-2-1 0.5-4.5z" opacity=".65098" stroke="#000"/>
<path d="m1091.5 350l0.5 2.5h-1l0.5-2.5z" opacity=".65098" stroke="#000"/>
<path d="m667.5 351l0.5 2.5h-1l0.5-2.5z" opacity=".65098" stroke="#000"/>
<path d="m889.5 351l2.5 0.5-2.5 0.5v-1z" opacity=".65098" stroke="#000"/>
<path d="m23.5 352l0.5 2.5h-1l0.5-2.5z" opacity=".65098" stroke="#000"/>
<path d="m805.5 352l0.5 2.5h-1l0.5-2.5z" opacity=".65098" stroke="#000"/>
<path d="m879.5 352l4.5 0.5-4.5 0.5v-1z" opacity=".65098" stroke="#000"/>
<path d="m865.5 353l7.5 0.5-7.5 0.5v-1z" opacity=".65098" stroke="#000"/>
<path d="m42.5 354l2.5 0.5-2.5 0.5v-1z" opacity=".65098" stroke="#000"/>
<path d="m74.5 354l1 2-1-2z" opacity=".65098" stroke="#000"/>
<path d="m849.5 354l7.5 0.5-7.5 0.5v-1z" opacity=".65098" stroke="#000"/>
<path d="m635.5 355l0.5 2.5h-1l0.5-2.5z" opacity=".65098" stroke="#000"/>
<path d="m929.5 355l0.5 3.5h-1l0.5-3.5z" opacity=".65098" stroke="#000"/>
<path d="m695.5 356l1 2-1-2z" opacity=".65098" stroke="#000"/>
<path d="m1217.5 356l0.5 35.5h-1l0.5-35.5z" opacity=".65098" stroke="#000"/>
<path d="m81.5 358l1 2-1-2z" opacity=".65098" stroke="#000"/>
<path d="m804.5 358l0.5 5.5h-1l0.5-5.5z" opacity=".65098" stroke="#000"/>
<path d="m1092.5 358l0.5 17.5h-1l0.5-17.5z" opacity=".65098" stroke="#000"/>
<path d="m1158.5 358l0.5 48.5h-1l0.5-48.5z" opacity=".65098" stroke="#000"/>
<path d="m526.5 359l0.5 3.5h-1l0.5-3.5z" opacity=".65098" stroke="#000"/>
<path d="m558.5 359l0.5 12.5h-1l0.5-12.5z" opacity=".65098" stroke="#000"/>
<path d="m668.5 359l0.5 12.5h-1l0.5-12.5z" opacity=".65098" stroke="#000"/>
<path d="m1059.5 359l0.5 2.5h-1l0.5-2.5z" opacity=".65098" stroke="#000"/>
<path d="m636.5 361l0.5 4.5h-1l0.5-4.5z" opacity=".65098" stroke="#000"/>
<path d="m223.5 362l2.5 0.5-2.5 0.5v-1z" opacity=".65098" stroke="#000"/>
<path d="m405.5 363l-4 5 4-5z" opacity=".65098" stroke="#000"/>
<path d="m771.5 363l1 2-1-2z" opacity=".65098" stroke="#000"/>
<path d="m927.5 363l-4 5 4-5z" opacity=".65098" stroke="#000"/>
<path d="m46.5 364l1 2-1-2z" opacity=".65098" stroke="#000"/>
<path d="m141.5 365l2.5 0.5-2.5 0.5v-1z" opacity=".65098" stroke="#000"/>
<path d="m208.5 365l2.5 0.5-2.5 0.5v-1z" opacity=".65098" stroke="#000"/>
<path d="m704.5 365l1 2-1-2z" opacity=".65098" stroke="#000"/>
<path d="m147.5 366l3.5 0.5-3.5 0.5v-1z" opacity=".65098" stroke="#000"/>
<path d="m202.5 366l2.5 0.5-2.5 0.5v-1z" opacity=".65098" stroke="#000"/>
<path d="m475.5 366l-1 2 1-2z" opacity=".65098" stroke="#000"/>
<path d="m48.5 367l1 2-1-2z" opacity=".65098" stroke="#000"/>
<path d="m155.5 367l4.5 0.5-4.5 0.5v-1z" opacity=".65098" stroke="#000"/>
<path d="m192.5 367l4.5 0.5-4.5 0.5v-1z" opacity=".65098" stroke="#000"/>
<path d="m1060.5 367l0.5 14.5h-1l0.5-14.5z" opacity=".65098" stroke="#000"/>
<path d="m164.5 368l20.5 0.5-20.5 0.5v-1z" opacity=".65098" stroke="#000"/>
<path d="m708.5 368l1 2-1-2z" opacity=".65098" stroke="#000"/>
<path d="m778.5 369l1 2-1-2z" opacity=".65098" stroke="#000"/>
<path d="m910.5 369l4.5 0.5-4.5 0.5v-1z" opacity=".65098" stroke="#000"/>
<path d="m397.5 370l-1 2 1-2z" opacity=".65098" stroke="#000"/>
<path d="m893.5 370l8.5 0.5-8.5 0.5v-1z" opacity=".65098" stroke="#000"/>
<path d="m23.5 371l0.5 3.5h-1l0.5-3.5z" opacity=".65098" stroke="#000"/>
<path d="m51.5 371l1 2-1-2z" opacity=".65098" stroke="#000"/>
<path d="m713.5 371l1 2-1-2z" opacity=".65098" stroke="#000"/>
<path d="m874.5 371l7.5 0.5-7.5 0.5v-1z" opacity=".65098" stroke="#000"/>
<path d="m859.5 372l5.5 0.5-5.5 0.5v-1z" opacity=".65098" stroke="#000"/>
<path d="m470.5 373l-1 2 1-2z" opacity=".65098" stroke="#000"/>
<path d="m781.5 373l1 2-1-2z" opacity=".65098" stroke="#000"/>
<path d="m844.5 373l6.5 0.5-6.5 0.5v-1z" opacity=".65098" stroke="#000"/>
<path d="m392.5 374l-1 2 1-2z" opacity=".65098" stroke="#000"/>
<path d="m804.5 374l0.5 5.5h-1l0.5-5.5z" opacity=".65098" stroke="#000"/>
<path d="m54.5 375l1 2-1-2z" opacity=".65098" stroke="#000"/>
<path d="m388.5 377l-1 2 1-2z" opacity=".65098" stroke="#000"/>
<path d="m559.5 377l0.5 2.5h-1l0.5-2.5z" opacity=".65098" stroke="#000"/>
<path d="m667.5 377l0.5 3.5h-1l0.5-3.5z" opacity=".65098" stroke="#000"/>
<path d="m838.5 378l0.5 2.5h-1l0.5-2.5z" opacity=".65098" stroke="#000"/>
<path d="m58.5 380l5 6-5-6z" opacity=".65098" stroke="#000"/>
<path d="m384.5 380l-1 2 1-2z" opacity=".65098" stroke="#000"/>
<path d="m526.5 380l0.5 3.5h-1l0.5-3.5z" opacity=".65098" stroke="#000"/>
<path d="m636.5 380l0.5 5.5h-1l0.5-5.5z" opacity=".65098" stroke="#000"/>
<path d="m1091.5 380l0.5 2.5h-1l0.5-2.5z" opacity=".65098" stroke="#000"/>
<path d="m24.5 381l0.5 2.5h-1l0.5-2.5z" opacity=".65098" stroke="#000"/>
<path d="m141.5 381l2.5 0.5-2.5 0.5v-1z" opacity=".65098" stroke="#000"/>
<path d="m464.5 381l-1 2 1-2z" opacity=".65098" stroke="#000"/>
<path d="m147.5 382l3.5 0.5-3.5 0.5v-1z" opacity=".65098" stroke="#000"/>
<path d="m218.5 382l2.5 0.5-2.5 0.5v-1z" opacity=".65098" stroke="#000"/>
<path d="m560.5 382l0.5 2.5h-1l0.5-2.5z" opacity=".65098" stroke="#000"/>
<path d="m154.5 383l3.5 0.5-3.5 0.5v-1z" opacity=".65098" stroke="#000"/>
<path d="m210.5 383l3.5 0.5-3.5 0.5v-1z" opacity=".65098" stroke="#000"/>
<path d="m163.5 384l5.5 0.5-5.5 0.5v-1z" opacity=".65098" stroke="#000"/>
<path d="m199.5 384l5.5 0.5-5.5 0.5v-1z" opacity=".65098" stroke="#000"/>
<path d="m461.5 385l-2 3 2-3z" opacity=".65098" stroke="#000"/>
<path d="m25.5 386l0.5 2.5h-1l0.5-2.5z" opacity=".65098" stroke="#000"/>
<path d="m1059.5 387l0.5 2.5h-1l0.5-2.5z" opacity=".65098" stroke="#000"/>
<path d="m372.5 388l-1 2 1-2z" opacity=".65098" stroke="#000"/>
<path d="m789.5 389l0.5 3.5h-1l0.5-3.5z" opacity=".65098" stroke="#000"/>
<path d="m69.5 391l3 4-3-4z" opacity=".65098" stroke="#000"/>
<path d="m367.5 391l-1 2 1-2z" opacity=".65098" stroke="#000"/>
<path d="m456.5 391l-3 4 3-4z" opacity=".65098" stroke="#000"/>
<path d="m755.5 392l5 6-5-6z" opacity=".65098" stroke="#000"/>
<path d="m688.5 393l-4 5 4-5z" opacity=".65098" stroke="#000"/>
<path d="m704.5 393l1 2-1-2z" opacity=".65098" stroke="#000"/>
<path d="m358.5 396l-1 2 1-2z" opacity=".65098" stroke="#000"/>
<path d="m1127.5 396l0.5 12.5h-1l0.5-12.5z" opacity=".65098" stroke="#000"/>
<path d="m77.5 398l1 2-1-2z" opacity=".65098" stroke="#000"/>
<path d="m845.5 399l1 2-1-2z" opacity=".65098" stroke="#000"/>
<path d="m789.5 402l0.5 2.5h-1l0.5-2.5z" opacity=".65098" stroke="#000"/>
<path d="m847.5 402l1 2-1-2z" opacity=".65098" stroke="#000"/>
<path d="m630.5 403l-1 2 1-2z" opacity=".65098" stroke="#000"/>
<path d="m85.5 404l1 2-1-2z" opacity=".65098" stroke="#000"/>
<path d="m444.5 404l-3 4 3-4z" opacity=".65098" stroke="#000"/>
<path d="m681.5 404l0.5 4.5h-1l0.5-4.5z" opacity=".65098" stroke="#000"/>
<path d="m912.5 404l-2 3 2-3z" opacity=".65098" stroke="#000"/>
<path d="m88.5 406l1 2-1-2z" opacity=".65098" stroke="#000"/>
<path d="m570.5 406l3 4-3-4z" opacity=".65098" stroke="#000"/>
<path d="m657.5 406l-1 2 1-2z" opacity=".65098" stroke="#000"/>
<path d="m812.5 406l1 2-1-2z" opacity=".65098" stroke="#000"/>
<path d="m534.5 408l1 2-1-2z" opacity=".65098" stroke="#000"/>
<path d="m928.5 408l0.5 2.5h-1l0.5-2.5z" opacity=".65098" stroke="#000"/>
<path d="m1216.5 408l0.5 5.5h-1l0.5-5.5z" opacity=".65098" stroke="#000"/>
<path d="m1248.5 408l0.5 5.5h-1l0.5-5.5z" opacity=".65098" stroke="#000"/>
<path d="m626.5 409l-6 7 6-7z" opacity=".65098" stroke="#000"/>
<path d="m655.5 409l-1 2 1-2z" opacity=".65098" stroke="#000"/>
<path d="m906.5 409l-2 3 2-3z" opacity=".65098" stroke="#000"/>
<path d="m1051.5 409l-7 8 7-8z" opacity=".65098" stroke="#000"/>
<path d="m1080.5 409l-1 2 1-2z" opacity=".65098" stroke="#000"/>
<path d="m855.5 410l1 2-1-2z" opacity=".65098" stroke="#000"/>
<path d="m714.5 411l5 6-5-6z" opacity=".65098" stroke="#000"/>
<path d="m815.5 411l1 2-1-2z" opacity=".65098" stroke="#000"/>
<path d="m98.5 412l1 2-1-2z" opacity=".65098" stroke="#000"/>
<path d="m576.5 412l2 3-2-3z" opacity=".65098" stroke="#000"/>
<path d="m761.5 412l-1 2 1-2z" opacity=".65098" stroke="#000"/>
<path d="m434.5 413l-3 4 3-4z" opacity=".65098" stroke="#000"/>
<path d="m652.5 413l-1 2 1-2z" opacity=".65098" stroke="#000"/>
<path d="m786.5 413l0.5 1.5-2 1 1.5-2.5z" opacity=".65098" stroke="#000"/>
<path d="m928.5 413l0.5 2.5h-1l0.5-2.5z" opacity=".65098" stroke="#000"/>
<path d="m1002.5 413l1 2-1-2z" opacity=".65098" stroke="#000"/>
<path d="m1077.5 413l-1 2 1-2z" opacity=".65098" stroke="#000"/>
<path d="m538.5 414l1 2-1-2z" opacity=".65098" stroke="#000"/>
<path d="m817.5 414l1 2-1-2z" opacity=".65098" stroke="#000"/>
<path d="m1126.5 414l0.5 2.5h-1l0.5-2.5z" opacity=".65098" stroke="#000"/>
<path d="m1159.5 414l0.5 2.5h-1l0.5-2.5z" opacity=".65098" stroke="#000"/>
<path d="m758.5 415l-2 3 2-3z" opacity=".65098" stroke="#000"/>
<path d="m618.5 416l-1 2 1-2z" opacity=".65098" stroke="#000"/>
<path d="m685.5 417l2 3-2-3z" opacity=".65098" stroke="#000"/>
<path d="m38.5 418l1 2-1-2z" opacity=".65098" stroke="#000"/>
<path d="m541.5 418l7 8-7-8z" opacity=".65098" stroke="#000"/>
<path d="m648.5 418l-5 6 5-6z" opacity=".65098" stroke="#000"/>
<path d="m875.5 418l7.5 0.5-7.5 0.5v-1z" opacity=".65098" stroke="#000"/>
<path d="m1073.5 418l-5 6 5-6z" opacity=".65098" stroke="#000"/>
<path d="m427.5 419l-2 3 2-3z" opacity=".65098" stroke="#000"/>
<path d="m783.5 419l-1 2 1-2z" opacity=".65098" stroke="#000"/>
<path d="m821.5 419l6 7-6-7z" opacity=".65098" stroke="#000"/>
<path d="m925.5 420l-5 6 5-6z" opacity=".65098" stroke="#000"/>
<path d="m1214.5 420l-1 2 1-2z" opacity=".65098" stroke="#000"/>
<path d="m1250.5 420l1 2-1-2z" opacity=".65098" stroke="#000"/>
<path d="m40.5 421l1 2-1-2z" opacity=".65098" stroke="#000"/>
<path d="m602.5 421l4.5 0.5-4.5 0.5v-1z" opacity=".65098" stroke="#000"/>
<path d="m1020.5 421l5.5 0.5-5.5 0.5v-1z" opacity=".65098" stroke="#000"/>
<path d="m1028.5 421l3.5 0.5-3.5 0.5v-1z" opacity=".65098" stroke="#000"/>
<path d="m1113.5 421l2.5 0.5-2.5 0.5v-1z" opacity=".65098" stroke="#000"/>
<path d="m1170.5 421l2.5 0.5-2.5 0.5v-1z" opacity=".65098" stroke="#000"/>
<path d="m1202.5 421l3.5 0.5-3.5 0.5v-1z" opacity=".65098" stroke="#000"/>
<path d="m1259.5 421l3.5 0.5-3.5 0.5v-1z" opacity=".65098" stroke="#000"/>
<path d="m689.5 422l3 4-3-4z" opacity=".65098" stroke="#000"/>
<path d="m737.5 422l3.5 0.5-3.5 0.5v-1z" opacity=".65098" stroke="#000"/>
<path d="m1107.5 423l-1 2 1-2z" opacity=".65098" stroke="#000"/>
<path d="m1178.5 423l2.5 3.5h-1l-1.5-3.5z" opacity=".65098" stroke="#000"/>
<path d="m421.5 424l-1 2 1-2z" opacity=".65098" stroke="#000"/>
<path d="m43.5 425l1 2-1-2z" opacity=".65098" stroke="#000"/>
<path d="m639.5 426l-1 2 1-2z" opacity=".65098" stroke="#000"/>
<path d="m1064.5 426l-1 2 1-2z" opacity=".65098" stroke="#000"/>
<path d="m417.5 427l-2 3 2-3z" opacity=".65098" stroke="#000"/>
<path d="m551.5 427l1 2-1-2z" opacity=".65098" stroke="#000"/>
<path d="m695.5 427l2 3-2-3z" opacity=".65098" stroke="#000"/>
<path d="m830.5 427l1 2-1-2z" opacity=".65098" stroke="#000"/>
<path d="m774.5 428l-1 2 1-2z" opacity=".65098" stroke="#000"/>
<path d="m141.5 429l2.5 0.5-2.5 0.5v-1z" opacity=".65098" stroke="#000"/>
<path d="m1060.5 429l-1 2 1-2z" opacity=".65098" stroke="#000"/>
<path d="m1181.5 429l0.5 2.5h-1l0.5-2.5z" opacity=".65098" stroke="#000"/>
<path d="m146.5 430l2.5 0.5-2.5 0.5v-1z" opacity=".65098" stroke="#000"/>
<path d="m413.5 430l-1 2 1-2z" opacity=".65098" stroke="#000"/>
<path d="m48.5 431l7 8-7-8z" opacity=".65098" stroke="#000"/>
<path d="m151.5 431l2.5 0.5-2.5 0.5v-1z" opacity=".65098" stroke="#000"/>
<path d="m251.5 431l2.5 0.5-2.5 0.5v-1z" opacity=".65098" stroke="#000"/>
<path d="m557.5 431l1 2-1-2z" opacity=".65098" stroke="#000"/>
<path d="m836.5 431l1 2-1-2z" opacity=".65098" stroke="#000"/>
<path d="m158.5 432l3.5 0.5-3.5 0.5v-1z" opacity=".65098" stroke="#000"/>
<path d="m243.5 432l3.5 0.5-3.5 0.5v-1z" opacity=".65098" stroke="#000"/>
<path d="m167.5 433l3.5 0.5-3.5 0.5v-1z" opacity=".65098" stroke="#000"/>
<path d="m234.5 433l3.5 0.5-3.5 0.5v-1z" opacity=".65098" stroke="#000"/>
<path d="m409.5 433l-1 2 1-2z" opacity=".65098" stroke="#000"/>
<path d="m704.5 433l2.5 1.5-1.5 0.5-1-2z" opacity=".65098" stroke="#000"/>
<path d="m176.5 434l6.5 0.5-6.5 0.5v-1z" opacity=".65098" stroke="#000"/>
<path d="m220.5 434l7.5 0.5-7.5 0.5v-1z" opacity=".65098" stroke="#000"/>
<path d="m991.5 434l0.5 30.5h-1l0.5-30.5z" opacity=".65098" stroke="#000"/>
<path d="m197.5 435l11.5 0.5-11.5 0.5v-1z" opacity=".65098" stroke="#000"/>
<path d="m406.5 435l-1 2 1-2z" opacity=".65098" stroke="#000"/>
<path d="m1106.5 435l2 3-2-3z" opacity=".65098" stroke="#000"/>
<path d="m1195.5 435l1 2-1-2z" opacity=".65098" stroke="#000"/>
<path d="m1269.5 435l-1 2 1-2z" opacity=".65098" stroke="#000"/>
<path d="m1136.5 437l14.5 0.5-14.5 0.5v-1z" opacity=".65098" stroke="#000"/>
<path d="m1226.5 437l13.5 0.5-13.5 0.5v-1z" opacity=".65098" stroke="#000"/>
<path d="m1003.5 438l2.5 0.5-2.5 0.5v-1z" opacity=".65098" stroke="#000"/>
<path d="m1128.5 438l3.5 0.5-3.5 0.5v-1z" opacity=".65098" stroke="#000"/>
<path d="m1155.5 438l2.5 0.5-2.5 0.5v-1z" opacity=".65098" stroke="#000"/>
<path d="m1217.5 438l4.5 0.5-4.5 0.5v-1z" opacity=".65098" stroke="#000"/>
<path d="m1244.5 438l3.5 0.5-3.5 0.5v-1z" opacity=".65098" stroke="#000"/>
<path d="m578.5 439l2.5 0.5-2.5 0.5v-1z" opacity=".65098" stroke="#000"/>
<path d="m749.5 439l2.5 0.5-2.5 0.5v-1z" opacity=".65098" stroke="#000"/>
<path d="m856.5 439l2.5 0.5-2.5 0.5v-1z" opacity=".65098" stroke="#000"/>
<path d="m889.5 439l2.5 0.5-2.5 0.5v-1z" opacity=".65098" stroke="#000"/>
<path d="m1114.5 439l8.5 0.5-8.5 0.5v-1z" opacity=".65098" stroke="#000"/>
<path d="m1163.5 439l8.5 0.5-8.5 0.5v-1z" opacity=".65098" stroke="#000"/>
<path d="m1204.5 439l8.5 0.5-8.5 0.5v-1z" opacity=".65098" stroke="#000"/>
<path d="m1252.5 439l8.5 0.5-8.5 0.5v-1z" opacity=".65098" stroke="#000"/>
<path d="m585.5 440l4.5 0.5-4.5 0.5v-1z" opacity=".65098" stroke="#000"/>
<path d="m602.5 440l4.5 0.5-4.5 0.5v-1z" opacity=".65098" stroke="#000"/>
<path d="m725.5 440l6.5 0.5-6.5 0.5v-1z" opacity=".65098" stroke="#000"/>
<path d="m741.5 440l4.5 0.5-4.5 0.5v-1z" opacity=".65098" stroke="#000"/>
<path d="m863.5 440l5.5 0.5-5.5 0.5v-1z" opacity=".65098" stroke="#000"/>
<path d="m879.5 440l6.5 0.5-6.5 0.5v-1z" opacity=".65098" stroke="#000"/>
<path d="m1015.5 440l4.5 0.5-4.5 0.5v-1z" opacity=".65098" stroke="#000"/>
<path d="m1028.5 440l4.5 0.5-4.5 0.5v-1z" opacity=".65098" stroke="#000"/>
<path d="m59.5 441l2 3-2-3z" opacity=".65098" stroke="#000"/>
<path d="m395.5 442l-1 2 1-2z" opacity=".65098" stroke="#000"/>
<path d="m64.5 445l1 2-1-2z" opacity=".65098" stroke="#000"/>
<path d="m390.5 445l-1 2 1-2z" opacity=".65098" stroke="#000"/>
<path d="m68.5 448l1 2-1-2z" opacity=".65098" stroke="#000"/>
<path d="m381.5 450l-1 2 1-2z" opacity=".65098" stroke="#000"/>
<path d="m77.5 454l1 2-1-2z" opacity=".65098" stroke="#000"/>
<path d="m960.5 470l0.5 4.5h-1l0.5-4.5z" opacity=".65098" stroke="#000"/>
<path d="m1006.5 477l7.5 0.5-7.5 0.5v-1z" opacity=".65098" stroke="#000"/>
<path d="m944.5 478l2.5 0.5-2.5 0.5v-1z" opacity=".65098" stroke="#000"/>
<path d="m950.5 478l5.5 0.5-5.5 0.5v-1z" opacity=".65098" stroke="#000"/>
<path d="m995.5 478l5.5 0.5-5.5 0.5v-1z" opacity=".65098" stroke="#000"/>
<path d="m942.5 479l-1 2 1-2z" opacity=".65098" stroke="#000"/>
<path d="m1017.5 479l1 2-1-2z" opacity=".65098" stroke="#000"/>
<path d="m151.5 481l2.5 0.5-2.5 0.5v-1z" opacity=".65098" stroke="#000"/>
<path d="m156.5 482l2.5 0.5-2.5 0.5v-1z" opacity=".65098" stroke="#000"/>
<path d="m162.5 483l2.5 0.5-2.5 0.5v-1z" opacity=".65098" stroke="#000"/>
<path d="m290.5 483l2.5 0.5-2.5 0.5v-1z" opacity=".65098" stroke="#000"/>
<path d="m168.5 484l3.5 0.5-3.5 0.5v-1z" opacity=".65098" stroke="#000"/>
<path d="m176.5 485l2.5 0.5-2.5 0.5v-1z" opacity=".65098" stroke="#000"/>
<path d="m280.5 485l2.5 0.5-2.5 0.5v-1z" opacity=".65098" stroke="#000"/>
<path d="m184.5 486l3.5 0.5-3.5 0.5v-1z" opacity=".65098" stroke="#000"/>
<path d="m274.5 486l2.5 0.5-2.5 0.5v-1z" opacity=".65098" stroke="#000"/>
<path d="m1021.5 486l0.5 3.5h-1l0.5-3.5z" opacity=".65098" stroke="#000"/>
<path d="m193.5 487l4.5 0.5-4.5 0.5v-1z" opacity=".65098" stroke="#000"/>
<path d="m266.5 487l3.5 0.5-3.5 0.5v-1z" opacity=".65098" stroke="#000"/>
<path d="m205.5 488l11.5 0.5-11.5 0.5v-1z" opacity=".65098" stroke="#000"/>
<path d="m253.5 488l8.5 0.5-8.5 0.5v-1z" opacity=".65098" stroke="#000"/>
<path d="m939.5 492l3 4-3-4z" opacity=".65098" stroke="#000"/>
<path d="m1019.5 493l-2 3 2-3z" opacity=".65098" stroke="#000"/>
<path d="m964.5 496l3.5 0.5-3.5 0.5v-1z" opacity=".65098" stroke="#000"/>
<path d="m985.5 496l7.5 0.5-7.5 0.5v-1z" opacity=".65098" stroke="#000"/>
<path d="m947.5 497l11.5 0.5-11.5 0.5v-1z" opacity=".65098" stroke="#000"/>
<path d="m1000.5 497l11.5 0.5-11.5 0.5v-1z" opacity=".65098" stroke="#000"/>
<path d="m492.5 39q18.9-1.4 28.5 6.5 2.7 2.3 2 8l-7.5 8.5q-8.8 3.7-14.5 10.5l-6 12-6 19-6 25v7l19 21 10 19 4 21v38l-1 1-1 22-6 33-9 29-7 17q-21.3 45.2-56.5 76.5-40.3 36.2-96 57l-32 10-34 7-20 1-1 1h-35l-1-1h-18l-1-1h-9l-1-1-22-2-21-4-29-8q-22.2-7.8-41-19-16.7-10.8-29.5-25.5-11.8-14.2-18-34l-3-13v-28q-3-4-3-11 1.4-7.6 6.5-11.5 6.7-6.8 21-6l32 18 43 19 24 6 16 1 1 1h20l1-1 19-1 21-4 27-8 22-9q42.5-19.5 73.5-50.5 18.6-18.9 31-44l9-21 17-53 6-14q7.7-17.8 21.5-29.5l9.5-5.5 16-60v-6q-5.2-2.3-5-10l2-3.5 12.5-6 15-3h9l1-1zm-19.5 27l-4 6v4l-16 61-5 3-11 12-12 21-12 32-4 17-10 29q-11 26-28 46-15 17-33 31-22 17-46 30-22 11-47 19l-21 5-13 1-1 1h-10l-1 1h-29l-1-1h-10l-1-1-19-2-15-4q-38-12-66-34l-2 4q-4 7-14 7v4l4 7 12 16q24 27 61 42l15 5 18 4 24 2 1 1h20l1 1 30-1 1-1 25-2 26-5 32-9q29-10 55-25l35-25q30-27 50-63 11-21 19-45l6-23 3-17v-8l1-1v-30l-1-1-1-13-3-10-9-16 5-24 13-48-12-3z" opacity=".99608" stroke="#000"/>
<path d="m1152.5 228q6.9-0.9 8.5 3.5l1 7-2 4-2 11v63l8.5-7.5q8.6-7.4 21-11l4-1h20q17.5 3.5 26.5 15.5l6 11 3 12v10l1 1v67l1 5 2.5 3.5h14l3.5 2.5 2 7-3.5 5.5-4 2h-15l-9-2h-13l-10 2h-15l-6.5-4.5-1-5 3.5-6.5 2-1h14l1.5-1.5 2-7 1-57-1-1v-11l-2-8q-2.9-8.1-9.5-12.5-6.6-5-20-3-10.9 2.6-16.5 10.5-7.9 10.1-11 25v2 48l1 1v9l2 5.5h14.5l4.5 3.5 1 8-2.5 3.5-5 2h-15l-8-2h-14l-9 2h-15l-6.5-4.5-1-6 3.5-5.5 2-1h14.5l2-5.5q-1.7-6.3 1-8v-141l-2-6-2.5-2.5-9-2-5.5-4.5q-1.7-8.7 3.5-10.5l26-7 14-7z" opacity=".99608" stroke="#000"/>
<path d="m870.5 296h8l16 3q13.9 5.1 22.5 15.5 7.4 8.6 11 21l2 19-2 8-5.5 5.5-12 1-1 1-35 1-1 1h-14l-1 1h-14l-6.5 1q1.5 26.2 18.5 38l13 6 13 1 15-3q9.5-4.5 16-12 2.3-2.7 8-2l5.5 3.5 2 7-2 6-9.5 9.5q-9.6 7.4-23 11l-25 2-1-1-14-1-12-4q-14.2-6.7-23.5-18.5-8-10-12-24l-2-9-1-19 1-1 1-13 5-15q7.1-14.9 19.5-24.5l17-10 9-3 13-1 1-1zm-5.5 19l-11 5-10 11-5 11-2 9q-1 4 2 5l1-1h17l1-1 26-1 1-1 13-1 1-1v-10l-7-15-11-9-16-1z" opacity=".99608" stroke="#000"/>
<path d="m586.5 297h25l19 5q14.9 7.1 24.5 19.5 8.5 11 12 27-1.2 4.8 1 6v22q-5.9 32.6-27.5 49.5-9.3 7.7-22 12l-17 3h-11l-1-1-13-1-15-5q-12.9-6.6-21.5-17.5l-8-13-4-12-1-11-1-1v-16l3-15 5-13 14.5-19.5q14.2-14.3 38-19zm5.5 18l-12 3-3 2q-9 7-14 18l-3 8-1 13-1 1v12l1 1 1 12 5 14 5 8q8 11 25 15h12l14-6 10-12 6-18q3-36-11-54-7-10-18-15l-9-2h-7z" opacity=".99608" stroke="#000"/>
<path d="m726.5 297h23l5 1q14.1 3.4 22.5 12.5l4 7v7l-5.5 6.5q-3.8 4.2-13 3l-7.5-5.5-8.5-10.5q-6.2-4.8-19-3l-8 3-2.5 2.5q-3.2 2.3-2 9l4.5 6.5 9 6 35 16 17.5 14.5 8 15 1 14q-2.9 17.6-14.5 26.5-8.8 7.7-22 11l-21 2-1-1h-9l-11-3q-14.2-5.7-23.5-16.5l-6-10v-8q1.6-6.9 7.5-9.5 2.9-2.6 9-2 5.8 1.3 8.5 5.5 3.4 13.1 12.5 20.5l11 5 10 1 10-2q7.4-2.6 11.5-8.5 2.5-3.5 1-11l-7.5-9.5-18-10-22-9q-10.9-5.6-18.5-14.5l-8-16v-16q3.7-12.8 13.5-19.5l8-5 16-5z" opacity=".99608" stroke="#000"/>
<path d="m983.5 297q9.5-2 11.5 3.5l-1 10 4.5-3.5q14-12.5 43-10 24.3 4.7 36.5 21.5 9.1 11.9 13 29-1.2 4.8 1 6v26q-5.8 30.7-26.5 46.5-15.4 14.6-45 15l-1-1h-9q-2.9-2.6-9-2l-10.5-4v30.5l1 1v13.5h8.5l1-1h14q6.9 2.1 5.5 12.5l-4.5 5.5-3 1h-20l-1-1h-16l-1-1-1 1h-10l-1 1h-18l-6.5-5.5-1-5 2-5.5q3-2.7 9.5-3l1 1h9.5l1-4.5v-140l-4.5-7.5-10-2-4.5-4.5q-1.5-9 4.5-10.5l24-6 13-7zm39.5 22l-9 2-9 5q-9 7-14 18v56l3 6q9 12 27 16h11l13-5q7-5 11-14l4-13q-2-7 1-8 1-35-14-52-7-11-24-11z" opacity=".99608" stroke="#000"/>
</svg>
